<mxfile host="app.diagrams.net" modified="2024-02-21T19:52:54.101Z" agent="Mozilla/5.0 (Windows NT 10.0; Win64; x64) AppleWebKit/537.36 (KHTML, like Gecko) Chrome/121.0.0.0 Safari/537.36" etag="7qhV6JQAf24AIsgd9F6s" version="23.1.5" type="github">
  <diagram id="C5RBs43oDa-KdzZeNtuy" name="Page-1">
    <mxGraphModel dx="486" dy="663" grid="1" gridSize="10" guides="1" tooltips="1" connect="1" arrows="1" fold="1" page="1" pageScale="1" pageWidth="827" pageHeight="1169" math="0" shadow="0">
      <root>
        <mxCell id="WIyWlLk6GJQsqaUBKTNV-0" />
        <mxCell id="WIyWlLk6GJQsqaUBKTNV-1" parent="WIyWlLk6GJQsqaUBKTNV-0" />
        <mxCell id="V5vFEUDcHm2LEVWNf_BM-112" value="VPC" style="points=[[0,0],[0.25,0],[0.5,0],[0.75,0],[1,0],[1,0.25],[1,0.5],[1,0.75],[1,1],[0.75,1],[0.5,1],[0.25,1],[0,1],[0,0.75],[0,0.5],[0,0.25]];outlineConnect=0;gradientColor=none;html=1;whiteSpace=wrap;fontSize=12;fontStyle=0;container=1;pointerEvents=0;collapsible=0;recursiveResize=0;shape=mxgraph.aws4.group;grIcon=mxgraph.aws4.group_vpc2;strokeColor=#8C4FFF;fillColor=none;verticalAlign=top;align=left;spacingLeft=30;fontColor=#AAB7B8;dashed=0;" vertex="1" parent="WIyWlLk6GJQsqaUBKTNV-1">
          <mxGeometry x="1680" y="180" width="530" height="550" as="geometry" />
        </mxCell>
        <mxCell id="V5vFEUDcHm2LEVWNf_BM-114" value="" style="outlineConnect=0;dashed=0;verticalLabelPosition=bottom;verticalAlign=top;align=center;html=1;shape=mxgraph.aws3.hosted_zone;fillColor=#F58536;gradientColor=none;" vertex="1" parent="WIyWlLk6GJQsqaUBKTNV-1">
          <mxGeometry x="1929.5" y="120" width="50" height="50" as="geometry" />
        </mxCell>
        <mxCell id="V5vFEUDcHm2LEVWNf_BM-293" value="Private subnet" style="points=[[0,0],[0.25,0],[0.5,0],[0.75,0],[1,0],[1,0.25],[1,0.5],[1,0.75],[1,1],[0.75,1],[0.5,1],[0.25,1],[0,1],[0,0.75],[0,0.5],[0,0.25]];outlineConnect=0;gradientColor=none;html=1;whiteSpace=wrap;fontSize=12;fontStyle=0;container=1;pointerEvents=0;collapsible=0;recursiveResize=0;shape=mxgraph.aws4.group;grIcon=mxgraph.aws4.group_security_group;grStroke=0;strokeColor=#00A4A6;fillColor=#E6F6F7;verticalAlign=top;align=left;spacingLeft=30;fontColor=#147EBA;dashed=0;" vertex="1" parent="WIyWlLk6GJQsqaUBKTNV-1">
          <mxGeometry x="1691" y="211" width="510" height="499" as="geometry" />
        </mxCell>
        <mxCell id="V5vFEUDcHm2LEVWNf_BM-295" value="" style="sketch=0;points=[[0,0,0],[0.25,0,0],[0.5,0,0],[0.75,0,0],[1,0,0],[0,1,0],[0.25,1,0],[0.5,1,0],[0.75,1,0],[1,1,0],[0,0.25,0],[0,0.5,0],[0,0.75,0],[1,0.25,0],[1,0.5,0],[1,0.75,0]];outlineConnect=0;fontColor=#232F3E;fillColor=#7AA116;strokeColor=#ffffff;dashed=0;verticalLabelPosition=bottom;verticalAlign=top;align=center;html=1;fontSize=12;fontStyle=0;aspect=fixed;shape=mxgraph.aws4.resourceIcon;resIcon=mxgraph.aws4.s3;" vertex="1" parent="WIyWlLk6GJQsqaUBKTNV-1">
          <mxGeometry x="1919" y="448" width="50" height="50" as="geometry" />
        </mxCell>
        <mxCell id="V5vFEUDcHm2LEVWNf_BM-302" value="" style="rounded=1;whiteSpace=wrap;html=1;noLabel=1;labelBackgroundColor=default;fillColor=#dae8fc;strokeColor=#6c8ebf;" vertex="1" parent="WIyWlLk6GJQsqaUBKTNV-1">
          <mxGeometry x="1701" y="392" width="186" height="214" as="geometry" />
        </mxCell>
        <mxCell id="V5vFEUDcHm2LEVWNf_BM-304" value="Active" style="text;html=1;align=center;verticalAlign=middle;resizable=0;points=[];autosize=1;strokeColor=none;fillColor=none;fontSize=16;fontStyle=1;rotation=0;" vertex="1" parent="WIyWlLk6GJQsqaUBKTNV-1">
          <mxGeometry x="1754.5" y="386" width="70" height="30" as="geometry" />
        </mxCell>
        <mxCell id="V5vFEUDcHm2LEVWNf_BM-305" value="PORT 8081" style="text;html=1;align=center;verticalAlign=middle;resizable=0;points=[];autosize=1;strokeColor=none;fillColor=none;fontSize=8;" vertex="1" parent="WIyWlLk6GJQsqaUBKTNV-1">
          <mxGeometry x="1745.5" y="444" width="70" height="20" as="geometry" />
        </mxCell>
        <mxCell id="V5vFEUDcHm2LEVWNf_BM-310" value="" style="rounded=1;whiteSpace=wrap;html=1;noLabel=1;labelBackgroundColor=default;fillColor=#fff2cc;strokeColor=#d6b656;" vertex="1" parent="WIyWlLk6GJQsqaUBKTNV-1">
          <mxGeometry x="2002" y="389" width="190" height="227" as="geometry" />
        </mxCell>
        <mxCell id="V5vFEUDcHm2LEVWNf_BM-314" value="" style="sketch=0;points=[[0,0,0],[0.25,0,0],[0.5,0,0],[0.75,0,0],[1,0,0],[0,1,0],[0.25,1,0],[0.5,1,0],[0.75,1,0],[1,1,0],[0,0.25,0],[0,0.5,0],[0,0.75,0],[1,0.25,0],[1,0.5,0],[1,0.75,0]];outlineConnect=0;fontColor=#232F3E;fillColor=#ED7100;strokeColor=#ffffff;dashed=0;verticalLabelPosition=bottom;verticalAlign=top;align=center;html=1;fontSize=12;fontStyle=0;aspect=fixed;shape=mxgraph.aws4.resourceIcon;resIcon=mxgraph.aws4.fargate;" vertex="1" parent="WIyWlLk6GJQsqaUBKTNV-1">
          <mxGeometry x="2007" y="417" width="50" height="50" as="geometry" />
        </mxCell>
        <mxCell id="V5vFEUDcHm2LEVWNf_BM-316" style="edgeStyle=orthogonalEdgeStyle;rounded=0;orthogonalLoop=1;jettySize=auto;html=1;entryX=1;entryY=0.5;entryDx=0;entryDy=0;entryPerimeter=0;" edge="1" parent="WIyWlLk6GJQsqaUBKTNV-1" source="V5vFEUDcHm2LEVWNf_BM-315" target="V5vFEUDcHm2LEVWNf_BM-314">
          <mxGeometry relative="1" as="geometry" />
        </mxCell>
        <mxCell id="V5vFEUDcHm2LEVWNf_BM-322" value="3 Push Data&lt;br&gt;from S3 to Aurora" style="text;html=1;align=center;verticalAlign=middle;resizable=0;points=[];autosize=1;strokeColor=none;fillColor=none;" vertex="1" parent="WIyWlLk6GJQsqaUBKTNV-1">
          <mxGeometry x="1400" y="537" width="120" height="40" as="geometry" />
        </mxCell>
        <mxCell id="V5vFEUDcHm2LEVWNf_BM-323" value="3" style="text;html=1;align=center;verticalAlign=middle;resizable=0;points=[];autosize=1;strokeColor=none;fillColor=none;" vertex="1" parent="WIyWlLk6GJQsqaUBKTNV-1">
          <mxGeometry x="1420" y="483" width="30" height="30" as="geometry" />
        </mxCell>
        <mxCell id="V5vFEUDcHm2LEVWNf_BM-324" value="" style="shape=image;verticalLabelPosition=bottom;labelBackgroundColor=default;verticalAlign=top;aspect=fixed;imageAspect=0;image=data:image/png,iVBORw0KGgoAAAANSUhEUgAAAncAAAGZCAYAAADrbBcNAAAAAXNSR0IArs4c6QAAAARnQU1BAACxjwv8YQUAAAAJcEhZcwAADsMAAA7DAcdvqGQAAP+lSURBVHhe7P0HcJ1Zlt8JHhLeewIEQe+9SaZjel+VWZlVXVVdXd2SWhrFjBS7I81s7KojJmJCEZrZjd2JXa2kkGZCI2l6Q1K32pXPqkpT6ZOZTEPvHQhDeO89wNzzO/d95MPjA/Ae8ADC3H/mx2fx3vfud+85/2Pvqtd+0vKNeHh4eHh4eHh4LAusDt16eHh4eHh4eHgsA3hy5+Hh4eHh4eGxjODJnYeHh4eHh4fHMoIndx4eHh4eHh4eywie3Hl4eHh4eHh4LCN4cufh4eHh4eHhsYzgyZ2Hh4eHh4eHxzKCJ3ceHh4eHh4eHssIvomxh4fHosI339yRbybucEf4L8A3d/Q5ff4bfV4fuSfnEatWJ8mqJLV/V60KPeOwmudX3/+8h4eHx2KBJ3ceHh7zAyVhd+5MOB4GUYOcQdcgZ3dCt7zIa9y3x/rSxLjcGRtTgjcRPGW4Mz529/lJL8wTVqemyuqUFCN54UjS55OSk2F57gkleUb2Qli1arWSwtDfKP/jsazW9/CAWx57eHh4zCM8ufPw8IgfELLQrf5j//OP41zuMSRtfGjQnrszOqrETA8Imx4TIyN6O67v078JyNy4kjYFhPCb8XElg5A7+0ADr/OZRhLDnp8vrFYCt4ojjLgBCN/qJH0+IGlJqyUpLd15+ZTA8VpSZpYRu9VK8pJS00IkUd/H3+qhD+xPVwXev7Bbu+e9gh4eHnOAJ3ceHh5xAdIFORvXYwLSNqq3kDUlaHcm9BgJI3H6mnE9JWu8RrgVcmZk7hvngeN9vF84QggndZOwAKRuEqKSLLxvobtASdvqlNS7JBCSB9mz+6uTHBlMTtK/waPnCOPqFD3wABrxcx5Cu2/P4RlUMoh30MPDw2MW8OTOw8NjEoy8KfmaGB4xb9sEHjclb0bilMwZGeN1nofQBeFSvG2h1wLvGvlzhklhWF4KPR8ia+Fh2SUHvG3hbI/HgbcveM1eD90nNJukpE8JnHn0lPDhJXQkkOd4rGQvLS1EBJX8KfGD9CXrc0np6eYRDLx/Hh4eHpHw5M7DYyVCiZSRshAxw/NmXjg8bBA6Ho8MK6GDxOl7lNjZAXFTAhcUPRhJUyL3jZG3EKFboLDpkkaIABoJxKMXysWzx9w3j1/g5XPEDq9eclq6kT4jgObxc887UujI3918Pw8PjxULT+48PJY5zJtmRA7ipgf3lchNjA4bgSN0Oj44KONDQ/a8eeMCEmfEjcOFWT1xWzg44ue8fEHlrnn8CO3qffPmpWeYJy9ZiV1SRoYkZ2YZETRv4F1PILf35w56eHgsX3hy5+GxbOC8ZnZA6CBjekwMD8mYkjeO8cEBmdBjbKA/jMBB/sZDYVX925AHbrGBkGbS6lWyGo9XeM7bPGFCx2Libjh5kSHw/OHZM/IH8dP7+hjPXlJGphG9lKxsPbLukj7LD4QokgPIrSd8Hh7LEp7ceXgseegS5n8laePDAzLa1ysjPX0y2tUlo73dLpxqlaZK5EIkjqrTB0XgjJfd++cu7uNrEU8kKyHJy0mX3Kx0SdX78wVGZUIJcnfvkPQNjMjomI5VOCKG7f5RhBCG7j4AOKIHgYPspRj5I2Rrnj0leqk5eZJWWChpObmuyheCtxBs2cPDY8HgyZ2HxxIE5AyP3Gj/gIz1K5Hr65Hx/n65MzLkcucsV47bURdKBco4HOnQfxaYfSQlrZLCvCzJzU6X5KTVkpWZJkV5mZKkxCI1JVny9PmC3Ax7b7I+l6MELjcrTdJT71WMkpcGqUtJUbIyz2SE4YHUjY3fkTvB+ClGxyakS0lf/9CIjOvzd+58I32DI/rcoIwqgR4eHpPu/mHp1YPXOnsHZGBw1LyACwo8e7Bjhomx4jEkLxSmTUpzRRrJ6RmSkp0jqbl5kqJkLyU7W5KUCHqPnofH0oYndx4eix3KNIzMKXEbVQI31tenhK7fhViHXc4cRC+oZLUCB9iJHneJ3TwhMz1ViVqq3RbkZkpGerIU5GRItpI3nsvRW47VSsyyMtIkLS3Z7qcpoeN17kP2IHEZaSn2mYRd01OTJC01RVL0tbswjrJq3oldgDuMn41j6AkFHr1BJXAj5C4SstXnRpRID44omZ74RsmgEjy9Pzwybn9r7x0dN6I4oPd7+gZlWB939w1JnxLEIXtuWAb0PiRxdHTCfed8AIIXED1udZyN7FnunpLu9NAt4VwlfCnZuZKanaVEMMOTPQ+PJQZP7jw8FhtUudPIl1YkNAEeH3REjmN0gHw58uYGharW8CKHRBM5CECaki6IWrYSOHebJlnpKRYaTVcyZo8zUo2Y5Smpg6QROs1SopChRA7il633jZRZvpwjZhC04L4jbO650BN3nzMSssgAwTP+FSJhkEDleUbKeIqcRffYPQcJHNPrBJHrHRg2Yohnb2B41J6D1A0OjSrBG5V+vU8ouN8eQ/hGlSCOSp++n9fGE+0BDI01RI9bvHvk7EHwkkP5eink60H4MkMFG4RyfRsWD49FDU/uPDwWAYwQUMFK9eqIKvHhYRmz3LkeGe3plvGBPlfJGk7kYA9zBHrdQqNKyvCkZSpx44C4ZaalSn5uhhTkZUqhHkV5WXpkSH52hpQUZJtHjr/j793nhEiZ3q6mrYdxBu4vPoL2IADJC7yBwX079H7wHASvs3fQjq6+IenoGZQevW3r7JeO7gELB+PdgxAOjTivIJ5C/i5h0Ot1ty1LEg2Z05wXLy9H0vLyLWcvKT3Tnre2LEnJbiJ5eHgsGnhy5+HxgAChs6pWih1Gh2W4q12G2lpluKNLxiBz7PqAZ04VvxE5jjkAkpWcvFqSk5IsFMp9wqN410oKs6WitEA2rM2XijV5srYoV0oLc4zcBQSNW+dRc/c9aUs8uMR3IPoQPv3PcXhH/Cyc26+ET0leZX27NLT2SntXvzS390p1Q6eFhMfH78i4zhlu8RZyO2fodTbvHrdK+NhJI624WNKKSiRrzRqryF2dnGoFHNauxXv1PDweODy58/B4AMDzNj7ULwOtjTJQ3yQjXR0yMTTkqlkt7Dd3MhcOdHN2VrpsLC+UjWsLZLPebqkosgMih9cNDxyFD0mqoB2Bc7fuA+x/jwXG3RnAdOA/5WqQP8Kz5v3TgzAxhR41TV16dCrR65Cq+g6p1oPbhCNE8tyRJEkZ6Ub0sis2GNnDq+dz9Dw8Hiw8ufPwWAgoUYOwjXS3ymBrmwy3d8gYFa7Dw25rrxCpmy2hcxzM0S/IGd64tUU5smV9sWzXY+PaQinVx1SrkhcXFDAQfk1NSQojbo7F3XvssRhxb5q4OzzGszc8SjHHmAyNjMsQuXqDI1LX0mOED+J3u7lbGlt7ZFCfV15ofz/LKecQInoUZliIVo/UnFxJLymVjJISa7dCG5bQBPXw8FggeHLn4ZFwhBSm/kMO3Whvjwx3dspYf68ePXoMyPjAoFW5zkazoifvhUdXW9FDcWGWlJfkSYUe5SW5skaJHO1FivKzpDgvy9qMZKWnGvHzWDmwfn19w9aqhTw+qnQ7ewalvXtQGtp6jOg1tfdaqJeiDgsB68HtLKamAYJnzZNpsZKXJ2kFRdZqJZXwbWqKzl2dg57seXjMKzy58/BIBFCG3LLbw9iYjA70W7sSiN1IV6eFXelHxw4Q8WhNVODdIgU9yJfLzkqTwtxMR9w4CrKkrDjXSB35cmVFuUbmfE6cRySYefTc6x0YkUYldxC8prZeae7okzY9Wrv6pbWz30ggVbrk7IUXfcQD8+jhyaMIA3KnRA+vXkpWjlXhBh49y+fz8PBIKDy58/CYCyB1KD/br5U9WodktK9bBtsIvbZZxStVrvEgvGiBwofMjFTJUUKXl0Wj30wpL82zvLkt64pkU3mhlCuxoxGw15EeswHkjZAupO5GbavcuN0mdc3d0qJkD48fbVt69KAyF2I4K88e81mJHtW26UUlklFcYk2TkzMyQ3vhJjmS5yexh0dC4Mmdh8dsEFJwRurw1PV1WaXrYHOzDLe2Wg5dPHA6zZE6dmBwLUloDJxhRRC7tpTKXj12bSq1JsGQPg+P+QJErqWrT65Vt8qlW81yubLJPHx4/Kwx88iYVeMawWMtuD+LCXj0yM9LKyySrHXrJb2w2MK4kDz2xrXF4Emeh8ec4Mmdh0c8QJGpUmNrLxoMD7W3yWBLs4x2d8q4NRYei7swgjy49FSKG5KtOXD5mjzZt61M9iiZw0NHfzkaBeOdS0lOMo+eV30e8wkMl4k7bscNKnHZYaO+tUeuKtm7UtUst+rbpbWjX/oGho3s8Tqh25ih5M22Q0tKtv1u04tLJLN0raQXFUlSeoYkJae4iltP8jw8ZgVP7jw8YoC1Jxkfk/GgQEJJ3XB7u+XRjQ8PxU3q8M5RrcoOD+TMbSovks3lBVbVWlGaL4V5GUb0KIIICJ2Hx4METZPZPaNHCR2krrGtV67VtFoot6Gl526eHluv0aol1hw92xWDfW7ZDSOXAoxCySgibJsjyeyGofPf987z8IgPntx5eEwFvHRsA6bEbXxoyLxzI91ddoz29Mj4QH/M4VfyiWg5AqEj3FpckG0NgzetK5StFcVSWphtxRF46SB89J3z8FisgLixNVpzR680t/fZbb0SPDx6ePg62U1DXye8O0abnxi0jBVgpKTYFmep+QVG8tL1sNy89HQrwDBvnoeHx4zw5M7DIxKqie5MUPXq9nY1T12XkrqOdiN2bNZvG/TPAAgdXre0VHLoIHRZsr6swFqWrC9VYkdD4fICa1/iPXMeSxmuIKNPKus75DbNlBs7pb6526pwabMSbJUWq0eP3Lvk7BxJy893RC90JKdnWE89dsLQFebe7OHhcR88ufPwCGCeujuhViZ9Suq6rYWJhWA7u1zV6wyKiRQhes9R8JCRnmJ7stKapKI0zzx0e7aWybb1xb4owmPZAgJX19ItN2+3S2Vdm+2SQcuV1vY+C93SYHmCvNVYcvR0QVF8kVpQKFlla82bR1sVqmyN5HlPnodHVHhy5+EB8NaNj5unbrirUwaa6mWotUXG+/riqnxNTk6y5sFrCrPNK7d7S5kc3FEuuze7Kld8Db6vl8dyB0oFDx3euo6eQblc1SyXbjbKjdp2qWvukpZOV4wRcxGGrhly86zCdu1aySgpVZKXLynZ2fqSJ3geHpHw5M5jZUMVEDl1Y4P9MtrdZV46WpqMKaljB4lYiiQIqVphRH6WrFuTL9s2FFul686NaywUS1EElbDs3epxP/D0kIjPTgpsl2U5WjrsAeDCaWkpkq+kmSKThRhLerlxTvR445woEggnIuzBS4Vzjp5ToZJ228LNk/b7AMHj+hK27R8YkaaOXiV4bXL5VotU1bdbI2XIH1umzUj0dHxXU2Gbmmp5eOkla5TolUtqTuDJSw690cPDw5M7jxUKWprckdG+Xhnp6Q6FXtut6fDE0LDcmRifltQFBRI0FcZLt2FtgezYUCI7NpbIutI8K4yAjKSowvE6Pzpos9HVOySN7b3mzWHfUxrpDgyPTFL0jDXe0HXkKpYVhHbhyJG8nHQLgSdqeLncnBOhQ7bkojCgodWdEyRvHKIfQmpyku3TW1qUKxvL8pXU58na4lwjnz5/MjqsWbKS5J7+IRtTxvdadYvcrGuT+uYeaevqt2bJ43oNpgUkT9dVkhI6dr3IKF4j6UXFYeFaT/I8PDy581hxCMKv44P9rulwR7uMKsEbHxyYMQQb5NLl5WRYLh1kjhw6yB0tTKh6pSed3/prali4bmzcyNylyia5fKtZqho6rG9a78CwvRZJ7mjqXJCTKWtLcmVLRZHs3VIm+7evlTUF2QnxmvF9A0OjlhvG+Vy82WR5YxAOiB0FAezTGsDNg1Qj8BB55sGhXetkz+YyKS3OkRSfTzkluLLsdNGv4w2JhtjfquuQm7fbpLapywozINiEdKf15oVInu1hm1+gJK/Ydr+w6lpaqNg18OvQY2XCkzuPFQMrlhgdNW/dUEebkjo92tpmbGkCbyAMaAUSbP+1Js8Ixs5Na2SXHutLC8yzRO86r0qmB8SOhPqGtm758GSlfHWhVq7XtlpFJfuYzgRCsiVK6HZtLpXnHt4mj+3fKKVFqtzZfi30ntkAYnervkO+vFgrn5+rNo9SjxIMQoqxAM/dgZ3r5KnDW+TYwY1SsSY/9IrHTAgqbSF2FF9cr22z3nnNSvxs2zNC4tN40QEtVOiRx7ZmhGszCoskOSPLQri+6MJjJSJpx4/+5J+F7nt4LFtA7PDMDbW1SF9drfTX1chgc5NMDA25vLoogCzQby41NcXCrzs3lcpjBzbJM0e3ytNHtsojezdY02E8dewy4YndzBif+MZCcp+euSW//PCSeckgUTPmW4UA2cKThuJv7xqQ0uJcKcrLlIy02XtLIZw05P1MSd3bn12T8zcapH9wZEZCEQ6a+za1u0a+WRlpRvq99zY24AXNy84wzzdecG6L87PNM3pH12aQ7zjd5WANTwwPWVrFGMbaGPs5rzLSh3fPXQp/PTxWDjy581jmoAp2wkKvfbdrpLemSoaU1I0PDBCLC70nOvDElRRmy76tZfLs0W3y0mM75KkjW/TxWsv5SktFaXiFEQ9InMcr82dvnZZbt9tlZHQs9Ep8gOS1dw9IalqKeU4pZpltaxm8duduNMrHpyrl/PUGIxOzAZ7Hnr5h80Qd3lnhwvM+/y5mQIYJsXMtN68rtFQHwvCkQEC0KWwhnDsd5Q5I3mhvb2g7wHHz3NFOZdXqpNC7PDyWPzy581i2INTK9mADjfXSV1sjg00NMtbTbX3spnMDUAlJqO/wznXy9EPbjNg9fmCTbN9QLEWqeNKVUBCm9cQufpC7duN2m/zs/Qt2Pw7n2H3A2QfBpncgRRYQg9mgvXtQTl+tlzN6UL05l3OCfKQkr5atG4qsUTVNrD1iB2sKQoxhRXFKWXGOI3nFubarC8+PjKmxNh0B1wtIk/E7w8PmrafpOB5A58VL8evWY0XAkzuP5QcV7mP0q+tol4GGeumvq7VqWLx131AFGwXIexRHYV6W7Nu21sgcoddH922w3DrIXmZ6mnmHvHKYPfDckVf12+NXYg7FTgUuQ05Wmjy0u0I2KQEg7242aO8ZkAs3m2xTfHL/5gJCvOxGsm1jsbXCSZvlOa10sMYgxoxlfnaGlBbmWKU0BC87I9WuPSSPoouogODdUYI3Omp7P3N8M6bv1b+jXx5ePL+OPZYzfKapxzKCs9hHertloKlR+mqqpK+22hG7ISV2KuyjgXw5cup2bV4jTz+0Rb777H75ztN75YlDm2X7hhKrhkTReF2QGEDp5krsAtjnzMXVpiDkRyXsnfDmenMAn0fFL0TPY24gVMt+zHju9m4plWcf2mpr87Wn9rj1ubFEsjLTooe/dfyd977fGpIjD3prbslgS5N59GeqjPfwWMrw5M5jWQBFOqFW+khPl4Vge6tuSn99nTUmdmHY0BvDAFlDcZSX5MrDe9fLG8/skz945bC88Mh2y7Mj98eH1Tw8FgdYi+S6Ht61Tl59co/84bcOy/ee2y/7t62VNYUuBzYqIHkjI7aVYP/tWumtvmWpGuwZ7QieJ+Eeyw+e3HksAzjhzc4SnVcuSc+tm2apk1g9lffEkreTk2XrhmL5/gsH5I9ff9g8Aod2rLPqy9km53t4eMwv0pXEOYNsg/ze8/vkv/7+Y/Ltp3bLpnWFVt0+lYfdVcwPymBTo/RUVZonb6S7U+5MTBgB9PBYTvAazGNJ45tv7pgF3nu7WrqvX1WLvMH61hGenUpgs/9r2Zo8+eErh+Qf/vCYkToqYNlGCuXg4eGx+EE6RVFuljy0q0J+8PwB+XtvPCLfeWaf5cdOWaWMF29szDz6fbdrpevaFcvLHZ+mJZKHx1KEJ3ceSxYQu+HODumtqTYrHM/dxMjwtMSuMD9Lnji8Wf7+dx+R7z27Tx7es17WleTaDggoi5UI8tYGR8as11tdS48dbA3V0tlnbUISlR/nMXuwLRrbdoVfIw6uUf/QyFTTfVkD+saazc5MtX6Txw5sku+/sF/+6NtH5JF9GyQ/N2PaXLzxgT4ZammSnsob0t9YK2P9PVMWXHl4LDX4HSo8lh4QziqEIXb99bdlsLlRRnt6pm1xkpy8WnZsXGP5Og/v3Wi3hSr8ydNZic1mIQv0iYMstHT0SSv7evYNyUSIyDEkKUlJVo3K3rl4QzgoLiEsNlvQ5PejU5XyJ//izdAzswfnuKWiWP7xj5+0djXZmWmhV+LDrYYO+eVHF+XdE9ekqq4j9Ozssa40X/7Wd47Ij186bO08ZgPSCUbHJmyj/eAadfYMWnPl4BoB8tC4RuSHVpTmGcnJW6H729L7cGh41Jpk07fwq0u1cu56ozS0dE9ZVUsPvFWpqZJRVCRZ5RWSWVouqXn5fn9ajyUPT+4WNSjnv6PWpB5U8hmpmcDVYsLfjuBx6C/0D+z9PMffzwvQqghFmoKGiBH/rqITfGirH2szoK+vVoLAi9yGv3+2YBzujI7IMGGVmmojdlTDfTNF5Zuz7NNk6/piefnxnbarxKbyAsnR51ZiKwTmDE12b9S2yYWbjXKlqkWqldw0t/cZ4bs7ZXRoGJ+0lCRZU5yjY1YoOzaUyNaKIimj55iSieyMtLiriD25mxp6afTajNmWWxBvtuS6VtMq16pbpa6528ZulHYeYct6lZK41NQkq/bevaVUju5eL3v0dl1JnjVRXmlgDKl8ZgzZq5ZdR768UGtzHOMlKnQiQebSCgolc+06I3nphYUqs5TgJUpGIKv1vO5QsW9yW+W03g9CwU7Oh14Lvd/kur3fnuCfxMPkuMpsk9vutzKnrFVMmCxfnaJzKSQT7DXkuseihid3DwqhxW53WcQsZoiZWeW8pre6sCfGRmVCyQyd1iF21pBTn+M+hGZihNdG+Qv3WaqgLTQ5Q6PeOYHFnpbm9m0MLXJd8pKckXl3L0c27U5KTZOk9HR9+2pJ1tsk28yb9yMgECTcqgBBYJjQuHef20gwRhMjQzLc2Sa91VUy2DT99mEQj8L8TOtb96OXD8m+LWVSmJe5YitgGT8aB9+83SF//tYpOXut3vq6QfbGxlSJRAHXgvHCw5mblWab4uMBZU9XtoqC5EEi6DEXS76iJ3eTwTXB40RT3oHhUWlo7ZHLVc16bRr0OrVKZzfeulEjdXjsTE5EgHGgqXamXgf6wD17dKt869guyyOdbWPnpQ7GaVRlIV7Pk5dvy+++vC6nL9XJ4PCYkb9oQDYlZ+dIVlm55G/dLqlK9pxxOt28Dslq/T67NiEZHhjjwfMQN6r5keUQtonhEZPThIedwaqvqWw3XYAs11siERSFWbfuecIqGjurzKa5s4TWL/eR1/ac/nbkcmpent2uVmKHHEeuA2S7vYcxsvdyG+oFCknkFlboseDw5O4BgYU+2t9rC3+0q8st/OFB2xcRq258UG/plQWJC4QEf2hEEMHBU/wTIoYBeF/o/fMJt3idZQds+epjI2gh2MLnOe4Hi57HSgQQogiK5KwsSc7MMsswLT9fklXQJKUrSYwSFqERKfvB0sqA3SasjcE0v5PN/V95Ypf83nP7rU8WDWVXYrgqAASiurFT/uV/+VTOKbFze7qiTGZGcA2pIobo4bUrK8mVw7srLNfpwPa1kp+TMWOI25O7yYBYN7R2y4kLtXL6Sr3cqmuzPXMHlegRSpyK0EWDW5KrLd2AbfL+7uuP2O4dK3fGu1AtXrzrta3y9mdX5d0vrkt376DO++hjinxKUiM1Uwle4Z69kpo7fYiWHD1rkjw0bI3Tx/WYGNRbfc7IGyRu1OUBByRQ/3EE0Ehm6DzsOkeR5faeeYROmoCYBXCPQwQt9LQ1fg69x2R8SJYnZWY6I16NfcYtWR9j5CenZ+itM+jNA+qx4PDkbp5wZ1ytLrXSxnShj/X16e2Atetg8RNWNE+cvsfeqxaaWWy46QmNsfjNoguEQQRY9KG79yHa++cLYQIhEvZKtNdNYLgwCMJilS78QHCYFakCw7YJQlggGPQw8qfvofEoLU6GKZzQMZzqt7LTxNG96+Xlx3bK4wc3y/o1+fqcfm6081khYFusyvp2+evfnZfffnpFiZ0qIH0uXrjLp9dPD/PmZacrmci0fLx9O8pl/9a1sm9rqW3TFm28PbkTGRoekyol2Zcqm+TSrSapru+QViV0Pb1qvCipw+OE8qcZ8mzA9mdrS/LkuUe2yz/5289KWtrKzCsNwDynMAgvHnPvvS+uyc3b7bZbSjQQdsQzlbWuQvK27ZTU7Gy5MzEm4yPI8hCBQ5arbJ9QuY7cvqPf4Qick+F35Tm3ts70WkZez+nkOFgkshwExO4uQo9NdqvMdqFalbEQOWS4yXV9XuU8nkFkOXI8OSvbiF8KJFAfJ6ms95gfeHI3R1jVlVluHLrYuR1WAqdWm3PDjxqpm4DA6XsthGpCAO+bG/q7FyB8MS/kwn4QCBMWkwSH3nekT4UF+0CqcEhKcaFeC1GHBGu08SEsmJuToYRukzz/8HY5smudlBXlrtjQVDggDCfOV8v//O9+Z6E/yN5cwWXjWhESJCy7RgleWVG2bfq+WUnXro0lsndr2aT8xpVI7iBpEDqKI65Wt1i+Y01Dp9S3dktLR7/09qvMGCcfC+/NDAo/RhAq37d9rfzT/+Zl2VxeOHWD3xUCrsGYjnGjzv3PzlXJRycrLee0Wwl1NDgPXoakFxSZoWkETo3xOyMqz1WWI/ctPYb0FxAmjyK9b8seobVt/4bu2yP+57HKcox5ojNJhIAx3u0+aTscGUamkzOyJIVIjo6785YGn+UxG/i9ZWMFeRHjbp/C0b5eGenstNYblNITKmRLm+B2qKVZhttb7T1jvT22eTWbWEP0zCMXELvIY6UiYhyctRsIUyXGSuiCDcCnKpwgXEi+0XNK6l5/eq8c2V1hXetXan5dJPBeXK9plZ/87tyUIanZgEvG51GM0avEDe8Iyes1jZ3SEKry7OgZtNe5FoQZa5u65L0vroc+YfZAb1BIwP6/FHzMdm/ZLj1vChdu1bVL1xTKPh7gzdyvxGrHhjUWYr2oJOLEhRo5fkZJhRLbL87XWJEERSwDQyOO2DHvQ3+fCDA27MtKkcXaEpeSsJIByUBG5OekS3F+to0NeYxcb0Lj90GvBwRutL/PeuKN9nRbBIb9qZFDgSwPl1t3j5WMiLG4J8uVDI8MmxxnHOlNOtLVKSM2tj13x5j7Y73dMqKvjzHWKv8t/UYxXXjc4354chcNNil1QqplBpkjD260t1eGO9uV0DVLf2O99NXVSn9ttW1KP9TabBN1TEmfJfiHwqw2wecR2DUI8clHyPO1IMf93/8ggFeifE2ePHpwk/ztV4/adkR52b4hcTjIrYNwvf/lDSNY8wE+Fa8FLTxo21F5u11OXamXm0qa8NiR89c3MKLn0WVexLmC+bYYyV1GWrJtkwWhph3Hb45fkbeOX5WvL9ZKQ0uPhQjxnM6neEhKSpKCnAzbxWFDacGK99wFQG7hTV1TmCU5ekt/R+YqBUVRw+A8F37ME8Jl6L0jmsydryPiu0PnNW8IjScEGbJM43kIHik37AuO42QYnap6F/1LYYmlOhnZQ7/q39t5h840uPW4Cx+WBUwyDqwM8iTU0iDEOqKWxFBHu4zoYcQNz5G+Nt+waTpprt57sNpqFEh25Vlyn0KPeTH0D0UDHPf+amoEi2NSKGEG8NYJkn8tssfY8a8jEO4+Y+nyvCZ/aujR5Js5AWt807oieeHRHfL7Lx2QjWUF9xa8x13gOTtxvkb+p3//rjQ090xZMThf4JpQzUm1bVZaqnmz5gou82IMy+KhzM1Nl+5u+gYu7DgHICyLkfM//7evSoUaPj414X7QM/BKdYv8xdtn5MsLNdKlJC/Rhk9IJIdwTy4xd8mDtLYj3OpzpDfwPIeD8zbeezw1nMzj0PO3/2P7Hfxe58m/9/6JCZfvaZ+h//P65HEJv69wb5t/6PhQwZxeVCwZhcXWriYlOzeU86eHjRXFHjEM2ArAiiV3RuZgICp876jiozp1kGT9jg4Z6+819zvl6XeTYhHSMJd5AAsTkma3ocXuHruFHQgBgNVZXJBlG96jRPLUOid5nYIB/o7wS152ujWb5XX+firwkuVLqVVPcnFUyzUCjNvQyLh09AxInwpHSAOLH29Na0efDOhzlsA8PCrNbX0yMqpWlv4d73FjHiKBoedMiNw97CtiBqR2y/oia/vw7Sd2yVZV9AhDj/vBWNe1dMtvj1+RP/3FV9I3MBzT9U4kmJ94U7m1nnpzBHN7MZI7zovfyJg/CLDuN5YXyCtP7JZ/9KMndE1MLwdWKpA5A8NjSvCa5W/ePSdfXai1HT/mct3uye9wOX7vseMeq0x+5+VmSK7OWbyqqakpUlqUbaQ82CkHWU6+JMScv5kKvMLfpOtncO4j1jYnNqOirWtAOnsHrb9iAPJAqaQfHR23z+rS17t6nKHCmPEdNkJ6PyB9PBc8j3yfL4QXb5CXTT5kWn6hpBUWSYaSvtTcPMvlgwi68V65+mDFkDsjD0w6PawIYkgndHenjHQqmQuFU3H5BrkU7IAQN9uYAkwylJpZZnbrSBwLnudystMkNzvDSBlkjdus9BQpyHU9xLL1oM0EVXAIaoRBoCQR5Lb4eazfBeHhfYSo+PyZwFv4m3gS7FnkkLkxKwwJFrQKFVo3WLgp1LtLH/O8hel6B6xf15A+16YCFGGCYOntH5ZeJRqE7RAmY/p3fA55SHxONHDOjMOmiiL5thK75x7eJtvXqyWnAtMjOhhJCDz5br/8+KJ88OVNaW7vtUKLRBRXPAgwDxYjuXtQcAo+2TbQf+ahbfLGM3uteffMUmDlAgOHCuXTV+utVQoNj5vaVB/MQFDY8YYdXBhzJ8dX2XMUdJESQhERPTXZPYRqcuQ4B7uHME8xQpHd/A3yF30AmQv31PE8esDJ9umvIn+DLkFk3iGqEqPqgrwhn8MJGXLbFfi4XFCT9XrwkaQwQPyQ3/QMbOvut3QLvJ6dvUO2Q0hbV7/JfQ7zDOr5uMd37LHp4hjPbyZA3ijOcBW5FGekW0VuWn6BHam03FKyd9e7x0AFA7zMsazJ3d0wK5NqeFhGB/qtncY4CZ3cDgzcjefPNdzKfFmtZllA3Fj0LDY2qU9PowFsui129jDN18VOPgzWGws/IyNFMvV+Rnqqvc7zEDiSfrlFYNvep/p5SxFBKwJrlqtkAq8RpIL8K5rqQjr69fURvSU/iwaut5WERGtVwOJkfNhq6aXHd1pVLM10EZwe0wOhyjWg1x1J/a5RbpsJY4Q318ZZ56E/WORgza1kcmdGo8qZVJUxaalJUpSfLTs3rbE2QEf3rDeDx3uyYwPGJQTv/a9u2NpoaiN1YeqFsH5tgRFn9qXOzUyXApXtJqdVDiGr01JTzChH9mdlpNlrGOGZae65pQqIMKQOWQExtOiNyg7kOwdEEIOd99FfEMOd9zC+3Oe1gbCm3BC+8QlIoCOAUxn0MQHetjrJiB5tVmi3kpKTawckz3qq0l4rRQmzebPNjRr64+WHZUfughAqzSUhdJA3O/r7rcqVY1zv02BytloMoWoETsmWeeQQsCxcXcw5utCzlKxRMZefnamkLk2y9YDMET6FsEHyIHUIgSK9b9bECgcEkI3Rf6vW868/uSzXqlusfUQ4GCYI8IayAnn6oa3y6pO7Zcu6QhtTj9iBECWsfrW6VS7fapYqJTd48ah0dVY5lvviJ3rMh5VG7hyhcx57Mw5VflBMVLEmXyrK8m3rsZ0b10iJyhqP+EB48uz1Bvndievy+bkq6eimF+RE1DWwc/MaefGxnfLMka0WTiUNBh0QS7RkuQP5QloO5A6Zzi3krpv7ffqc3ue2d1CJnhJCXuM9g0YOHekjmmDkT2/nkj4C0UvJynYkL1tvleC5+0r20mm5gmfUefVMoCwjLAtyZ2zfmL/z0OGJGx8asLLqwbYW22CeViSz8c5xuXGLs2gDQsdejghWLDLc7xzkT5ALR/sNE7jFuWrV5dv2TBnpK7uJ6Exg8bLIK+va5T+++bWFRtgWKxIIz/VK7J44vEV++MIB89jxnMfswLLBc9rS2S+Xq5rkUmWzVdS2KNGjfYnl3aglHpC8OVnV8wCW1Eogd4ExiReO+Y7hWFKQbS1OWAP7t5fbDiEFOZlmbHrMHhCQ8zca5Wfvn5eTl25bGJIQZSTw1L365B75o28fMQ8p18cjNiBzOpRIt6rcwcik7yahcPZTpucj6TtEdfqH9NBbl97jSF7g3ZuVKGIdpaRIGgUZxSUWtoX4uR57GWIN9SF6pquX/vVc8uQOLx2NJMdpGjw4oGSuVYaU0I2wpdfQ4JzCrYFQJTRK7oOROcKr+ZkmWKnM3LyuyJJeaX3gQ4OzAwSChq6//OiS/PU7Z23BR4JrUVKYLU8c2izfe26/tb/AY+pFauIwotehqb1HLt1qljNX6+VKVYu0dvSrZT1oXlS8q4uJ4CGDVwK5Q/7w2/D+s+UboVdanOzdWiprlOQt1XSNxQrSRs5cb5D/9OZJq+rGyxTNe0RY9o1n98nfe/1hi8I4UuAxW5DHB+mjXVBlfYfUN3eZsUmhXp8SPhf6Hbkri+YKSJ3l5hWVSGZpmXn22DrNmuYnLX2nwdIkdzB463lD2HVAhumP094mo12dtlPE3V0gWJBxKiMIA4KUfIksPHJqJdN5n1DgprUFlutFE0xeZ5sr8l0oXsCq9tZb/MASa1OLjTyXf/1Xn5oFF20TewpNjh3cLK89vcf2MnW7HoRe9EgIWC9W0EI/usFhae3qt2a7FyubpLqh0yoJ8eZREU23/weN5UruIAkURWFIIn8qVPZs31BsIdfdm0qtuCozI8WqI72Bk3ggkwgZvnPiurz58SW5qkYObVMiDRsKuPCY/tfff0yeOrzFQuUeswfjC2nDU0o+H3l9HBRq3IboNXXK7cZuaWzttn6UhH4he3j6cBDEa3iyztxOSMlWYZtaUCAZxWusxUpyVo4r0EhLX7KkfemQO71wd5SwWWNhJXB0uB7u6rDGh+TTGakb1QV4R5VOHBfZclfU6jJCl5lqVasQOXpD4Z1bU5ht4Q5eg1DgnXPVqt5aTgRIzj2v1vFP3zsnb3121XK9wi8fC4tk5If2VMirT+2VJw9tlrXFOUt2wS0VBFVykDlykQidVCnBu1XfLrVqTbPzwt08GbtmCy9GmALLhdwxnymKyM5Qg1LJW0lBlv62Itm+cY1FCNi7l/xciJ0vkph/QPDq23os/5fG3zdrWy08GA7mH3nUTyqx++/+8CmVS7me4M0DkC+QawozMCy5pdMCMomDFk8d+theV3lExS7XKi6ZpBfTCjHY95a8vNw8Sc0vVLJX7HLz2CothUKYpaN3Fj+50wvEvqx46dio2bYt6ely25X098mEPmfbk8R4IbF0sbhwo0MayI8rLcqVdWvIkcuzLazIZzFBGupDNNvO9x7TAwGKRfbOF9fkL98+Y+74cKDwyDFi9wHaOrC1GPuWegG68EBokhPT3NFnodvaxi7z5hFOR7D2DiBYRxa0CGOpkzvycPH+YzDipcOQJKfUIgRl+WZglqtMwnuHQenzdhcWJPRfutVkBO+Dr24qkeg2mRUO5NNavUb/4IePy/M6B4nq+Ms0v4C00V2BnUVI4cHQJPpD1KepvVdlVK89ByGkapfWWkQaYiV7ePPw2CVnZ0t6geobJXppefmSmpsrSamhatsl4NxZtOTOcunoNzc2anvOsVvEaDd7z7l95yiaiFWLYOkiHDls6xm1gstLcq2ijIW5NkTssLzyszP84lwg4LX79Mwt+cl75+STU7dCz94DJA7LmD52v/fcfss18nmNDlSTEUIlbIG3MzwnCFLMnHc9EZOEflmJmtIIyFEVlFTX0jOPnBgOWtfcVgu6D2+eXleaVyciL2Y6sE6XGrnj2hByRRaRw4sRWVGaLxuU0G3UA0MGgkchVpoSh0SB68b1CEJdk6/NvYKNoNeaTzFxwAP02bkq+cWHF+Xzs9XmOQrXOlxPHAWPHtgk//AHj8verWXmNPBYODC3aUZN2oiROyV5VP7TzqZRH9PqibxJiB49+Zj7sRK9oNrWdsbQIxWSl5cnyQHJ07XC+lmMWHTkjkGnNx0Nhd3mwl1WIDHc0W6bDk+1cXwkEE6ETiEIudlp1i4AK3h9KUUQhbK5olDKi/MsSdlXXC48WFu1zV3yZ785Jb9SxUo5fDgQmngs9m5fK3/0rcPy6P6NRrxXOvAc0J6BkCgVrYRMu/UgdBEgJTnZmqcyXmXFOS4/VNcB6yHRShsih6VMpTM98/Do3W7utnAJ54UnD2Ea6fFIBCB32zaUyD/6gyflmYe2zprc0QrmVx9fMnLHfriJBnPZyJOOP5X2GCzrVB6R/kFBFvl0VL3yPDm8iQIjTpNxxp8cJnqMtXVToTg4KYcMjyBkk3BwaWGOy+lLczvgeJIn5q3+8ORN+S9vnZbK2nady0oOQq8BWtMU5mXLf/P9x+Tlx3botc23uenxYIDhS6ShrrU7ZHh2W+i2Xo861TnITmuUb3IpxkiDrl2KLdIgecVFkp5fJKn5BZKcmSmrQ1W2iw2LjtyNKYGjhQntSxypa7P2Jlb1GiPbpus3XcLxxFEAsWFtoezcVCLb15eYsstKd1u8ILh8qOPBgAX4m8+uyl+9c0ZOXa67q2gCoGwg4d96crf8wUuHrC8g12wlA6IECa6q75Drta2WA9eoJKpFlQ+VrsEIWrqBjhd5W1bNreNIH7SgH1ciwWVzLQru2DWF2F1Xknez1hG9xvYeFbBd0tc/ZMI0kYA0Hd5dIf9AlerjBzbN2quLlf/WZ1fkN59ekUuVTaFnEwPOkblMigfGJN65reuLZMfGNbJFrw0pIKkpq508SqAsYi4w3lR+ouAg26RA4G1tbOuxhPSAb9M+Be8TKSmc3+ZyPT8lzWxhhoG10mUk8xvj5WcfXJC/+O1pIwaTPeVqUKUky8N718sff+eoPHV4q3cYPGCgTzAoCa1ThUuYFnmJ3KxWY66+pcdkJy23MHxigl5oa5VCRERJXkZJqeXkWUsV9rhdZBW2i4LcEYKdGB0xUgehG6LytafbWpnQ5sSKJGYARA3LHUKHl47wBv2HUGz0nsOTgTVq23ItE2sUATM2dkdGCV+HJDW/zPIKrZIu8b+TbyGsE/Q/CxgFYwqpIKSDQpsOLDz6R/3LP//EkpVxm4eDv1+jROTYwU3y41cO2wboCM/lcdVmB3pDYXmevFInJ5UM36prsyar7OLBtQhXNlwLQrKpauSQX0o3fdYDDZ8JY0L6aN1DikKi8xdRfIN6TlSwkQ8Dsbha3WL5lJw/Xj4s52gV0fGA30hY8wcvHpDvPrvPyNJsw5jk75w4X22h2eNnqu5rnj0bsAYZYwohyJ/bqAYmuXSQbUKuFGixRhn/RHInCB0GQJOOc70S7XpVYNdqWs1jEeQhMV9YwwH4frdtYZKtYQjn7i2l5i1/eM96+w14fRN5nksNzJELNxvlX/2XT6yCnKT9sCWnY7PKUn1+/O0jlh9Mmk+s4HOQpZAMDKTgc/nMQKbOh86C+NA02LYaC/sxhObJBV0uPRP5baSusCc6a7u5s8/WA2SvWg1lvHo8prfeVE2rJ0Gvy2oqbNPSrCFyOn3z1qj8yS807x6v6Zvcex8gHii5C0jdWG+vVb7SzmSkq9N2lHCb9k9P6pjwNBMuyM00j9yGskKzilFkLDSEKJYnQnQ+FseDABNvSC0RqhgJr7CpM8oUcsdrCGBCO7a3YX6mFOdlSZYqEvZBnC34XASPhQK7+6Vbb4MtaILvRPizG0dBboYVqbCH4lSFKPzdV5dvy7/5i+Ny4UbjJEUDqF7eq4Tutad2yxtP77PPnYkwLmdA7PC4fH6uWj46WWmWJwocwTyjIFJg9ND4tjCPMC2pCfnmNSLXCwJSpPMET3cihTkEHm8iWw4xT9s6+y38yQHRIx+GkDK5MJHXfyag7Ap1Xu/fUS6//+JBOai35K7Ndo2jWPGGfnz6lrwXqoyEnEZ6k2dC4KHDmCSfl2pXPGHk00GQINNuXUDoEjfWjB/GEkYSjWHx0rHFHL+praPPeodB6szjFDICpwO/A9m5e2uZbe/37NGt5glm3FcqIAiQ4zc/vSx//ttT0tR6//6ztM4iP/iHOiep6p8JkKr+4RHzoloDXyUXY7qmg0tkBky669LA9WD9znU3Hggd8gS94ZoGD1teIc8HwIvLXEUu4Om3/W2XkfzFIO4bYku0YYt6YIDi0cMYwovPOoLozbj+dUzIuyM0m5qbJ+nFJZJeWKT388NI3oPDAyN35NSND/a7nLr2VsupG+3rkzsjw9OSOuYYXgkICzkq5NHRRJi8FaxiaxnA1l4ZqctOGCFMevpHrEIRBY/Cp0robphA/2cRQrTYAo28HhTM5rV4L7ON5Ma7RlEGdApv0El/q67dlAZVSggIBIItAP1M9tXN0WuCYsND4ciDTnhVFOGCgbfTn+jf/vSE/PqjSxYiCgfvLVWi/vwj2+X7z++XQzvWhV5ZmWB8GXuI3W9UsUCGGftYlHQkzKOrxhDkm/mAdwFDiHUD4StQ5UGeHsI9kR49rrmFRnSu0juvub1PLeZ2qVVhWqdz2Cm24btepanAOeHxopn1zk2lpkgf3rNBFV/mnM+XOV5Z1yFfXaqVry7UWiUwBNrm+RTWPHM1OCfIT7GeF2SO/DlyezE4g/YlGKGJBONE6we2dyK0hCyg8SuFLa2dfUZEGNdo+zPHAogF84Sw99959ag1TKaidyWHaBlz8oT/X3/6vpy9Vm8EIBzsI75jY4n8nsqtH710aNo0AT6LtVDbpCScqvOWbiN3eF4DUsH8whuN4RWE85Gts02twECHSOKpuoXHStcf84dzCffcYZTn56RbKkfwnVQBL7fdTxhniC1jQkSBUC3h98rbbZZewrpCBszozVN9C8mj8IIQrZG8ohJJzck1796DysdbWHKnI2TeurFRI3OWU9fWJiPdXTI+NOi0wBRgokPWWDBYFCilHZvW2GKCvFD1ihBdrtvvoMwH1Mq7fKtFzl5vlBs6AZmQ0TwMjACKHOGM0j6wvVwO7VwnG8vUooiT8OKhq6xrkzPXGqyZLdVH9DYzT2HoPQFQdFh8eE33qdX/6L6NKpTcdwYED+FFRdP/7V++KVdvNd8XAsOrsW/7Wvn+Cwfk1WO7zeO0kkE4gf0u2b3j7c+vmqWdCJhXwNZStl0vvHgYAlsriq0FBx5YCAmbnCey2pZ5A9FDsbV09JuCqWnsMKMBgtKthgNVwIGSg0wwl5lbKJx1ep67dN0f3rVODirxp1URrycCEDmI9MWbTXZUNbSbZQ/ptHBZ6H2A82Ku0hcTI2b35lILvWJQBVEDzitR48ZYMCYYcpwnxK1Gx8sMLryhrT3mdbAcIn1PIsD5E6L9w1ePyLeP7bI5ksiCj6UGxCwG9r//+Rfyiw8umAEQDmQcZJ49Z//O60dl54aS0CuTgVGM7D5/o8m2OsObjcFMek00FYhRjjG2TYnWQ0q22Z0njUrNOCYX645wJLvOnFN5UqnGlZsrk4ldAIxAfguOk4Mqjx8/uNk8iMtVvwLWOcUz5Kbi9b6sY0XucHu38+RBgiN17SToBaG6Fi8ezZAz1pRKemGx29osebKTYyGwcOROB4UmxIRcB5obZLCpUQleh20ZNmP4FUGamqSCJkd2bV4jD+1ZL7uU1FEowX6u5NItdyCwmXS/OX5VLijJQhhEhgWiAaWI1ff0kS3yymM7JDNDLYnQa7EAK++9r27IVxdrlZT1RRUEkeA72VuXJPdXn9xloXG8iQAPzdeX6+Sf/m9vmXchcrEQSv7WE7ut9clhJaQrHXhnPj1Nu5jz8tnZqtCziQVEL00VCCFa8sOo4sRi37Vxjd0S1iWsj2xKpIDi2pMH095DQ9JuC4swxxCmWMyQPDy/eC5KlITilXdENM/ukxs0FfhsplakCbKK/6b5HaypgSFXAez6ZvVZ7iDVd3e+ubfe0lRY2x6vqnSpMN1UXmDpIYkmP/wO1hzrn/A2BPiGKhyqevH6sD4Jeccb2o4VhAGffGiL/N3vPGwGm29FJHKlplX++X/80PIzI+UXEaNDangQmn3j6b2hZ++Ba4nB/MXFGvlU/55rydyKBVS971ei9UP21VYjLB6jBs80ToHjKkMglLF+J8YdBO+PvnVEdqrOnWtYeCkAI6onVIiEV/Xs1TolxI2mf0d1Hc4UNcFTtzqNrc3yJaNsrWStLZe03HzbBcOEzwIhaceP/uSfhe7PG75RoUgD4sHWJumrviX9dbdtq7AZQ7B64PUhIfwxJQqvHNspLzyyXR7Zu8FCSXjqEKYLzYgXGkwmEnqvVLfKiQs11p2bCRgLTIGqMKE9BuEirK9YQiv8HY0fr6vw+frybVMq8Xwn7m4UEh5DEt8Dcscm9b8+fkUu6GIhZywcXEe8A68quYPYJTqUtRQxqESDcCHNVPHOzAfQT3imsFxblNQQksCbQOiGMAV5XFx7SDveKjx5iQDXm/XNrgzskYqxhtLavqHEPGEoskM7K+TwrgqbRzvVsIPYse5T8IpNM4+ZZ3gnCFVCgEhlYPwgy6QQQBqj5eixNkgmxyBhh5pNek7sIUq1/R49p71byuzYt22t9TQjckBqSI7+BtJFYlhaMQMVgieBvX5Ryh98fVOJfpV8eaHW5gNhJKphYzHyZgs6D+AtZT2ScuGrQCFZabY+CKVGkiRkH7KuIC/TilGYa+FzYmLiG2np6rOiqOs1bZZzOj1VuAfWoK1DNWrwXscThWnSeUQoGc8djoFYvxMvI73h0lQWsxZm225oKWEVxq6OMfnqOEZIsSBvFi825BzDc1qCp+/5ZmLcunyMhTZa+EavG9W0C9kAed7JHY2IR7o6pL+xTgbq6mSotUXGKZigXx1aJQoQ2liIlOKztQs7E7B336Gd5TbY9GNKVeGMi3i5EzvAAsMtjJWHoCc8Gw+YiFQL0wTYEs8jBE40cGVwQ7PdFKFgwkDxgHMmB4V9YPP0uwMrE0X7n39zyrwN4QuE60h+yf4d6+TZh7Za2D2a8l1pYIm0qjKg0S6W40xW41zAZ0PoIeWQoPau/hAx6pHb5iXqMcOC1wnb0Iw3FkNhOnDduc4QRxL58QxArMgrssIEFajk0DJ/M9KS7X28P9q6J1xJqOydL67LZ2erzdtMCOqyrplLlc12e72m1SxyBDQyJC/r/qblfDYKOjinIKkdT93dIyvdZBQeT4imO6fQB8wBrDnyaK/qeX6hJA7vEPmWtAvi/MlRRDnTkBVvXSye9LmAkOCR3UqwldwRamZMVjqSk1bZ+sBYIK0gHFwN5gLe5n3bnKczMGwB5AzPNCE/UgDw4sWK4LPJfTy6e31c14KQ/eWqZjXSu22dxAsMbboWYFgtd7CMkWuQZ3QSa51IATmIdOMo04PXkIPWgmqKNcjz3wS7a9H5Y3REP3u1efAWothi3sid5dYND1le3UD9bRlsbJCRTjb2VxY7jaWJMMV7c2RPhTxzdKs8rYoeqx3XMAKfSWaCNPT+lQCIErl1eFLItcOSigdMPRK+92wpMw8JwmYmRcR8pTEuivDm7XZLOo0XhMufPrLZhWV1MZDcfbW6Vf7m3bO2KMLB6yjNZx/eJg/tqjAS6uGEOdeBCmW8ODFVcc0RfD5KiHmGN69brz3hSTxFED1yJluV5LGhNx7aJJ1MpE0kguhhsKG0SOrGesZThPfIkafon8/64JxOX62Xj09VWsUr/erIm8G7Qj8rDpQxj1HI/B4UNOQIAc73hCvhAAH5ZH4i0IOD9/J75yqHGGvCz6wv1vfFykY5ealOiV2Neekv3nC/gx1BSH7nmoS3y5hPMCa0lXrh0e2ya3OprWPGYqWDOQGhZ+/Zq9XN5o0LB3MDD9emdYVKBvImkTDmKuSciAj5nPHKcj4LPfj4/g1xkTvWB98JyYuMmMwEPPX8nqNK8kk9WEmwa63jTLgdYstWpevL8i2fnYgUMoBCFYheVOhCxZFFASmePLqDwH9Wq2yzPDxbT/OzpuaF3PFj2E1isKVZ+murZbC5yXaboL3JVNAxsm3ByKl7/NBmK8GnzxlVl0xmPAUrVbDgUSFnAqJFqAmFGi8oQsHyIj8oVnKH0sFbRGiOVgvxAquVXL+A3LWrUDt9tU4+/LrSlFo4WEDkL9GzjPAx19vDWZCMDSE/q3brGzTvDkpiIWDzQMklRTS036FNACSvSudhXYvrnQZJQkmNTkzY3GInhoVaq8xL1gVk6P2vbsgX52tCla6DFjLDSxF+8ByhsLZuqnZ7Qx5pJacqaDEsGeuZ1sZcEYwpeT2QTHoWnr/ZKCfO11peJWkQ16paLDxuXjo9Z8h2xJKZN6DQWLvkXj6yb6M8d3SbhZ4hwVMR7JUGnAwNSu4skqKGdzhYs8gvwvo7N66xFIAArFvakNxQg5ntsuIldxg9yPDH92+Mi9zxXTfrnJGA/IgHkDuIzcN7N5iTYCUiIHmE5HE8kJ+MBy8weFjP5knX6xttnbIJA/yH9DTbaUv/S7Lty+A1alTOw7pKOLmD2I319cpAQ730VVdam5OJoSG3w0QUMDAsBEqtn3l4m3znmb3yzJFtllMQhAFWukBhwqCU6PQ/e3KX9cDJXXVTl+UOXa5sDr3DgetL+GdDeb784PkDtnC8h+AeyLFhC73C3CzzwkLygm1zeDzfnrwAeLlQDHjzIB1NbX1WqXmtttXmCH3rJhmhel3nI3Ui8CzSdxFv3VufXZX3v76p86pJydqgjc104O/xXuCRdI2V+8w7aiFYFd4Wbp6H+UduHMqcoiKrytV1wN7K735x3cKvNMmtru80As16XygPHeASsUZpg4Mi376xRJ46slW+9cQuy4EMIiYeDnhvyUWlWpnCm0hAwkpU1uLtom9ngAdJ7sjdtbk+C3JH9Ty57iuV3AWwdaLjgW4jZWR9aZ5tN0ePQ3LbrSm0rtuo6TO6mM3xpXyIXDw+bHVKqlXYzgfBSyi5M6HZ3Sl9tdXSW33LWpyww8R0Eor8AVoa/MMfHpOXH9tpyco0AEXQejgsF3LHTgVU3jaoQg0H55OrCoVmtM88tM1yHDzuAU+AJfjmZ5rRQy4qCdvf6DUk94qQwEKRgAA2P/Do6fd3KqHCi3Gztt1yw8gXg+ihfPJzMi2smkixRV4gBRK/+OiS7Spx6sptC7vGqyghq4wdLSHYf7JZlTUWNWvE9YRM3FlD7GhjQ6X7OyeuyZufXDZP4xklp1VK6MhvxEPHmlvoawm4Rnj36UTw6pN75DtP77VGvOS+WtQkwYpnOcD6f+q8u3JrsrHKHGK8IMlPqfxDDgbw5G55ANkAwccY5HrQZ5coI0sXo5MCyCmNbpUFhGnHiGbeGbccPJoeJ7rQImHk7s74mAy2NElvzS0ZqK+zlifT7QdLRRpb3Lz21B4rG4fg4ambqoptsQO2Tsjsak2LHD9bbd3uqWw7fq7KQkZUR1G519U/ZJ4B3LuxKo/lQu5ICP/w1E3zmISDRYJioZcSPfnwHnhMBnPFeVZcbzqqxanYZLzIAVmtr5HTyLZeC00O+D7yjvh+vFIUyxAaJe/tzPUG642ItxHvD8dcQIHHR6cqrTUM3i4KDMhHnUvFKOuLkC0kj5xCPDIZOs5Z6WmWdzZbkodwJy+RkOs7J67Lzz+8IB8ooTt7rUHXcoeFtNnGyoVcF/iiKSAHpcW5VjABoaP57rNHt8lBnVMbdE5Z4ZqPnEwJ5g1z5cS56tAz98Bapaji4M51No7IOLCSyB2eZ4w8cv0+Vx34iepEDnTi5+er5etLt+Wm6pZu04lsfceWmYklOPONgOQh10gfo5UU7dlQsFznKXPxFPAjvHgWptX7qbm5juAlaL3NndypUJpQYkfhRF8N+XWNMj7gTjYasGjydIKQOP+tY7usCpZNqvHWcIGXoiDBgqPo4IuLtVbhdqW6xfKASLjFZc+CCo7G1l7bxw6Lr3dw2CY0C3Y6QrtcyB39lWjnENk1n+tOFRIhILqhMx4e98MInl47DKBgSyL6CULuaD5MriJtK6jgpAovXiE+V+AJQ6BD5Cj8gLywAwkFDBQL0E5nQNcK1m48LRUgPljCkKL3v7opH+ocuqhzCcWK8ExE/iHkkPMmr5DPJTdpbNxVBVMtGyjnWMC4E3b93ZfX5b0vrlufwlNX6uR6dauNBzl/rIHIPT3nG8wfKoSRBZAOdvh44ZEdJoPx2JEfVlaUK/m6Xml9wW/2xG5qILMpividXuNIMHbIPdr5UMQW5N0tZ3LHTGb9Q9bYz/i0rlecGjTARyfaThyt3U4ntqs+1HOikTnGH7esQeQaUbulNO8CuUx0haJArjdNp5EbyEF0Nzr8PujaD1qmUFHLO1Kzs9VQ17mSgN8/J3JH1ce4VcS2Wih2qKXJEbsprGjY7eaKIrMOv/3kLnl473rrho+VvFSFCBY/5OerS3V63LYcJNyyKFcUD7k8LCaqQ0m8xZJhU2/IHb24qJLDk8X+sIwBEySS6C0HcsfCZZGj6PBUhAPvQPmaXHn1qd2WxxCPIl2JMGGiY4RXiXweKthYR5vWFVk/JnZJoHQfAcP7gmTfheIRfA9KjHnP+ujqGbT5ToFAqyoX5i/z3PazneZaQ+r4e7Ypw2iCLFEwQZ4TIU7m1HQ/iXlUkJ/pxkUJMKHHICcmGvg+Qr70jkP50LyYdcx6hJDGonRY89VNnfLmJ5fkdyeuG6mD2EJ0WcPTJV3PF/jdxbqutm0oliO7Kqy9FITuiUNbLBVic7krWmMPUeYUynypyuOFBEPU1t0vx89U3+ehYV5jwLA/L90fUPRgOZI71iE6D6863RDYUQdix1aJtO+C0NF6aCBcJ3LofZ7Du41BxfpALtACKdE9IxcCrBmuCalmNF1H/lJli7yx363jfp+HXh/jCKOKlu4iq1JSJCkt3VqlzHUNzp7c6Uk5YtciPbduylBToz4ehomE3nAPnCSeObYLoxHxD17Yb7lD5CRwEZcyGlUJfHmxVk5drTcFZsJ7CsnNhWUhcJHxRDChcUuzjZDl3GDN60RAwdBkAeWEYlkO5K5Pie1pVXSnlAQzBuFAYOFxev3pfWq5Te4L5TE9WFuMF0qZ8YYcb1EDinAt7SuwJHkeD1SSrjXygZhfCwXmEQqNcHGwvQ/VtsytrXqehJmjea35O/bapC8d3rpff3JZzl2rNyWFoIy+wu4BoYoh+agqQVoqUenHGqDAg98PyZvK48d64ztadG3jVWCDcc6RfXcheFP1iWTds/fo2yeuyV++fcaKNZj3/Paolvs8wpGLVCP6NGF+ZN8Gee6R7fLKY7us+pUcITwMkFbmzkrpGZpo0Pfx1NU6M9LDFTfzBe8na3FjWYGtQ8Z3uZA7fgeGD9sIsp5pjszOQ59fqFaDpt689eiMoRGXdjCTTmRLQtYZa5MtK63ZPnoq9L6lAs6Xa8/OHkRWyFnNzkpzzp2hEfud0WSBEbyhobsELzk93e1oMQfMmtwF+8MSih24XTtl4QQ/lE3+D6nF+P3nD8hrT+6xEBwMfTkIE/KKvrrodnAYmyIUHQ0MFRcZMkieEorgUlWzVdB1dA/a2KBIUNy8j4XEdyxFcsctwgVyx56dkUqV38m+nH/4ymHvtZsDmDOsN4Q+eYsIl/1by6xIhYaqKBhGfkBJ1t21p09MvhrzB5tTOt8HVcjRBoQdKSAY0fLwIF/sZfyzjy7IL/XAcMKLd5/lGwGTN0pYyOdlT9Qfv3xIHt6zwXaSYD/anUp4IT5U+2IwhW8pFgnmKWuT3QjoL1mQlyFlhbl6vtHTKAZVUdNj73//6efSo8o+sv/ZfINrClGD2OKp28tWVS8dlB/pGLz8+E5b/3hFUDwY1fyGmeSAx9RgLtI/7rNz1ZavGT433fqiqMLttc0OJvQ0g+QgS0njWWrkjh038Eaif/DE8Rve++q6FQiRV256Quc9n29e9RnWaiRY84wPTh8iEfy+u3JqiYHzRpdBUjeVF5nsHdZxofiMqtqoY6PPTQwNymhfnySlpUlaXsGciixmRe6+GR+XIYhdbZX019Xa46lQkJclL6lg+cELB22v0QK9cMvJM0Oy6CV2cOjpDz0zOzCpyVdgX0uSus/faDD3NlWIKBmmOAtzKZI7vB+fnnXbJhHuipzYCCy6f7/x7P17MXrMHggYBDMFPFx/9gZ9VoneC4/uMA/fuF4HPMiROZDzDa4+xAeSQZsNGoJGgjn34albcvz0LWlpn7ybyVSAtNEr8//8B0/Kf/XdRy0EScSAsCRzHmXBlkJ85/qyAsuxY25OR8KYqigqPHk0ksbbyPlinEYCAvjxyUo5e6XB/m4hwXrO0PX26MFN8gevHJG//71Hra0Q19wROpes7qteE4eA3LFHbCS5A8ybzhAJulnv0nVSUlbbvCNUT+RmKZE79patU93EDjA//+iSfHy6Ug2fLlsXo2Ou/cdc5z0ygf5x29aXhLzkS3u+IoORv/SJNMKqxhc5h+TpRx0rfZKdLIiKKrOTjKLi0AvxI25yh/uQ3nW9VTdloLFBJqbYCgtBUqgK5XvP7ZdXn9xtQgb2ivt/OaFVFw25BriUp8rliQcICIvR6wJ0e332m6JjX1lCPuQBRXq+YsGDIHf8Ds4ZNz0eO1z1tHuIREDuXn/Gk7tEg+uMgOGa06gXjx65buTm0XaIYgyuc2R7mvkG4WGqCB/aXWFzMhLMO7YOu1rVHHXORMO60jz5/osH5DtP7bVCExQFyiGY6sE44CkkVYBxwIOIYp5J4fG35DeSJ0zkIbwxbQAMPRoQkxO4kMBTd2BHufzJHz8n3zq229b5OrxFmemmTIKQ6/KSvA8eyOqOnkEzwptaeycZIDrcNuZswYhpTqNv5jRbOZKXhieaZPt4dcaDIHfoArxNEFIqv9EHNP/Gk05RUCSpnQuINhD+pbCOucsYLnXYPMCLp4bmmqJsk3vkHg+EKuXvg47nnbFR1x/4mzuSUVDkJlSciMuFBrEb7euVvts1MtjcbN2W7cqHgXOgIotta779xG555fGdtgm4JU8vM2IHyGnZvr5YSvWiJTKkyIJhEVKAQU7ejdpWl6u0gPlScwVudgQZQoH2GPFaqR6Jg3mGyW3Ra9LRO6BzqlMFdYOlFbSp4F9IICMgWeZN0ttoYP67Rs2xKw5y2wgXsTUUmPpv3fMT+jqe8li8gsA8E6H70YDnPREGXrxAwVKwQc4TRKO6sdOMMcv/1fNJpPL1mAzmKHI66swIPcV7SAGAWN2sa7MiA8gRRQVLAcwf+lkix8n7JvTK3ErktCJFAO/g5nWFttUo6QXLgdiFA8N6S3mRvPDIdnn92X0WQSC6Fe1nkubGnvx91VUy2N7q0t7iRMyeO4jd2NCg7RPbV1tjm//rrA296sBJIrDJn6J54/f0B5Dr4nq6hd60zEDbCao9mecoTsgXk9793MT96EA5zxYPwnMHOG+AAITcoYAj4Tx3edY4dbnOkwcByAhkY3h0wpQJHiXaiVBxSh/GT07dkvPXG40YLCTw6mPskeRPSw5SNSJBuBhliEFD65BYwG8lR44wEt5twjoctgx1YqFk8UBQtUsVK30oSX9AcU1HgFAyeO2oun18/yYpK86JGpbtUEPspipulPc0H5dwIBdo4UL7iVpVvqQ+UMUJ0UUmoTjNg8ni4n+/yBIC5gweONo7sYbC5xBDzJhTVBGExAOwLs1QmMUceRCeu/mAjY/OS/Ok69oi93bv1jJ5dK/Lj01ja65lOE1xAJEqQiUtea+EZwnXQ5YjQdcRtizjNjVX9XaqEsEpjOFoiI3c6SykFwstT7pvXLN9YiF7kYBtr19bYJv9UzxBk1XHwENvWIbgYtGKotBaCTgWDtmjqSyBkAWU8dPiQZG7AJDekdHovddcK5Q8eeXYLj23kBLymBWcEfCNeQVoF0JOGaQOMkM/rl99fMka6Vbebjflj7dpIYFAp0IWOfHio9utNx+PI4ESA5A8UhGYP/qzJinQSFiPrd4h27+YTfbJtSN8at5B/TsILlWKH5+qlN8cvyJfXqix9kRTfSazkPWNdc0WQ08c2mxFGVQMRvPSo8zbOgfkem2rznWd59Oc63yA30+hSOXtNiOtFGh16dhhVJHnFeQWUu1r4AfqOfvVNjswb8i5+0SNhPsLKqYmd3PBUiZ3zDPGhLHAOMrNcr06qShlXR07sMk4A/KA8VuuMC+lGrQYixhmVFxPJYshdmPd3ZKcpWQwK8sIXqyDExO5Yz+04c4O1/KkpSkqseOE2UuP/kk0JybHbjmGYaOByYpLmfYC9I0inylwt1rIR/8nBLTAsn4SHjS5YxKTlM4RCfJSSgqy5NjhzZYPZcrYIy4wtcwzNcIuEa7lyOlr9fLzjy7KX7x9Rt79/JptRg/he1DzENIO2SK5+Ck1AKmcp8AhGplH+DNn6deHVoCs0RcLgjIdwQOEKavqO+Radau0K9kh1xCF9qGSur9656yS25u2s4WtzWkAgSNPhhZOLzy2Q37vuf3mYQ6IZySoJMSo6x5QUt3Wa57EBzTURobpL8g+zp+drZZLt5qkTYke4UOMKcC4o2yR3R7xg3lIU+oPT968rxUKU9qTu3tgPJDrjAf7ZFNBvH+bq+T/tvKFo7tdLms8v2mpw3J/leQxb4hQIJujCQzW7NigyjEleKnZObKKJscxYEZyZ8yxv1f6G+qkr6pyCmK32ogdApBdBiB2rtVJ6A0rBAhLFElRXqZsqyiWPZtLrc9RvhI/NCpClHJ4ZMBMCirReNDkzsKDSjyikjsVfFQgHtEFXoRXZAUt8LmAGYS1N2Q9otwm+LQkYM/Vv/ndOdsd4UZNm3mzHkQuWADmGu1D8vXa7lSi9OJjO+UPXj5kjXOjecAC4HnDS7ZnS6lsKCuwOUnfLLxisRQVEYJlpxjC0O+euGbbHTWoEGUeTrf8WKeWXlJeKM9D6tiWS8moa7A9fSTCLHL9O5LBKYpy73W9KoMUhYUG343iuKXK/fTlOiv6wKNLONpmUegHObkwg2DwuAuMKfLQfvr+eTU8JutFhnGlkzvmEuub308xJfnph3auU0K31XZHoUXRpvICK/xZik2LE4HsjFSTg4SmaXVGy7Nvosk2412rJCk9XVIgeDEM1vTkToURnZMHGhttB4qxvvsTr5m0ecrE2ReUXkpWFavW7kq8UPxkFrRN6NRks+QhK0xqtvahIpQePrYo9X0oEeT9Qsj8xUzumEMs8O2bSmR9aYHLk/KYEowlihlvQZ2SFbZ1e/eLG0Zg8NKwkTkkhjws6x0VAxFKNLimEDpy60oKs2Xf9nJL13hJid0TKivWluRNS+yAKQcleNa3TecvoXtkCwuNMCNKajojid/NfKPqnFw8yJ5506b4E9ZuOvk/er6Hd1dYmgANfykIK8xxodiZ1g2GCeGmCp3HuzevsWpkFJv722DNz+x9TDQwAoKxIHTb0NptuYGEqfEyDipptvcpYeE3eo/ezBgaGbc8x98ev3rf9bQx1PFbaeSOGcNch6yg69B9rB/O99iBjRbZop0Qa4wecPwexmmmdbVcgS5GvhEhwEBo7ui1eRUps01mTIzbzhUp2WpkKsmbCdOSOz5wuKPDetkNtbQoo5w8KbgoCNs9Suhod3JYWTm5Z14oONjiVqLCGKHgSlRBMalxP5cWZFvnaiwWFn4wZsiI+RD7i5ncoUhwUaO8EQRUFXlMBnMCBU0CLknc7NXIdnfHz9wyz5TtXaqKhmR6KvOi5W/MNyAvXEfmO+HU7RtL5Oie9bbd4LFDm22XCK4vr3HNY0XwuUX5mdazDUs3TYmj29rvjhGSuZAlTgUlU4DHfcMa257rxUd3WMEHKRauICz282VNk4dL6Mn6W5XmW189CjEw+NgpJPCScdYLSfT4KsLWtOEg14eeW4SEaOd0Ww8aqEOcad+BXOK3xHOtVhLoZHD2er2uwarQM/fAtWX8yB8zcqfXOxGYC7nDyzgf5I7pwbnY2ldDhvW9bUOJHNhWbrl0EDoMnY26lkjDYEwCY8fDkWEaryMz2rr6LcfYNWwPvSEEyB1ISkuVtPz8GYsrpiV3NNPrU2I30Fgv44OTK+q4LlykLeuK5MXHdpirFfLCiS51wJpZADQLZpAhJdznQKE461/Fn44BEzSWKcp7WOQoJoQ9Xrzigiyb7MWqtNyEDwSps2QS6XApzs+Wg9vLrc9OTOROj/EJlwtA+T5eorlgOnLHCDJv8nLSQ13QV6bndypwLfDAsegv32q2fVY/O1tlXrpTl29bfhlhN5T2QgMFhgGD9Zmfwz6uhbJ361rrBwehe/LwZnnqyFbZsaHYvG/R+sPFCtYH4XtIEwqO74TY8bsxRBzJC705RrAWspRwkUtHrzi8izR5xlAt0N9DA9LZgOlrc1qVHZ+9paLYEqgheBh6fHZmxj2lT7oGWECeZzKM9ch2WGbEmRfP7XnNLibIInKHKYrzBO9+0E7oczWsLt1sCj1zD+gFvM7IsvTUFDXeE6MXSXeCPD0WJ7lrV9lR3dBpfVNn0wQ/EkwH1j7rmTlCygJdMnZsLDY9c0jX0sGd5bJr4xpbr7wnHkJHCoMV4ancQwebHg7p4KArBXqaz1sOziSuJWNIzi6edLzrUUk44VmdS2kFBbY92XTjOTW5U0E50tsjfdWVts0Yj8PBhVqrF+2xAxvl1af2mACLZ7ItRiBX8XiwHySWDjlMdc1q1TZ324A3qdVDxR0hHiYdAs+WbGiAY524/B1WDgqKIgwqBhH4kBsse/p0sXDIK0LYx0YfpwbnVaqff0StKAglgiaWT+S7W/Q337zdZlbqbMHvJT9lZEQXph73w2k08pSoSMSd772/98CcZN6duVYvv/rokrz3xQ25pCSP/YgfBKFjPhF+ZL0zZxHe7F8KOXryyBZ5+fFd8tzD281iZ45DkGJdG7EAMokHnPw9KtQhfRhdhBYnxmMLeXI+zDc8DbReOHZYz/uxnUpEN8t6Nb5Yf4k6ZfsuHSvmNcbwPiW/5OKWFufacyi+IBWBcw9OP4afkTDwXSgT+lFC8iB7hIe4vngUICqe4N0D43Wpslk+OHnTUiAigfyC1JGLnp3lwvJ6Zd2Lc7iuOAhwDpCvFo++JRzPzkd47vDszxb8LtYbJJNQImt/s87p/Rh0apg/um+jHN1dYeFYwq787ljB3IewjSuBGRweNy8WuaHoX/LR0MEcEFRr86OEj+twL7S7tOcnv4HcYnQtRhZGV6QMMKeS/mfbk+UXyCq9FlMhOrnTD6CQoluJ3SC7UAzd77XJUaG4f1u55dA8vHt9XBdxsWJCFUSbKtELlY3yxcUaOX6uWj5Ty+wEmyFfrVPl2mAbJNMkFPLXNzBqJI8J6Sb9vfBqPEhJVmWlrH2rWvc0NmTBIFCxitzEdZ4vjtkAxYFVxcLL0wUZi5A2Ba6/h87qhGUJ4UTmAcQKPCOQVhZtb99wVNnGKaXoRD2kBJTK2UDZeYgJMojdzz+4IJ+frdZ5N/xAwq6A+U3YnJw5CMpDhF2VyH37yd3y3Wf3qtW+zrYPylDFNp+yljmMgiF/hwOSBjlhvpJbNx04L/pTlhXlWKj4jWf3WRiWvFjXzmgeT1zBuqLwYsu6QkuVoL8XypCKe7yRyUlug3nXKHYOTGCW4DvxBCPjBlWBElIm1A6ZmOehWTJgH3Fa6bx34nqoMGUyMA7INz2kRGeHynSK7LjueKQs8jNLhpfPZ6rRtHdLqX1erOB72U2jWckSXqHZgO4XzIO1xTnWbHjPljJ5Uo3xpw5vNk83KQzkm85m/aBb2FQfQgMJZSu/k1fqbMtK9u49fq7KdDBtjsgxvqk6CWdL/+Co6cgg8rXU5yfzhgJMWutU1XVE8d7pvAnth51RXCKrU6aWV1HJHVtejA8NSNf1qzLW03Nfrh2LnIuLlU5yNJsjL3UwiE0dvfLRqVvW4JWthMg/oXqFxYiwDdp5WKuJ9j7bUByLolUtjJ7+EXuvNSPUsWYhoIBimei8hfdxYdNS1MLXi1tRqspTxxgrjXBWji4ayB7vYSGwWGOR+1h6dPxGCe/ZsiZUxRz7CuD30k6iu3/IlGYsFX+EmiAAuJlJKGebKxQwDYxrlRhH+wzOCeJA2ArrBY+GhxocOudu1bfLp2duyYlzNaFWJrNTDLMF1xNyzrXZTthlV4U8e3SrvHxslzx9ZKvs21amBkleyIvmPDxxTLFZg+9wZDPVvp+5hlHA2uOcGaU7KstYL7yX8GKuzisiDnv1nJ99eJu89tRe663FGnPkZQFOXGHrXc+RtiQoRPJNIQF4EVGS5Mji+eD3cLkh8wt52fkqDNdelWulet3JE2ZNB2HklQ5yFD9VPUHlcTSjl3VAdfjTRzbLMw9tsUJDxhBdSX4VhASgV2IxmllTtM2gcpwiH+ZrPI4E3ot+wivEQVgzFvA7SC1wxlyhhVwf2bdRaOZ9WEkmXm5kNfPUIkJxrB9+N+dEugmFYejcM9cb5IuLtTauFICQIoDBxvk6HazkWO9DqCFAePLw8LmiBLdeljrw5FNpz97DRA+jQoVBUkampGRlK8GLnqMeldyx1cVAS4P019RY8+JI4FV6ZP9G62lHWDEeC2KxAqvmy0u35RNVorhEA1IXqUgDywvSg3sb4UfIjGaWTLT2nn4jf+QIMCGZ6/GENFiECPwMVVgId1pBkGNBjp4TDhmqaFMd0dPFFCiv4Cz5Fq4H1UqQK0jVQ7vX26Ik7y5e4cx5s2g5grHgJtzytN+o35ml54XQwQtBqPnA9rW2d+gB/W5yDRtae62SM5ow4xmeJ1zNptH8Zq9IHLm+XtNmFuzVqhYje/ONYM6ihAh/blahDhnC8wuZI5eOa8tWOnicIX7M2YUiRpHA4IF4sFYgbni+iwqyjCCRB7yW9aPEb7OuBYjc0b0b5Ek1Sh8/sMkMH8JLzN8HcfqMma1Xnfech/0GXee0U8GTzzrAo3dPca1yHr2w9TdfYD1yFOsc4FzwNsYTClzO+FIJyCdK7tgRJBoomrEc4r3rLWRJE2zyq5mb65QoISfxgiGnXU6jI3rh6ob5SEoD5J85gZFMkc/uTaVGDuOZrzSuXp3kHA4G/SLCe+izSHGMA4BedKztjeVUfZeaZ45edHiZN60ttHmJt5z3IqdjXfvMJ3RrVx+hx17zwJFiwj7SFyubrHqbPG+8izgTmOuRzgAeMVY4ZNiftUf1rXyzSgrzMoyILnU+wvnjlCG/kMK5+1KZdDzQxVTOppN7l06O+v3jv+q1n7TcJyXoa9d24bT016pVMjrZ5cyF3Ll5jfzo5UOWeIzgXA5gD9T/9JuTNpjRyMdMYFzYqBzyhTAuK8rVBZkj5cV55vFggVJ1F3jf4gFzG0I5MKREUq0cQqTkwrE4KJ3GsuGceR9CAgFM2BxPxmZdiCgwQlCRAoFFg0eAhQKYVG6h2kMDr+EtwlVe3dghbN1Erhc7B7iwkSOAqalUCLrfzXchGAivkgCP4sIy+8u3z8if/fqk5UdFA5+zTY2Fv/vGI/L8w9vt71c6yJVBifzkvfNWRDGfYF46kuEqt/DYYJlDNMipxTtGtSqtjxJJvJm7eIkQ+uTRRBpVZvDo3MVDR3sVR8SiKxM+Cy8zuUUoCAywcZ1vvD0FpQWB0jmJco227Rngq5nbrDfCkuSK8jhYJ4BzgGxxYISx9hM6JnoSEHvWOd4LDE7y4EiKJweJ8BXrEg/G/aGbxAEvAr3+/va3H7KKR67BSgfy9t/97At58+NL0qhyMRqYr+tK8+SPXz8qLz6ielLJGWBeo7RJtcApQNSHuYpzALnONQ/0D/Oe+YWBskFlOQYzaxEDIBL8DaFi5i5zPZDl4WCN4e2q1XlUpfOISmkjUTrHw+c2658wMukV5XpYpwclpsj3eMk9n2rnpt8NEbMq7TBnCBEwdBrzmbkcq0cxHDge0HGvPO4q3CHRSx3Im1NX6uXf/uRz+fJ8zX0El1y79KJiKdx3UDJL17qdKyJwH7kjBDvc2S4Nn34kEwMDlnsXAIGKhUw448ffOmKJk8vFkiO+/8//7GMZVGUweRhnB4Ri4HVjgVi4sbTAChqc583tSRuPaz0AF56iDhYJLmm2UGIBcd58HMnueFOwEpnoKOzw7+HvETAoPhaUNVvV5xHcXF/eH0lC3XeOqDAKV5rkjjhSlpLickwgdShPPit8h5Kapq4ZyR0o1r//ztN75I1nXLjsrqW5QoH1SkXez94/Lx+dvGnEJ5FAAeAdwFLEEkcJ0bKAqldyrSB1PIdFnMi1znyFlJBnY1uM6VwmeZo9OpmTgYIzRaXnl5/tvHLML5QMzT9RfLF6DGIBihflwtwOCqoCkkieY/i8ZZ1QHYx3cJOOF+vckbwUS61I5HkBxoQwDe1KGpTckfcL0aMtTqcqx6CiMBi3RICfgDfxjef2yQ9fOGhRAGTDSsfZ6w3yv/31Z/L5ueqoe2WDqchdOFDYeGUgeq0634gesSYCRR4YzYE3l3lvBrq96v6eXVuGOFRO0CaJ6x94snEmmAESNh953XLb7DspTBi2x+HzhrVFahBe+8LcLP1O/fvQa7GCz4Ns0nAcUgd5gwg36BqH2Nn+xzgJTHc5PTIXcK5syP/UoS1GhJcDWNtsk/iv/+JTmxfhBi+Lk353+Tv2SM7GTZKac//8uo/cTYwOy0DjbWn85JPQM/eANbBGhdgfvXpEvnVstwm15YIzVxvkX/3lpzbpJw3iHMGiStMFSlhyoypLCJdrhZJnHi5IIMSLhZxohRAJfhZhPRQXigEvXGfvgE4cRxgghLRl4TyxhMjxcOdlL88JsZI7hBG9kX744iF5+dhOyVzhygQBTlXebz65rAv9spGfSCsuXnA9ua6Ejph/tMcJChOsZYdee0JHhJUS6Y3itDl3vMV46OrbeqRG5yEtJfBGQabwXgypMmC7PkDoyMidzkXWDvmY29cXy67NpXaeGCGzMZAiwdeh5PCSkTqAAq+qbzdFRO4txlS4Ijdyp0oXY40wFeNGThJjSAqFhdpsXSc23MuoTCgBrWvttt03aIPDQQ8zcjMxThlflOtc5wnjjif+v/reo/K8GvR4cqjkX8nAw/Wv/+pTefPjy7aF3VSIhdzNBVxfPN3BPIAs9egc5Xn0NOuFyBHrBbLD+cz3dqBMN3Qn8w6yiWcSg826TrQosdP1DonFmEt0QRhRhZce2yFPHtyU8LF+UID4E7L+v/5/f2lEnAjEXSC/U1Ila8NGyd++SzLXlIZeuIf7cu7G+nqtafFwW1vomXugdQDJvt95eq8JMeLtywUQDtztdG5PdF4TAgHrBVJFIi5KDZc4igMyyUWj0gfPSCIUVTSw4AaHxuTirSbboopeaeduNFolLOfEgZBAyRIqwAuAgsJSxxKcK/Hs7h9WktIkF/Q7w0MAkcCKY/9QSAfkl1YaKxmMu+Vs6jVAmHNt8KLO1gBhfqWnpdo6pg8VrWdoMkyfSnaZoWIUL5TzvCaS2Lk1UK/r69yNBuvR98npSvnkTJXlEzI3sFTZKo11CEnhwIvWP8CuCgOqTLuNcEEG8fTRJw4DJBH5fmxrBkH6+FSl/PrTS/LVxVpbD51WVOW8C+GgByTPd+p58D7+FqJKgRW/g3XNPOYcOb9EgV9JTzy8hBBwWtBsWV9k15OtnPB8p+u1G9fzZexmC9Y8YfnHDmyySmKM0fnwSC4l0GuSkOZfvHVGjeMOi1xMBcYPTzhrjPY3XK9EwQz0jj45rQbICZXlbKvH+mHuuWbUXRbCZ61hmODtJ53B8uP0vOYD6BfICDqOZurk0J26Wm9V/hduNtn6wHvHe8K9hHMF8xHnCQbfkd0V5phYLtFEZDVy85bONfgCIftJ0NcIx9ISJTWHLckmX9v7yN1IV6f01lTLeH9/6BkHvogtovbvWCsvPLzd3KDLKWSGtUMC+dj4uIUpWcjTkZB4wUXCWoFE4orGqsGSIe8AVt7WTcWtC/0Y0UugIMXrgKeOhXaCpptVLUosXb8jvo/Fz2HhWiV1vJ/z43wQYFh9eNTmIhhiJXeAcUKB0baFHkoWFljBSgVygFcVBcHYWShdF3o8RgjhNZKj929fa42FKYo4pmTukb1UUZdaNRyhV1qEsBYSMd4m8PU8UTgXVcBDmAhlcbC7xg1VAsx/5tnIqMu1Q/CzVsIPPoffzev8bt6Ph6+rb9iqypkntBOayyljaLE23vvyulyrar3rqXPnE3pTBGxN6+uEcvFUQOjITa2q77TwKYYSSthVJ064VAydy3MFPxN5DOnHc0keIWkf7GcNySPXtsLyI7MlK0tlGutbvz9WpcpcYXcRCuZeeGTH3X6C5DatVDAHO3qG5M1PLtmOMNbSaaqJoUhKWmVrlm33KEYhj22u4Pox51lLFP+xKw0VpRg6eJ2ZhybL9daKDVS+Q6iQ5RiGwGS5HolY3/x81jddJm7epjCiyUgdXm+arROtYZ2SN4yesbUU+ttEADnF2t+xqcSaOu/SOUurmOWjK/R36CAj82j/Qr5iJFYbucuX1NxcWZ002dl2P7nr7JDe6ltWMRsO8rjIL3lCFcORXRVG9JYTCFGRa4Bgw2uBIqWSCYE2F09JJPgYyAsXbGAIIjXi+g8pwSMkxP2e/iG7kCwcleHW/202Hj3OG+VyWZUVVtRZJXck0qKEIK/RfhNCDMGA65xdKXD1k4jLeoFkpKoymc3isf6BNxutm/tM5M4p8ztGcMtK3G4Es/n9ywXMQZQ4OY0IM5QGh6u0SzYlz5ziciLw2B8VZULIkF50KJf9O8rlURWANB2njQEVcHdzxfQzgzBiIuQixIhwDAKf3pAnr9x2W6RdrjOhj4ehTS18a3EQIlCxgt9oeXF4zXStEILBw8vvne0cYa7hWYB04gUhvy7K0pgWwbrB2wj5xNPoiiBcuBkDztaTrm3mP8o/Wa/rXOc1a5Hrj4cdkkeuFOPBHs30tiQ0R3I8ebBcZzPSdB0H3niuO/IOLxNzYfv6EufRVeJ/7KCbJ9Ybk/eHvnMlAnnI3P3Je+ekvrnHCgSmA8YpHiQ6FpDegCzjWs/WcGKt4I0j2vLlpVo7FwwjiBOELhLMX55Hh6BjyOvDAw7xC+YLnvnZrHeMS3QVRtv12laLBlHpevlWi60j1j5znbWADmJtJAqMnYWcVS/QKowKYip59+kt/GS5eO0A18at7yQrputS4yJSZyelpEiKEjvIXVLqZE42idxRPDHU3iZ9tdVudoQBJYIgfenxnbK5vMiUzXKCJa/qAiRplaRtBCQhDkieJaWGSA0TNZGTlQWIVeUUwqBZOixaGjRidbmWKo5ckvjuFPD0KxJFj4LFPY8wOK3EjoWHp5DPi4Wo8hkDel4IBbxuWIEoJYQT4RkT9jOcB+NEtSGJs7TzOKuKnrygmZQ5p0fYi/dBYFxu1eSikJUGBDHtcajydO0+XM4m+XJUsJJ0zX2rkF5XJNs3rrGdECB09DikJcMhFYI0yaYCFqJI8n8iQq9cJ5K6uc7MMTzDp6/UW8joszNVrsVBbZu1OEDoY9jMdQ3xnawbSB2/lzWLEJwN8FZfqW41YsduLHM8NVtf/EYMNLwqKEJCtbXkFqpCZD2hlIdC3krIO2QrEZEQ8/Jm3GuhxDyhQIaDXnpUPuLRI3+O+YOnDwNgh84XvLqE5vGCsLsI6y5X5R/nt3JXnsoiJUSE3t//6qbtI0tO6AwizEEHjWtKYQFyl5AksjxQ2BDA6cbVycE7tq5o6ksTX7x1tA9BVzi9EHrzFOB13ke0CA+yGes4DSCfKsfdvJuZ5CH7qc5uVqOM/q7kgl3QdX3+eqOt7dtN3dKi54neCS8KSQSQUeS4rilU2VecJ7s2qWzbttbae1lLJl3/ELtEpj8sFnBd4CXHldyRrxiZCrAqOVlSsnOU3OVJSubkKuFJBRUTI8PSffO6tJ3+OvTMPZADxYD+D3//RbXulNwt40R3hLOrmhsxL1d796AJ50olJuTkwaAhLSwarP4EzmMDi9+FW9Js0ga5NXQlZxsxxj6aIuC8cX9TAcWCIwyLILAcOlWEkaSOj0BwQ9b0kfs9KkwiFybWEM03KQTZYz2Pym2RMScge9HA52BtkqNySYklXrvz1xukSs8nFk8NY0CYEI/T3371IcunyNfHMxHKlQAjzXo98TBBIJiL7AXKmCO0gzA6ApGWJhBkQjFTXavZgCnCfCEcxHXGQ4zAhxzR+8uqTJXYYBzMF5gKe7aWyf/p95+QJw9tEarQZwOU5zsnrsmvPr4k59QAmQ9wrqakdM1AsEqVjEKsIOEoK0gYRDVDr1uic29Z93hwmCso98CjgowjTYfvY85kh+aLrWvIR+jvVzKY56TMfHyyUv7zb07Kzdp2k/kzATlFB4GSghzLXaTHKIZZxZpcKwYiRwwCzrhHE2l8BzIbQnZSDSU8dVRIQ+qifb+RtSRH1uh9CglAHoRL2kCv4E3ctqFIDu9YZ7nz6Bh2lJlqzkEw+d5rNa16tJhMRycif/BoxiLP44X9Hp2DyC3WBYbIzk0lUlGSbzqQeWrrZRnzEICsx/j8n/7DezoHb0pH1+Q9/ulxl7Vug+Rt3S5Za8tDzzpMInejA/3Sc/OadJw/G3rmHiAaeAD+l//+desPlUjhs5jB4mYxOcsHK7xPLfBuI08sNrxrTP75AuPMwkMhQO6efmiL9a4jlBIJJkFtc7ecVlKHl4ycH/bbnGrxoewhbYTtsOLYRxfrACszEiasdLHh2WRz6Ef3bjSih8CKNhfI8zipluZXF25bOIG8jFZV+DPlqoQDQcUifvGxHfLjVw6bQIS0eDx4EE6lUo9kaQ5IOwYQ3eYhD/O5JgKgFKlS/cc/ftKKQghVzwZ41H71yWV557Ortq4XAsxtSBSKFU+s7c+pxjNhJqobec3jwQMCTPHPT98/bwVAyNhYEJC7gly3uxA9Fu2aK4EmzeTxAxutuTyFKtHyMCF1EDpadLFzA/L0vnYYISB/0QdUk0PccEqQgE//OIp6ImE6Rc+DFl3MOdKsyNeMZhyhO+gb+ZvjV+ViZaOtcWtfEqMMnw1wXDD/15fmGRHeimdex4w0E1IPUpNnF9peiuB6UwPw737+hfxajU+KtsJBzl2mkrq8bTskp2Jj6FmHSWHZidERGe5ol6GW5tAz95CmDJmQz2tP7llRCpY5xERiARKipaUJVgRVOYS42I2BhcUiwGsWi1UXDwJyiacG6wlPG+fAJA8nVVhQFyub5dOzVRYSI0E8sn9ROFAqR5Wsv/L4LutXyCJy3frT7HcQNopcwDzGpY83k9xAXPUUoTAu4Z5EzhUPzodq7aIs+1QYcC4IRv4+dritZvhtWRkpFiZfXgmzSwtcBxpZs9fjb49fkfe+vCGfn6uRizcbLY+uu28wISHXWME0gPw/um+DhRDxgswGKNIr1Xgd281YWxDoGFHkYMVVpGK09kp1Q7tcrWm1jfvJUSU3KvC4+jn/YEBl97tfXreQfU80w1Svyyq9Piaow8D1Iq8yIy3V8pSR1fwtZJFrjgGNF9d6NkYYJRTl8H3IcrxleL/5u8jvZkagi+mf+vjBjVboCFnDCCYkjzFOvh351eHgYyzthrln1eBjkqz6jVw25ls4WBtsB8aWnKQLcd7zsb7xauM0olEzqSTPPrTV9BO7e7C2aWiPnqUVz0pbC+hwoiIUoMEBwrFKxy05O0fSC4skLW9yf79J5G5sYECGWltkuP1+6xX354a1hfLKsZ02aVYSmEuQFywv4vqMBR4vrCTCK1jekDzcxYTCUHB4LhK1CPgYWjEQWsECdM0lMywPLQChVypqzt9ocmXTuqCn4HXWaZ6tl6zCaNOaUM5WhhK+zBBxdGSNJPBIgWIkVi0JBAPKtDjU7T98TjAB2emDqilrCaHnjnCajtyxYAkF3fd9+hhiOK7fm6OWZaGeHwTUY/7B2BPyJcxK3ib72356mtYlNXLueqP1VyMcSy4O8w0vQcTlm1ewLhNC7nSOXqtWUlUHuZu/MHIkGKtgbZDH1aPnwZojb7GumV0EOiw6gHLnvShy8m490Zt/IOcaVI7+7sR1OaHGTGNLj16nyf05jVypLihQmTSs1y987keSuyC3FfmGbhgenTCZS8oNBS/hYLck8lVv1LZbysNUXnBCrOSdUdVMUQEeLiue0TWBLGdtoI/QG5Cy8EI2m3t2HuNmtGFAuFzcyUn5dFX43RfXrdsC700ksTOPo44PToVgq0orjthWJtsqisyJAuHEy4h+4f0rce4z5pD8q6pTyeGdBPRmhpLygkJJ1yMck5Jw7ozrxYtSBcR4MrBM1pUuVphcTDSsCHLAaMVALsAuJUwsDqyw+WgWyZpikff2u4o7Flo4qGAiURthgOdtujVIfg+LiZ5mCAIEgBHW7AyroGT/QHIx7HdEWUwIPgQCSiea8CFRnNweBEokWYsGBF+2EjY2pY9U0Pw9iu+6Cjy8RBBGrEmP+QHjzVwi8R/vwVufXZWff3jBwlJst/Th1zetnQ0VoKQp8F6ufwyX2WMKBAo/8M7fbuqy/NQPvrwhv/rokvzsgwt20K2ePU0hfIx7IhWtxz1Agihwo0KR8Sa9BeMlEhA7DO3N5QWqH+PLZyV0SnQkmrHLd7d0uA3zp4q8AKJJVIweVFmO3LYKej0nbmk+vWNjiaXOQJBwTESCT4awkhuLkUaOXySQ4cgCQoOxyPK4oeqFHHJyuGm5Q3U2xT9Ud/M7+I3R8stXFlyVdbRx4JrcYds5PSIx+YoTUvwmupVgl9XLEgNzHGFMNan1q2t1nfaxtFF6tGmYblHOBVZZp0d4SBZw8XFZQ8hmWgpUNOGhQLiEW6OuMSsVssPmzp/+F7DxtJ6PTrjISUf1FecYq5VF+IlqR/aTJVwcKYgY7y5Veig8BO7lquaYiaPHzGAcUTLWgLS2Tb66eFve+fya/NW7Z+U///qkFRp8daFGbtW123y3ymlP6OYFRvR0TTLGjHV1fYftLfkLJXdci79454wSbkfyaBaLpy8y7OYxe+BJJTSPEfnuF9flZm2rFStFyhrkL9XHVKBj4Mdr0CMfo8lxgHfWSM0Mnwm5hwASHTGvWkjn8Dxy3eWJq5zXuTSdPrKI1HTfp3J81Two/2/0nIjmQCzJe0V/0uGBOY2jItJTupLB9IuYgg72Apzt/hcjwrL9lnNHI+NIUFFJ+PHlY7smheBWElggFkLRCYmFTefoz1XpfXzqlnx9uc6qaSFNJJsneinAkyBweNRwXRMGDr8OUC08aSgEyFu4Cz4SnGOrWoYjungIcRI2oG8TeT4ItY9PV8qZa40mMKIRKIQATU05FywtPIHhwo1xwvpkfBA+fARkeKqwLOEFPuvvvfGwVDW63QdoGxAOzgNvBcQZ0shcxLLz+UizQ3BNaB4Mkcco+fRMlfz2+FU7KL0nbxJBi3JLdHuDRIDLnoiwLMqRsAfkdSHDsrGAeY+Sw+iCdHCdSLQ/d7PRlCEtaAhbJa92KQ2shZlabHhMDSqKKRD6y3fOyrmrDSZLo8377Kx0eeHR7XawEwSNrzF4AnAdooVlAa+tKciyCAk5ZnjWwoF+YU1yvU1eTrHsWL/ka6KLkIP0nuWteOBqGrusUTipFDgf0FuRYI5gWBMa3qfngucMmRoO5C2hWdJ+MP4TDYYWvYCcIdeUli9t3aqbVN6Q/xcQTsZspXrwmFdnVC+z7iNz7hCCyZmZkl5ULOmFxaEnHWIndzpB163Jl1dWKLkj5w1r4ppacijBd9SqI+H1Zm2b9bGiaIDdLebLY4dlta40X547ulV26yKkoCKc1KDYyOHgeRaGq+KNfi5YpwgtkuCv62IizMnv+EQFwVdKUqkGnsozxmIjlPvE4S3yzJGt1vQ0PS15kjIhLxHBhmewua3XOuSjoKYid8wtGq7+4bePmHCh8SvWXOT3I2SpxGwPLf6y4lwr5lipxsZcwFytauyQj5TI/83vzstfv3vWmvjS6qG1q+9eA9J5ms+JANN/uZO7cLAcEPQjaviQ3N/Q0iMXbzTZdTuvZA9vH0QhK31+UkOWOyBLKNBffnxRvjhfba0+ppr/bFLPNpyEP9mZIVZyx/PpqUlydM8GnbcbZWNZvuUah4Nm0+SbcUsRA7Iu2nkwHwgXU9xGqB5jurm9x4pAjp+tNkJA9Tq/K4oot0gPRvWTR7bIY3ouZYXZKt8nR00wvClkgyxCfPmsRMPmteok8hB7B4ftN7MeaYBe19Jl+gNnwkqtIMdRw/q+UtUyB3I3PCTDnR22S0UkUKBU9hzate6ux2S5g0HF80SvuONnb8lHJyvNGiJ0RR8vJvu9RPLoQmCuwLKicANv3UuP7rRkU8hVZOgSqwbvKq9RPYXQ6R8aMUIVbUFClAjn9ELA1DJjv86GVrcVFEo98vcgnFAcWHivPL5THtm7Qb8n33IPIy0qPAfkflCxtTZUTQypI/EeBRQJlDI99L773D57L4LMvIudfaF33APnPaTKjde4PuwtSnf95djAMtHgkjJfKRz46QcX5JcfXrSmrHSZtw291UCxbfdQBqG/Wcxg2q0kcheAa8MaoZIcI8zlaPWZgUbTcn4PRh6ywCM2MJaQobc/v2rb0BE9mIrYHdmzXn7wwgHrMoBcQ/HORO7YUpIdkMiRe+7oditoI7eMxuThRjqAmCMHrR9dRbEzlFVuOoM79KYQeMz3UviEQU8xDsYxnjZkLbopEuhyyCPtg56jwlZlOt8VbQs/5D5NsTlvUmb0l5lnMFoOYiIQzGsr9FDd1N41aB7qy0ps2P0CTyKFhJDOmcLWywWQ27d0Xl6rbrFCxknQCxYTuZsYHZWRni4ZbmsNPXMPkLl8FRYk4jMRZitIFzsgNRA6LCF6xbHB/snLdVaKTMWQ7ZWnpCnwakQutrmC6Qpxg0hTpPGwChKqWqkk2rHBufCn8lRhdTHpqXjiGpXoYuQ5ChwgRJGEzQSDLiRrgquCAAsRCyoSFFxQ0fSIKtEnD222XlzkyOGxi7bAeAZhhlct2FGB+5A7wkqRYQ4jd2vy5Y1n9porHsHGeZAvcp+lorijk53z7ewZMmGEhUtxi/fgTQ2GHMFIqPW/vH1aPj19S24oqWvr7JfBITUAdB5wXSIuzaIG134lkrsAXCquGcYbaQxU20LyCHGxKwK9MQtyPMGbDowh5AhS/M4X1+TEuRppbO2xvMdIGCkqzpW/89pR25qNylRSYaYmd8jxTNmsxOjA9nKT48eU1LETCKFQM4yjyU8Utv4t4XbkZ3FelhUYIFmJuKB7wmG/QXURhhl54JBAZ6C71wNghKNXKLJ4+shWWzfIdXQK8pr1FAnOxTl2XAUu5w0pLSvKNiOeuec8g4kTHHwSn8dvgjz3DCjJUz1An9TGdiWvTfRN7bNUBZwfjGO0c18OYCxI8/rFRxct/5b0mElQ/c4OFRlFa6wdSjgmkTv2kyUkSzuUSEAScItuWV/sLI605dcZmgXRoJOHtg946CB1bNJMR+6efuelmw9CB1jMeKA2lBWYd4xEXbxjNLokr21tUa6RqfDcjWgIBAPXiu3i2GbKJr/+R85atNwLfk/kb2Kx8Dk0jtyjZA7BxPkQhqXZJa/xXVOBlzhX5klJviOCli9U2WyLNhwBuXtdyR0CEQuXCioWNpVakZXBAKWGMuvV68J5sH9jIKQ87gdpBWyhRNXr259dlZb2PpeEPR+TeYHAHFvJ5C4SXEsUQXfvoP0OxgMDcaa1ulJhkRklDniuf6trgvB2nRKHaAUqEByM1Nee3ivfeWqPlKo8ZkzxlkUjdybHstLk8K51RqQgg4d2rLMcO4xv0mxmuiaQMb7XeqsW55g3lms58c0d2yc22tLluWjP01OP5tjoFQjmUdUr4bsdTXcqvAYJJacPnbJxbb6lCOEZJmSLvOY8IWSQ4mjfP1vwUfa5OrY4IcgpZ6szPJTkiJObCPh9EL3lNs+Zo3TH+PkHF+03R3qT6XNn5K642NqhhGOy525sVIY7OpTc3d/EmDFjwmKt4Llhoi0nQOzInfvg5E1598Q1YS9WchlmaisyGzD9mISQH0gY1hSdyhnXJw5tklce2+XCnroYGWcWDu+PZ+LyXgQBoVEUH5YfFh0948zrOM1vYiHTf4iO53gOnzu6TYVUhQkD5kC858FBTiI5A7TRmI7cAX4vORb09CPPkRAJrun7PI96kFNCda9+iYUNGC/OP55zXAnAyv36Uq38m786bq79RFra04HrgPIgNAX5phkpaR0o1bmCS7wYyZ0pZJ2LnBshNQQyU36hpiTrixA7OWOP7t+kSjnV1q3HPRAZQG5crm6RX6jipPAAj12kVwwgT5Cjz6gc/Ac/OGbeNGQrS2gqcsccoE3Ka0/tti4AkDrz1OkkiFc28X6M5PJi5zXDo0fOJYSH3zHVWubvOA+iJjs3lsjTh7fYQeEEeiea13A6cNoB4aRtFvl66Kx1pXmmw2z/b32dOa/vtvPiv0ROe35qML8b23utqXqHXgOIJv1ZZysDFiswwCky+e2nV+7vcadYlZQkKTk5FpZNy5+O3I1C7tqjkjsuFOEwOlmTCMpgLicFCpGj8vUn710wa2CK9TJnsKDwLmG5EU48sGOtkafvP3/AOoyzCTILL5FjS8HCWrX88ABSZt/ZPWgkLxAKbimycHVC6Osux6JIvvvcXnn50Z3Wv4/znQsgaZcqm2IidwCLEiGKUKVFB0LUbb8TekMYCN0imAkrk7vHFj/eW3EPXGd2LPlSyd0X52pCz84vGHq8/cwb8orWq7X/7CPb5Y1n95k3iVy/uYLvWIzkrqQwR76jc5lt81B45L3iDWI+TqWIEw3kDCR6uyp1SAEywMMBso2Mpyr2b947Z016u/W6R0tJQYLgFXpSSdE/+tGTlqsWFKtwKafz3BGJObiz3GQpBGuu4JpivJKHt2dzmaUPEabFAWHQ8+HM3Npbpdc8yWQo6+P1Z/ZZ3jZewHhJ3XTgdxI23rG+RA7uKLcKYIw4xhKifG9MoXmJBeM/OnbH9obGYEVXYDwuF7nP7+P6vn3impy9Wh81Xx1yl5qTJxlFJdPvUDEduXNwrBwFaha4koDlAnLsfvnRJSMKiZ6EZs2otUM+GdYcRREvPLJNvqeKDksKCyjwOM0XOAfy8TatLZQdlLzrtYNkIehYoGmqhAgXsHUNYYRXn9hlu1dAsqItFiP7OlCmq2zApnftx0vuABYiRgT5gwhj8ltQlPadEcArWdfSY9VVCDTC0Sg0T/AcEBLXa9qsMfF8AlINoSMktVEJ17NHt8sfv37U8pSori4rzpW2zgF5/8sbob+YPbi0i5HcsY4e1nP69rFd8sShLXpslr265mk7FLQGcogykRME1jT7mh47uNn6sEVuK7VSgexpau+RT07fMnmPN5uc02ikm/mVpdfspcd3WQHFVpWNGMcB+JOFJHcByHVDftOkGD3Md3EuyHLWAFtC0p4KMvfyYzutspedlCi4i5SH/B2/PMi3VSk+rRyfCvwN58HvpPMBO2fs2VJq++jyvLUH44sUoZuEgd/N72IsIJp4SJcDuCbNapT/r391XGhqHT6/ApjnLpbtx2Ymd0yGbyQvN0M2rC2wXKrlojzZcJ+9MqPlW8wGhFwhJxQjFOdn2kSnGOHpI1tsz7wdG0rMCsS6ptIzHmLHNRhXiwhP1sjohHnhcN9ykKdmFhMVvPpet1jdZ0PwWPx4DNk0mpYqVHw9dmCjbWQdFG5A6qi2hQwGf8tEIwzA55O8TfsUwth4PEnUZ+LxnfA2/iSy19ZsyB3fnaICCYJHKALPHEUZVGtFCmPOj3Ho6B60ZFtIBgSPcMZMeYrLHjqOWPfkL355oTbMmp47uNbkumAE4HHGcHhcCcWrT+6xVhFP6v1dm1TIM9f1deYJLXje++J66BNmD757MZK7XJ13B3eVy5GdFTZ381Ve4j3bsXGNpTewJzUylDXCePA7mM0RU3pO4HqQv/u95/ZZSgbrYSUD+TA6fsfCeO9/dUPn3w3LpyZnNxqxMy+ZXseXH9+phu5u27OV+Ruu7/izuZA7vpVcWIqZyOem6C2Q44EsJ4cN8sIk4bv5es4A7yGyrUjn12b9fAo2KHijCvfxUH70AT1njHk6CgSRDM75zjd3jGxhKFOAgQyn/RGN4gM5z29Bg6Azwn/zdOB9yFqMOwgWHjxy9PA0GhEtpBCTCJAjkvyQKEM/K2DIU+wBqY3cQm2pAmcG+f8YIcyFaEgouaN3GqQF7x1W+HIprMBjd7WmxfJUZjPh3IILhaF0olGIgEfuwI5yeXjPBjmiQn2fLjYWIg0sUYQIgFhxj1xNSM/AkO17yKb8FyubbU/Zi7earUcTbVpInKdVC+SPBZesgmB1aHEDFjpeBDxiJAmzKDhYiHi9sAqDc2MoEAQoQJQy30OjY3op8d3sg0gFJudS39ZjHiLOk6+y9at3OGjXEC+5A/wtJBNBwQLmN3X3D9mWZJHXiccILGvsqUIXAoxQhWDze4Lfv9Jgv1r/Ie+uRq8hCgmlMlswjvTmIuRIIQuGHvP7qSNb5dmHt6mC2SxHqO5WgU5VNTIiMF5QWszP5U3uXLrFvq1rbe6y3lB2hMRIcaBfKGO2qbzAEtNRvrbebMG4z+B+xPSOGcF6evzgJnler0d6SnTv+0oAMgF5hOf/xu1WC8HSdJ7dPTAUI8E4MX7sYf30Q1vUSNltxIkcs0gDnM+eDbmDrCHHCLNRIMB6uHTL7cVNqJjODOzCw5ysa+0xJc9yZR6ZLA8Zq5wrawsDAkdBIMfJlSZChMw0A93e7b6XogTSXG7cbje9cS7sO+nherOuw1qPNHX0mryA+PK7+a3xEj14As4Lqmwx7vDicW4Uh7gcvWT7fPtE/Yf5zvfEC06JWgAK/6hMRrcudXCtaP3C7kBX9NpEM0BAQskdX8q2IbRFYUJBEJaD4MBCYjLTQBHyEcsk42djQTGJySui7cD6sjxLnt2/rcwUHl46hAMFE0F/wFjHiwsKmcaqo+dPa+eAhY/ZQBiShDA4qySLxUmxAgKLHmaQMLw0KKqhkVFbnChiiGe81wovIEQR4khI7+SVOjl7tcEED0LpdnOXtYjhe+uae6RVhRXfG/S0C8YRcnf5VpNZy/GQuwCBJUjVLSFYBN5UhSE8T44ZJA8vFV4M/p7rFCmgVwqSVSGQTwkaWt1emXfw7sYoTQNhjUBmHuPZZU9l+l7iLaBnFgceDpvrGC9RxnqlkbvwXLdAXqDoUcKE+ZAVbGMFCS5QBYVhRejPrgr/MIR6G8tV4hqh7PFePLp/g3zriV3muVmpc565zXyjfRWNhn/3xQ3bGxl5hayPBOOHrKBA4DElxt99dr/NZ+ROtDFk6cRK7igQo1MB54NxWq+kDZkZGMv02OM2IHUY6U6mdluEhAIKvO+W8qDzJ145zljQ0xTPJc2Bv758W06pLMdAp48rOoOD76zS8cF5QLN41gbFT7TTct8YmpB6A9mLBYHswKPGzkrrVdbjGKLoKC8r3X4Pryt1DP7CvmKmOc+7GWfGFm/4kZ3rzHhCxy51oC+5Rj97/4Lp/qmQUHIHsITwUmEdIDycq3Vpg8mFN6u9q18X0biRAtN7Nt+cxWKWiy5yLCcmENWc5gHLz5aNZQUWekXRPPvQNiN2WBGEBs0qjxF8J25zxpjwZ1ffoBFOWPz5mw3y2blq6713RQkepAsCFS5UIN94ryA/EEHKp/ksFhYWXrwhSoTK6Wv18uHJShMG01UQQ7ros4WSxJNHNRPPcSAkIJ/XqlvtHMMRC7kDWGTBhtI09QyaSEd+HkCYcS2raHw5NGLeOxQn34Wgjlc4LnXwe1H8rFkUm0vydyGf0BS399h/oXnOLfMl6CVVVJBlob5dm0tdTtkTu+XbT+6x1gpU8Zk3eob5tZLJXSSQIZajpGO6Xw3Avfp+Ck+cEYMxpnOVHwn0hvv2OHSt3B7O5EGHUkB0/MlzpO0G20Sy60Dw5ysNzOsgD/ekKsl3TlyzLggdSvSQh5FgPDEcK/RakDrzt779kFWC0vaJ16IBGTgduSP9BXII4eCitfcMWDsooh1sV3lC5ThhNzxlgbEaLleJ1rBW6Vt4q77dPG7oHCtwgwzFcXHRZ+gD9MfHp28piUMuqu6I4sF3nk56kvZYVAbdQ1cCokakLdG5IJANdrqchj6O9WyY1+gi5v2ujWvMk82aQUazXlgXOADcxyKH+Ar+cfMf+c13k7JDhSzRsMdUBuzctGZZhGSZu1drWy194OuLtaFno2NeyB0TD2VJWI8QZDwTbTGCCta8bARtoU0mJq0jcm5CITyZTChIFrzl0ehv3715jeXSEf7Ag2EueJ1wZonEOSYsbBY4IQRyx1iMp5VQfXy6yrYGO3+jySqDiL+HC4HpwALGCkBBk/tAYnWsp8V34JlDIFxTsjZV3D8S/B3vxWKGhOLyx1Kt089qUqIa6S2KldwBOr7jMcbyGxwZNSFEDl40ggcgMbdUkEEqSTRG4GaoEF+JO1oECufANpSW276OUcNYQVgaSdA5zmHpBUroCLsSTkFwHtN5zjX60UuH5OnDW60BKuQkmoduKnhyFx3IGeQp5BlP/0N7KmTL+iLJ0vHlM7ge3Fq7CX0v8or3813IIvqu7VRZ9IMXD1iu4+5NpXHLn+UCUg7IJaOFBKTuVx9dklNK8DBmoksJkXQlFhBj2pa88cw+Kywj9WC6EUSMTU3uVpmxs7miyIg6kRSM8vdUYZ84X2vesYDQxQL0LXOTBvoULJA+wzyIFbSiwkuHd5BziRWQLHQIpJQw7g1dI4SSIXmrdXRolu3m42pneMQB5ieyhpAqHmwqbUllwrhJ0teY4+hR5BK6OIXH+n4MTQoQ0QMYmuzv+9CuCv07OniEPnwJA50GsXvn82tRUwfCMR25W/XaT1ruzvfR/j7pvnFNOi+eCz0zNbByEPivqPX+/ef2m5CNR8gvRkA6cJ3TNBBrCa8X3qdA4KMAMzNcVak1llSlR+4AixihSzhlNgKVhcLi46JC3nCTs4UM7T0gZrjER9Vqmm0iPEqByikqFgmZxXKdEFyQeLx2dMcmFDwVgZoJLH4ELnmNbR3995E7PHG01/l3//T3Q89MD86DhszkiJA/Q5EAihn3deRnA34tfdYghOQhYZljldMeJshfWUlg/AgNsUURDUEtx6a9R4bCqgYZF4pYSouylcQVWziF3BnLYVRlhcCdDVBoH52qlD/5F2+Gnpk9WGpb1GD5xz9+0kLCzKPZgD05f6lzHM9OlRoCcwV5dH/rO0fkxy8dNiUUL7gGrD2IMHMabzlGEZ4bZBMbuY/qa8geQrlEBzCOMDbNs63yCKW40sC4Bak1V2qa5aOvK+WiEhKiCYxlNBip1nmzd9taeS5koGO0IDNnkpKsIzxq/+m3J+UX71+cZPxCdiDee/Rz8S5RDEalNMYmOiaanIoFVIQ+89BW+fHLhy1FIlZA6Fh3Jy7UmEdutmBeYRyj88hD3FheYCFR9AocAPnA6+jKeHUh4wnZDaI9hIbZFhEnATnUgI9kvkMIyeMjvaFAyWB4Xu9SBr//g69vWoueL9UImKnAc1VKimSWlUv+th2Ss2FT6FmHWXnuAIzedjvQSUr+HSXIk8IISxBMRpQW7mEqpYrzs23S4o2jupVJjEW3pbzIXOMoPogexM6sixh/O5PYKj9DZK5GiRy5aIQPcNNfrWm1XAvc+JAYqqlmKwwA30duA2ScRYHinulMqZQi/IpLHmKHgpktOHUqwQZUuEXz/sXjuQPO4nPbrEGyuV6ECrBqIcH2hRHAqqZYhq7m7KXL2Af7OgbW4UoBvxlvAlu2EaZdX5ZvlZy06MFrRBEQnidChaQakBsW7HaC0puLEPWeu5lhckjXKF52lCUkbo0aksgcZNFOvVZsYcWBhw6vB2FxrqUR7xVmsLDaUYLkJJNbh3cMBXlJZSrEAI9dJJg7zBcqOB/eu96qYukWwDiGFyFMB8TMVJ47PoDzwuM2oEaT2+ebdJ/7ZVM8wJvF/KK5fDwEnhxkoig4DYh0zBaB7sKbZw3mVS+wJzn6CocIzzPeFvrWn+qiArHJC+Y9pBjZxLwPogboBva2vauDNxQbAV+nMon1b0ScC7qEwaxg/qBv3/zkskXsZvLagYSHZQNYCbcqUyZwSaHbHWA2SfuLDcEkgzQ4KyErdGSay9hZJ/E1ymWMyA/DQ0f+AkntN263y7nrjXKh0lUrEUYgfIm3jvfOhdBFAgXBnoLWd8isqtALU4CvhtwRGr6p54kCnAvME6HWWCLIHeD0+TusRyrbsCRZHLaptZ53NCHKb3KbUfebIKJDPUoBYhcQvJWiGBk/fiuGCWNIYRSWsIW89eA+zzHfmevOeHF/Oxd4chc/3HVyRI/rAYnj+hCa4zGep+Ugd2cDyAZ7UNc0dNp2kR+drJTPz1dLZa3z5EeLdgTeOkLg5I6+9NgO62hAIUo81wt5MiW50xW2SkUJZIy1kyinB2FJrvvj+zfETe5IrSEaFWt6zUxg7JG3rBlCtUQCcFbgYYb48dr4hOMHHOZU0HGIdShInSEEGxjxwYG8Qt6z3peyMykceOzIoX/3i2vy6Zkq8z4zvjNhOnI3J03GCeE2PUnn+ws15vrFOvFwYEJjxVhoxUreu+SCCoLPz9fIByqE3v/6RigHo8aqlCB1c7XsVhoQxlhxzx7dauTwicNbTNGjCKcialiXbJpPKO4XH1609ghUq7Gg8JRyDfxV8PBYvDBPvMpVQtQknf/2+BVbz3jsapXoYbRFM44xyDEIdm4qtbY95NfRZLqsONcI8nIFYwFZoNNFosFnE0YlInL+ZpORE64DW3myrRsdFqj+hWCSVoCRj7Ef5fKsSDAW8AO6UdBrt76527p3zBVzdlOwiEi2pOM3IUVYu7lkVyiYsCwixmBQSQT5HoRZv1ABxGT/zfGr8uvjl636lPYlCKhYGLrH1MASp5UEuSg/evmQWeI008WDgjCPBsacMPHXF2/LT947L3/z7jm9JjdNCBGyxXBJpOfUw8Nj7sBgZm129g1Ze6a3T1yVv3jnjPz0/fMWyurXtRsNQTQGYkfqAf3rvvfcfnlk33qLOC31fPHFAmQm3nnCtHhS31HD+VefXJJ39fbTs1Vy9kaj9dok9xbu4LpSrFw5y2/v0bHA6fPLjy9JdX2HEeVIzMZBOWdyx3Uh967ydrt8pMoR9klfnpVIWILQa0tXnxK3ZvPQvfvldXnz08tWlAABrqxrk74puqIvZ1iftSk8aYlCanKyVS+zTy8k7xm1zNevLZg2nw7h0qYGCZ7nv3r3rPyXt8+o9XTdWrlQteyJt4fH4gFFWTRQ/43K1P/8m1PyH372he272TdNfhLGX1ZGimyuKJaXju2UH758UF58dLt5/FdKGsaDAPqQXOumtj4l3vXy1mdXzbv6m+NXzNGBR4+eg0SsIOwrEegYCC9OH3JEiRxFcgOIHQWB0+mxaIj53SwQEh3pdRUZ6+dkiK9fq26xnIfPzlabu3ylKEYmJsUP5O2cOF8t7391U377+TW1Wq4ZwYMokBcCI4cIM+lXGpig850TxMczN+mATqgFkkcj0kf3b7R2EVMtDsKweFlxh584V22evJ99cN5IHvmQ7d3s6OBJ3nIFeTt4bhKVv4OspGXPcskHetAgCkK1JLspvPX5VfnLd87Kz94/b/vCkvNGDtlUMpVQK7l0bImHwfd7Kg9om0E+6VRefY/EAW6AAW355kpkyCmnHQuRq7dOqI5UGct9GivXt3ab12+lqEdyfU9frZMPv7oh567VC/1YI/UMOhNiR1Eb+bXxIObZTY8ZEjmpKKKzdKSi5CKSWHmxslE+OnXTkloJ0UarVFpOYDIyYZmcH526Je99zW+vsa22cD+TaEqOFzkiK5DT3QUEai5bXsUDCB4tA9glhBDt7z2/X557eLtVWk3VLoP5i5Kg2AIj5WMVOIQT3tSD+YzbnIRhKsVW8nWcKyA85ElCtiFBc8Mq+xx6lM3FcKBYgdAcydtzNUDMS6Sfs1w65T9IsB5JMmftkcNF9OO3n16xFhH0ruxWfTOV0YV+oi3Mnq1l8twj2+Q7T++xDfTpGEAD3XiKETwSA4ts6TXFU0f+HQ2S8eh9dPqWefJIXaLpvDXJD/3NcgRzltzDM0romNd0yUDvRJvLtJyjuTnbOdJPOB7EXC3Ll5Co/t3n9ltOEjsXsFF7uKJDQVJQAUOH0KSr9RrsCsBim2/PzUKD3w6BxaI8dbnOto5pUKJHPoFZk1MIntmAkZvL+EHI6ZYeT7Us7UVoYkyxx2yqZfkKFByjwILFc8m4RGI21bIzgbGilQTWDtWfLAxrfaL/UeVN881ouaH8bl6nbQrEnJzJlg624qFD+5iS9G/uVcHFMI4ek4EVT8V4nVrpbFTuchtDL8YBSBTNwp84vFmO7l4va4pm74lBbvX0j0izKhy3J/Psi8JoEr1ve7kl6lPlN3cCu7JgOkRlBC02qNQ/r7KVJuqf64GcZYss9Eu0KljgvKYptvf5gZ3rrMH8k4e2yIHta62dD6QuUXqIeTtVtSzfQSNjPLgWUgsL/3KOsz0HZCUy/PH9G+MiqOgpdqVw8zt+h0uivdCBnCUMib7EMwvpQxTQYgxDazmuHeQdc4aI0Ptf3rA0NjiDtZWLAPOYJtivqWHCfKYHZ2Pb5B6FCWmFQkNTeiz90asPmRDlYnT20GF7siAMFmdwsSjdpmyZtiIpy4jg2eTUxXy1qsUaQ9ILjvLvRBI6JjeLmbFjstMkGcLFd8eLB0HumCe0bYBkIYzZ7D9aj6X5IHcBGEPGjtCMkbz8bPPUMEchmuN6XszZaAhIHgSPoiGqaW37NRWOGCsQPD4fwbdc5vV8w5SejllycrJV12EExkvwGHtI+64tpfLaU3uEPW4xImd7DZin/C3GRyC3WMfxnBPzgB1QqMJ84dEdpnzNoA297jE98OyzHlH0RDzw6JDec/xMlRVK4Kmj79fkdiP3wDgTgsWTu0n1FE2t8dSRkkGja6rnEw3mRyzkLk2VNOeGxxpdyFxFZlg0I55JpngQ5I7fkqHnTtSD3xAQvUSmFyEDKC6E5NDmhwK55eYQsvSt7gE5d6PRdp/48uJtaVadwvORYEepDWsL5MXHdsh3ntprESMMHfRQOBJC7riosMfvPrtPBz7HJmZnz4A1iYwkNChLOqgTxkIxQvBwhVtVkl6w5QB+I93QuVCXKpulXZV+osB0NmVBeKcs37ZlIZwAKekwQh2/5fUgyB3CgKo0mqyi0Anbc0SSqfkkdwEYTyrlCJfRVR3SqVLKeg4i7KYieIC5DgkhlHBbFU+tjglCEjKA0OO6MK8Tbd0uR3Ad0lNTbfyTVS4QnkBpx+ItY3QR9vRsPLxrnXz/hQPyyJ4Nbs/kOcgVzgnjNSeTPp3J0jM4bEVPeGmnmxcBOCf2dT26Z728rlY2bXnw2vnZEBsY4z4dc3bmYd/Td09cl09P3ZIz1+qM6E2180w4MLQqVFY+eXiLeU0Jxe5W8s/cmK1HdyZwSjOSO5XhyEFSmnCOUKnLXqjIHPRHvETrQZA71hb7pz95xLWZov8cOXQUSyRS5CFn+S7GanO5khX9rctFpjJ7Wzr65ctLtfLrTy7JlxdqzFEwVWcRCO7T7ETyyiFZV5JvNQzs7T5v5I4tiL71xG7zhDBh2SWgT5VeW+f9W0rxiMlOCJd9UodGRi03piCHxYZr3L1vqYKfC8mC+AQVP3MFAgHLjj0OD+1YZ/mNj+xdL/uU3BFS6B8cldqmzqihzZnwIMgdYbPvqqDdGcp1Y56QUxFp8S0EuQuA8MCKL9fxhDiXFeVZygHkAmE7nRLhJcLLeBfYDgqiR96II3rjJmwpOvJtFaaHI3jJaiRmmYVOE2pkA2PPmkLIh4N1ka1zCUv2yJ4K2/8T79hDu9ebBy9Jx32uIw4BgKBBOjfYvMixx1xzrOZIIUxDVvZ9hVBANL/1xC555dhOORJK1uc3ekwNxhVvPts7fn35tuUesZ/miXMuCoKsGBomtSW68gsHPeroWffak45YE4Il3y7ezfXjBb9hKnIXzHGM8meUFBEefmjXeqvmz1Hij8ygtxkRhHjwQMid/hbm9LeO7VJdVKoGcp6txXUlucoF0mxtsG4TEbViq7bt60usgGC5kDvkGRsU0Grrd2q4XL7ZJD0DI3InQqYEYPvCF1W+sUf0Nh0L5hJ5/fNM7vLtAjNpsUjIL+F5ciDo1RIplHnEhef1rj4X7uA9CGTc1OF5CEsRTDtK81kw/LapWPhMgPhAbthBAuXAPrAIKLYZ4vk8HS8ECXsCsj1JvAIBPBDPXUaaKuJt5ullLkDsLt9quk8ILCS5Q9ijyCF0GBpU1qLI6Xyeps+RM0roePIZ3gMEhHAt72PO482D6JE3wV6IhPVQWuz8EIRtPSaDuQc5It2AcV+rSoLdArZUFKnyK5Vdm0pt0/ztG9bIPl0HR9XAYRcKjJ3HDmxSMlUh2yqoHiMSMHdiB2xeJK+2fVnZkmptSZ4Rt81se6TrcJcqaTwunCPbs+GleyR0ToT+Htm7wV5zxuvyiE7MByAByEyU3VcXb1t7qM/OVsmZq/XWTgtSx3ZdyNLpDC10UPkaqmA3WbEU+8IeUrm5TokHxlsQap9PTEfuMCLZwtLtZb01ZKDnqJGSbnlmyHE2AIi36f+DIHer9bdAlp/U34KcRn9zDjgckJ/cQv5yMkPGkOqn2bSBh4yz3Sdrij1jZ7tX+2IBeo5t59iFig4ax09XWecMx4Pu5wr8Vubvy4/vskJAZCERBdbBgpE7JhWCkLBhsOUY+WZB/kwkeM52adCFwGLAS0KyIMdSvYCcc3DebOzPb+cIX+BTAcGTpQsBUsE+ebs3lcn+7WVySJUGQgDXN6+xzQpjtHrVahMI7HBRWd++ZMgdXkg26UcY4NkiP/HCjcb7jICFJHcBsAj5XgwUxsbyPFSp421kzPEuIgSnup6BlwlvH4sVQU2yKwQPBUVrnJ4Bl7tFWgKCy+MemH/MQ4QX86OsKNf29YRIsSaobN612e2heninrguduzuU7NkeqmosMLcgzomUHKxn1iZ5UuxriVdxw9pCO58dG/EmFJkn5uD2dXLQ1qqek57vJs5J19VyTQKfK1gDA7pOkCU0HkZJfXGhVr4IFUlUN3RYeg+tIGYykPGM07vy8M4KK6Z59uh2I9pblXgXKAHB27NQ+gQZORW5Yx7l52Y4Y0RJJ/IcHQrw/LP1JIRrSZA7XaekQmDA0IWAMWbd5mamG+njt0HwnBc+w7bsRIZyHcYnXCuUmcDYkPbFWHHQgJ7vXapAR2P4n7pcbztRfanznXnej8eOiRMBrmVZSY688MgOJXc7bE9vuBVYcHLHhYOY4XVCOaIsYaks4jGdPJFWF4sW8sPec42tbt80PicgeQu1IBMJzplJzthYFab+RiYyF4/fHz4ECH2EP4sEi5M8NDZqP6aLnzwMXNEQHPavRXEFYwxMOOrYLVVyR/4RFZK0h1ks5C4A18U20Q8RDDxI5Wty74ZXOVX2R5xO6SDUyb+jgpyGyMGY4c3D/W6FG0oE+d1cV7fHYuiPVzicHGEPSfZxVmWRm2k5N5AlFAYHcxYlAvHGI4pXZD7Hj892JE8VmApYcjWptnbeijybH5wfa9XOSd/nSd1kIAMHdU20K2m7rQqJUCs9JPHU0TD8cmWzVb7ixYPgIOOmAmNLpAhisXNzqTx1eIuFrY4d3GSbyeM1whO/0CE8ZOTUnrski7g8tKfCZD1GJEAG8DdLldyxPgHrlnWIBxUOgPzEOCZ1Cxnq9JgrwMCwxRnE5WHMuNJcK4xedCKfuVGNKKJWEHU+g9ZrSxHofxxZVHrT2uWdE9esOIjoDjoi2iyHQxDmPnZos7z+9F41akst/zeYzgtO7gAXmNATcfLS4hwr+aYiEk8G3jkuZDg4SRQdhRjkjnX2DepkdcUWTuktvapD+/16IYpVwKCU+D38TpQD44Hgz0Jx6eImbIPF/4QSOlzPhGG5qNEIXTg8uZtfMBSBF4lrwTzfqteK3AdIBwI4aPsTOafDwXW/66XuHrDqWnLyrlW3Sk0z+y6P2XzAEOC9XAO8sktsys87EPysH9YDtw9aJrjrRNg2ydY357TQRGIpgDmNEWTebJUXlfUdtm/2259fld+ZkqvT9eBIDWtkJi8d+gAvEeR6m5I4EvrpV/fU4a1WIR3I2wc1P5AF04dl0+XgznIrpAiqdZcLuQsHo4/8hCNAYotVhmIoby4vsFQG0i6I8nHuOIQge9mZqeaBJ0pFD7djBzaqblwn5fpeu6buo5cMmAvMZ64tBZb07XtX5/xl1XkY/dHmOtOWMaOa++XHdtp2eDs2FJvOCZ/TrKsFJ3eAc+DCkl+FlU3iMyG41s7+KRP/seogK/SVYrHT84oJC/tHcC41JOHBVCKDWxoCR74c+TjHDmyWJw6649jBjWqVbJC9W8ostGSETid8LMrLk7uFAUOC0mYbM86Z9inbCMmpIinU8XP9G1UpRelJFAkbP4jewKi0d/dLXVOXXK1qli/VmuMa9g4OG1mYbv9bD4+lAlY0hSd44yBzP//worz12RXz0l2vcZvGUxBGf0nWRizIy8lUcrRO3nh2r/zghYPmqSPCgRcXr88MImzewe/w5G4yTIaGSDm/mWIpitfIkSXFAs8cjg1046P7N8iRnRVWZEJIlvGyNC33UUsGTGfm9W014Jn7b3582QqDMO5d/mF0IP/xVr6heo88O9I7ohkrD4zcBVilF5SQCQsPi4rFR08XPB7RXO42IKr86G1DvysSDSEQxOsJhSylMAdnyu/HlUwoBy9dgRJVxuLuoYuC34YbmrFxBCu23+jJ3cKCsWH+Mc/5DcxnCDnEnB5ahIAIOZmbfaqVGwIvY8yMjd2xtAUEO0YNY3rheqPtbEKuHooRUpmma2gpzX2PlQ3aOQQNWd/8+JK8+/k1OXnptslziARtbmibgQybYakYCN+tLyuwfDraKL38+E6riibCgRxBD5EusRhWiCd3UwMZin5D17jwa4qlMODAKdTP4kBHouuJmODNW4pyDw7DmH52rkp+/sEFa7ZN4SAtnvDWRZvzjAuV+M8+vN36dD66b6N5N7m20TjBgyd3erDogvwlFCKxeFz0gyMUWtzv7WBxTOjzVCeSUNvS2S/NOglJRIfV4t1aKuD3B5MZTwznzzgFB49Z8EzgWEldAE/uHgy4TlxLrFCEEGNH2ABFQ7uMooJsGyeUly3kaCs5BBYov9uKMJQU9vQOmcBlsVIFjUBgnOv0MQYP84TvNUUW53zx8JgvMDfJJ2LrJBQZOXTHz1bbFkpBHh2tr/BwQyKM1E2zLgBzndDrzs1rLOT6wmM7bFcJEusJ60EE0CvJJrcWz1rgd3lyNz24XERD7urFkG60Q+/PVic+aHCt6ePLOvjdl9flo68r5bzqNnYzgvNE6rgAXD9y7mnlBJeiwtuKbfT5qYbggZO7AFwoFiLeKtyx9K9iICBwuCijVYrwHBOOvQJRbrgzsfhQmOS0BUnUKxWe3D1YIHiYf5wnAhuCR67IhtJ8yxvBmHF92lwbAK7XdGCxMreZ86wLclDrmrvlll7bGlWcePIIY+Hho8IcDyFgLazkdeCxsGAek2JDg3Z6eV6pbjEFQ8jp+Nkqy6c7d63B5m1rR78RP3KtSSqPIuYnAYXPmqHlxZ5tZfLo/k3yzNGtdrCxP55yiMTdAprQ3y0m8Bs9uVtZQG7Tu5eqb3ZQoT8jhUK3VEeStoMTK9rchxfRGmfnxhKb4/RkpDMGDiwXig29MQoWDbkDKEPeg9KjcoYwJSdIOw8U1VTKj+eZ7LSSoA/QrYYOWzCQETwYAdtfaXBjN2ZVZ5W322ZF7ij4oCqXffs8uZsdGDMWKXOb30bFJL2IaNtBvikhd8LzjC9BKOZzNGMmHLzKeODRM6Kngh+Cd/Fmk5y93iBV9Z2Wv4pAgeCzfkZGJ+xzOR/v2fNIJFD8vaqkSKlpUCOD8Orpa/Xy0alKq/z76GSlEToaeFPpOqhzkrk7k0EDmKaE6EhPoSKStfPE4S3yqiq6lx7dEfJi5NraYo05j07ojxchWNpLhtx1oVP1O5WEE2mIB8gzKmGP7qkwD+tKBKSOiCKFoKTSvPnJZXnvixtG8mhtMxWpA1wnemfS6uylx3fKq0+4XZuyMujIMDOfWVTkDrAmsc4y01JkS0WhTXDizLgycdkjDKYaDEfyxiwX7/TVOsvpGNYJCUmAKLLgV1K1GsOEAEUYXFdhCwmIByh/+rg9tLtCivMzzRKbafS4NkxoPKlYfN0qkOIBlweB9tThzcuG3IXDvHk6jqwFjBgWKwnC5E+wiT3EeHjYhWtBbBlHbiGjJFCykLlGXdRUXNHoFQV7QRUJawgPIcSO71cVaH/HLQO/claGx1zAnMFIYI7Svoq8T9r3fHX5trz9+TX56fsX5Gfvn5dPlNBdVSWG12dA1zFzkzWMjIgFrBUMcyI6FCk9emCT/MErh+TvvHbU5MPm8kLzajCXl1KIjt8/G3LX3T9kDZshWoFXPlaQk0srnkf3xkfuyI1kKzeuIbo1HvA9FJaxaxKyfCWBNQJxQ+bS2uQ/vnlS/vw3p1UPt96tgp1qHdi813lAQ3R2sPnhiwflaTVmcLTwfKzzfNGRuwD8gFWqBMlZYpLT3R1rr7vP9TfixKcCr9EEEWJxrbrFGDPeK5QpneBXSogqILKDOl7ktBD+CEhDLGC8KAY4ptYeFbqxTCqbmMmrbY9gJhbCAYIZKxAC7In78J71ZonjDVhO5C4cbo678aIt0LaKIqErPQ1MabjK76WpcSxVtpG4p4DV4NFrQZ9ImkF/frZayd4t23wazypWJe59tzNG7ILDY+WCNXlNlRR5c7/46KL86S++kr9696x8rGTuCmSuvddkNXNvOmN8OjAXaS78xJEt8kevPiR//NrD8m3VIVS9Qn4coZs5krAYwXjES+5Yl+RXQbJIv+AaxANSQhi/jWX5MXl9AvBevguSgsc1HlAMweb1W5SEwwNWCpC9yO1ffXJZ/o9ffCm//PCC1DR0Ot7Cegi9LxowUnKy06zNyx+//rC88vgu2VpRbAZOvI6pRUvuAD+FyYXiYaFbGEvZLASFnS2cS3PqoUI5juiA4v7kx12parawLcoOYhBUGC5nhcbvy0pHQKwyLxh9oqbr/M1QMImwiI/qBHvmoa22tUk8YW3Gk9J0uBghdQgEm6lPheA76XXE7gLPH92mQqjQQjH0Plyu5A4w8xgv5jlrxZpz5rm0BHZYeFyJ3gYVjuxHildvdDwwbGKfs7yfNYPXjuuBsCaFgTAuY/v5+Rr59EyVnL5ab0nvhHIJ4bJeue6T1xjrJXTXY1mBy8y15oCUjaucYK4wJ06qgvhAyRthpV9+dEF+98UN+VoNBJoMN6hsRcZC6Mw7p3Nt0pSZAW7+u51fCLs+fmiz/N4LB+T3Xzokz6ks2L+tTJ/PNUMfQwRZsZRlNmMzG3JnxpeOE+t4IJSqNN0w8zfIf4jdY/s3WKoLEbF4xg4ZkJqaZPOhV3UHDoLpZA+v8J2EgJ87ulWeOLjJwuk8t1xh60UP1sAlNW7eOnHNvHQYP+TUUQEbrTA0HFwTp/9KLfxKC59DOgdotO2KJuIfP85r0ZK7APwwSp6ppCVMyFFkYcJV0qXWxHQTnNdQbJAarB5+ZENLT8irNGCT1u104b6H6TmLcVy0QBByDRAYdK/GAuDnBR48rF+IBRVlCNe8rAxzpeO+f+zARrWUndUQ75BwrelhaNtyKYlmTO079ZZz4js5UlRgZet5Wafx3essJ2TPljILxfM+SPxyJneRYJwYO8aNeQ7JQ+Eh6NnKioRxPKp4+2YSGFOBOU8CO2vCcqR0LZAjiXe3luIbFUhXbrXIZTWGrte0Woi9s3fIFAqKiLnAlXBEgPuh66InH+888VhYBNeNpcR64npC4vCut3e7vE0I21eX6+TE+Wo5rqT/Mz3YBgnyT04n+XSE/SEozkMXH5lDbkNiICvsmbq+LF8e2rNenlLy8dwj282gfGSfa9ZORSAe/HiMy8UOxipecgcYN4w/XqeZ7+qkVbaDDZ/Ha3dluSput4duro5hmfWHo09ceXFeSMfFDj432HGF1CbINUTGXW9HHt13OuMUMrJ7S6lruK/6Y21R7rK6dgFYQ6wf1g1RwVO6Nj78ulI++PqGFUqgr9hlBWNnOjB+6NeN6wrlSTVqXlGe9LTOf5wcXPu5RBlnS+5WvfaTlrvLebS/T7pvXJPOi+dCz9wDE5GF+i//yXdtkiQCCBPbf+1qnXx66pblkwWhAAacHzUdGFCECm0pKBbAMqQZInkdVmnFljQ6YXnfclJW/To+XGS8l26LK7cjCMqeBUjoNT8n03Id2ReTzdnnsjARAuR/NbVTcdUmdfqdVAYRssV7aIJDiR+WHW1Ctq0vMisTSyUA+R5/+fYZ+bNfn5TRiPAuLXPIVft3//T3Q88sbzBmtP1h9wryGasb2m1LPkImKAuavTK2jDvXdKZ1MBNcEnu6lBXnGsEkOdrtA+l6L0JAWd9Zaal2LYK+UygQdMikW/7zzG9BwHXn0kO67dYeO0KH14ceonhg8IqzHnkOot8SCvlhBNepAdzR3W/PzyYtIEBw/THUAiJAFIZEceYSBgz96faoMttSUWSJ98yh5QzWJkUK/+m3J+UX71+08Q9g3svSPPnj14/Ki4/ssIKrSBgR7xmwSmRkOcVU5FMHBrvb/Sn1rlG4XnUbW5rNZflBQPHcURjABgKkeaBPAvKCsYn+KNXrSh4xO/VACOMlk4sZJlcn1DAeH7d109TRa/L3ak2LnL/eaEYPHQy4vtOBIYFfQMCRpTs2rZHDu9ZZVTHb4iFL5wrOgGtG+s3//pPP1TircS+EsColRTLLyiV/2w7J2bAp9KzDAyV3AZjMeN+IbX95vsYmO0ouqKyNRbnBjBEo7Nd6dO96q8RiQZGbh3WEZynI7VhuE5W2MSxQxtGRLLff5XyAK8H3oCyo4EVAMbZ4oSAFCP9o8OQuOpjbjOPl6hbLc4LwQdyxFhE8ND5GabDAA0s7lvUwE1gDzBFa5KwvyzNSXpLv+vhB/oLQGQQ9TY0kFDVCDKs+MBQc2bM7dhtc+uW0vuYTRtbsDv/bP/bYnteDdULza4rJRpTIEWLHiBvW+dLVP2QysqGt17x0DaqcSNRvVeM43oKrqcB1ZD1zOV1BRPJdLz7zg31e2XXgwLa1RjyYLysJcyV34WBJD42MGlnnOgPWWlFehhLp6VtlzAWkNiHLLTSs55Ch1xiDz3aKWCbrmN/FekJ+klbEOBN6hdjSkYNUBVIT2DJyTNcX758OjApcgjA3Y1Wh15lagm8d222tTvBQJwqcypImdwFYLPRxI8b9yalKqyhyvZNwWc8w4iEwIfFU4Fbeq0TvqUNbTADhyYPkkfe3nCZugGB0FvJXhV+Rmb7Xk7vpESh65joWPNVYZ681yJUqlwvFXp0IYhQIYdw70+RbxgO7broW3K17nKbrO1/XC54+WucY4dP1hAeBvmTIAsL/kDwLy+l6svv6XBCmm4rke7h1g6xDaGMo4ckdn5iQ8fHgOVe5SqiduVDf6hpd45Fr7eyT6nqSummU6ubAPdHoyH8iwLU0cq9zAYJfmJ8pG8sLZPeWMjm4vVx2bypVgpem74P8OQK40pBIcheO4BIu5JA+iO9cCLAeWFO0fwnylG+oAc22eKQn3G7ssrUUM7/QAxlHxJDrS8Hgcw9vs23EIOOJlnuc1bIgd4CL0Ns/opZot+UyHD9TrcKs3bms9SLEElpgfC1fQa0Q8tMQTHQ6p3qTfexQUllqgbIfLIKLMIPH/MKTu9iAkCElgZCb7e4yxO4t/VJDv0EVSni16YKO5YmHBsJHCDcI5SQCKGsIGqSNvEEOHnPLeklPV2Wv5I9QBCSQBqd4yK2KXe/nqzWLB8ARPed1cA2Y74X1MMAAjwNiuJThCNo97yo77/Acj8mn4jWeJy8OGUaaQ1ffoMk1wqpUMHJNCQd19gxZMQzXF8GOdxzSz+dYMY7KSIhFomDXQK91qiqndL2+KCn2BKXSeyttrMqL7D7XlpAd8h+v73JLd4kX80XuPOYGrgtrhp2ABgZHLAUGDx2G8rWqZpOncAzIXqyOI+Y6kQvC4qQgPH5wkzy8d4NsVV6B3Ivc7D9R4MyWDbkDjDUkD0FHcvjV6larXrlVR05en/XJ46LEIuAYbkIKOXr+dIPGA1FWkmtW6K6NpUb0sEC5cAgsT/bmB57czQ4IHsI0eLBpJN0bCsc1tvfarhYk2pKn2qcEIfDssTbYyJreZYkG8ivIM7H1wq0e3AYhXAgCyi0zI8WEIeSBlIkgl49biqoA78vT9QdpYLEiICGF/M1d6qA3RgD1mGplroZI6nnFtXZ1bI18hUjZXfdFGHgeOQNR+ybEn/GxBkUMJqwU/aooLO9N5RbkjevVN+g6AeB1hazxPZbOoITdwqt6rQJyHlw7vAj2XIIJXIBgfNOUXKdwvfSWMBL5c3hoyVfGO2vFbvoc148EfNbocox4zAWe3C0OICPRKchJ1o91EVACV6WErkqvD3ISggefQHbyvlg9dRi0rA8cRJvWFcr+beVWKEgrGtYIryGr5guc5bIidwGCH0aHfsr4Sea/WdtmblW2u0FgcjFnaqUSDgQbFySoYESYEXriMXu+Qf5QNCgrLiyhCRSLx9zgyV3iAHmD6CHAOMgVwetDGI+1Qv5qd9+wdOkta4P3kzzsPEgun2u+AcmiRRGpEBAC2gOkp7q1xNoiVwVAGFhvpEsgI5P0MZWE4UYWt8wR5A7EMhrwFNJmxgpBQs/NBIaBuQjhMjIVZVgIkSJjwhPdIXw8HrKqY/dHQyFPKx4DZBZeAzwD3KdAxqpRlSDyN/Eol7kApYOHNPC6ct/y5jLV0FVlVZSbpfIuy4oiivM5sqRYH3NLhR9/4zE1PLl7MMDQuivXMJJ0rbFFHikLbF3K0cxte4806W1X75C9L1bAETBYMUJZG/Sn27lpjXU5oLAF44e1sRB2DlJiWZK7cLCQetUSptXDxZt48TqkprHdqkW5eIRsnTcvvnJ+9jfEQqXNC+0pjOzpBSXRnLAT4ScqDa1MXBVPEELy3r344Mnd/AGiALFo6+63iubWjj5H9NQAopKa0B9WKx4kCm/w6CEgISYQjjsqPGKpTp9vICzxslu6hMoY8rnc86tsDWKUTRW+zVBCiAceUhgr+LmWBhJWbR4J5ipEjjAqRA8wVpA1nkPwPmhA4sxzabKJsLe7z1jk52bYuOCBC8LmhFzZRQVDFtJRorIOQu0RHzy5m38gk1hvGFZmnOp9IncuhWHQmuu3q4HLVnlwAYrRmtr6pE/XdDwIDCGcORiea0tyrfPGtg0lsndLqRVKkMe/0EAiLXtyFyD4sXgs6Jt2sbLZ+nlZ6b8qNlfy70K2FmqJEygPPHj0bKKCcGOoPxmWLIISAUmlGJ4ClE5woIe49YgOT+4WFsz90dEJ21MSgYdRRE8zWi8QwoUMQmo48CzhUYL08XcsG4SqO1hz7tbjwQHRYrKG/4L7emtVe6qQyCHOz0k3kgYJRl4VqKwqV4LBHsgUx5SX5CiRy36g8ns5wZO7xCKQN04GufsYXXQMsEgExqnKqub2HuvZiUy73aRkTh+zLV4042w6OL1NmoLrIUvDZkjdlopiK8bcv22tbFIO8CA92PyiFUPuAnAhsaS52OQf0aT14s1GawtA77yO7kHLe5mNZR1Yvy43Jdk1oi2mj1N+iOzlG4vPyVRBqkIUTwMtAnDjYjF73A9P7hYegaDEmx3kiJGL56zeIROKhDBau0jiV9KnApQ1Q0gRbxVhRUjfsJLEsfH5yQHzmBlECSALyF3yGLkllA2JM/mjB/Jo/dp862lJWBVvHOQOGWaePZNpKDPXDspj7vDkLnFgLB2RczshudzUUfPOoc9vN3dLrZI5WkSxK4+lRITkGn8LGYwHrAVyhskFpsE2+ab7lMwd3LHOCB1ripQR1s+DxIokdwG4sIRWCJHQ742+T+Tm4c0jkZJ8JA5ruqukIt5JALu3LXWU2QdJ5AhVPHj0AyNXhRAuArUoFMJlVwbew3upouFY6tWAc4Und4sDzH9CHOSssG5QSFaAodeEyjI8e1jIVsFJLl//kK4digXw9kH0xo34YVhxy99ZIvOo60npER8gWsgGyAB9szAmAzmDRw5PnJE5NSQtpJqbJbk56SZrkD3IG4pY0pLJp1PjUm/JO/S5wvMPT+7iB0TFUh3UgERnQ+aQK4ODoyZr2pS80VSYW+SPa+o+IuzniowJZFW8ssbWma4HdDOV/ehrvHR00aCDBn0aIXp4vFlHQUrIg8aKJnfhwEvBRMEr0d7dbx3aicPTPoKQVJB4jmWAYoqX6AVwlrSroiHXBwHMXn+QFAQw1nNBfqa1hMB6vlcpuNrejwDH1UtyM59jSeDL3Jz25G7xA6GJ0A0Eqd2H/Cl5Q8By0N2eNcTr5PC5di30j3LVoFSCuoRn174DwcRjFF9gaQfPL2ewnq09gsqKJL0f5PNA5CgegXghAyB0EAHzwunBWgiaBPOYnF8rOFFZgdJB9hJC4tYKT/T+YlFEKw2e3N2PgIxQ5MA6H1E5wLjQHBi54gid21UFQ5LcYHLmLR9YZYu9HrpF/pjcmKWsYA2m6foiZSEPg0j1MukJ7GgVFFOWFGSZcybYImyxrSRP7qIARQKBI5kckkc+Hnl5xOoDjx6TzCaRvo+JOFuyF8AsAxXoVAYioINeeghqqgaxGijeoFoNwU3iZnamC7EgDBD4dqjQ5xZFYEUceouSsF029FgqojyYmORAQu5+8t45+cu3znhytwQBWYPoQeZYN+Tn2bZF+pz15AuROtYV15f3EeJFqNOQlzw/nqdql9dGVNAHXkTmSJDrFxDDYCnyHpQonkJup1qhtB/hPcHfxQoMNUgWoctoC4scN/b+DHa4CQChYp2GE6vUZF3Dul4Bz1O4gEwgvAMRs51y9D14/SFrGITIAda+kTclfUbgVIZk6cFj5AjGIOfpsbgwHbmDzEMkfv+lg/Ls0W0W9kOOI9OpCGc+LTWDnvUfFCw677/L0b1rxOnBfXZUwQBEt1pLIDX8uN+tJI5WTgO6/nlsOb8qF3iP5fzG0fUiGhhP1hpV+uhh9ApFkWXFOVYcsaG0wLx1EDqXVpVu71/MYDQ8uZsB1jdPiR7VhA0tPVaQQaNkNguG+OH+ZVsfJiwHkzde1+9UQHEQ1mXC4cUjxIKwh/TxHOQO4kc+TVY6pNDdZ5x5zG1KimsZ4Sx1V60brpCC5yLlRdKq4PnZCxJU6jc6Fpa/Fb749K49F3rNngp7zG3gfodUv/fFdXnn82s2vuHw5G75gBwZ8vogcFx3rjUCn7QIyBf32f6HUC6KAkHPHAmKoLgfnivLPEJp8ln2ntA8iwTew77B0biUAyuCXm+OdEVvbQChY80ZCdP3BICEYbhBzIK/w1jjfTxkzbHWSdamgbMRNn2N72Hd85mQO9a2J25LE8zXqcgdxjkFeE8c3mK7F0DuzNOq8wXZztxBZgeeXW6BGRN6P6oshxjqMReYfA7J5nBTiWVjclsPJ/HdY4yt4G142dCj5jhR4wzvG+sUImcpG7qW6TFH7hzRMdYkBqB54vT13r5QY24+MwFApwXGE+uKtQRPoX3JuuI8qSjLt3w6yN1afUwXDNbgUgJD78ldHGCCj6qVgCePRE0SyyF4Vkbd0Sstep/ETawJm+o2Qjrh745U4oGygOCx6EmShvQZuaNQQ616Ji9KyHJy9HmUBfvIBooBguSUx+TFz99DCrEkZ6tCCKVZHy9dqOH9glj8uNrNgxN6nsVvnhkVdCjjgNxR7VRjTSU77lPQntytTCC0BnR+IPADz1zg8QvI3QRrVecec2xacqfEjr8LGg3HApQnoVI86clqPEUqU0ABAjlwQQ+9ANYvTtcbXoLg74zc6VqL9jkeyw/M16nIHcQjVedUUX625Wbbri0qs/HGBl4liD/GAfeZYwDy5oz/+4vzmKfkWM5lerHDieW46XqaYLGElpOlVAxjRLH2eJKWI25NBVsdkgeHccZ7kes9/UN238idvpfn+pXczScYV9ZX4DBhPCh2JOzNQajVNeKmlUmerlEXbl2q4Ep4chcnIHjOtezcyVgWLZ19of0b+43s4d1r7+m3fmHc71GCEul1ShSYtEFVm93X+Rg8Fz6huQ9R4xpA8kLc7i4hDMJCAfD84SGAHNqHzAIsbpdIPyoj4+HkTsmcPh9O+sixwILjeYQfyhivH0qaUF608fPkbmXCVEhojgRPmFeBx6Hn7D2h56ezruzv9LPiRbDG0JhTrQ63HnXthR6Du8+FrSke22d5rAhMR+4Ac4PwPOSCWx7bvOHQxwByl5Xh8igBaTcYCBBByF84ICq5SvD0Q0LPxA+MKOTzwAjVpra67HkIHd64Qcgdz+t6wtDC6xasKzxuwTJ0HkD3+K6c57nQexMNxi9TSe+aghxr7bOmMMsVNBZAnnPMK0eRBGTPclrx5iUl3R3npQpG05O7OYKJy+LkgMg4b9OQdfuH7BnRo4Knd9BCuEHfHSwd6w82T5M6GhAOCAynXNxz5rLnuYiFb4IlyvPxIFi0jFH47+SetdlQwcBCB/Y+HiMI7JmZ4cmdh4fHUgOybjpyFwuQ4QH5cwjttazEjv/CEeRjzwXIcuQ4hMHkc0hIE4hFbrvn3ZPsZjOhxniscjxRYEzgG7lZruk2B57PolCuHKSOBtyF+jxOjaDC3PLWldQtJwOLsffkLsHAeiEZPLznF5WC5BTREZv8A9zUuKbJJ8J9jUsaDyDuabxZeKkWkvQtVXhy5+HhsdSQCHK3UhF4NYk+WfFhustDt3xE1Qe2Q1QuW+OFejbmZlohEh5Ne5/+HYQOYryc4cndAgGLB6KHVw8Sxy2uayp+bLsnJX149gjfWlNYJXuuJJyKwXv9xBACePtWMu3DOnNJ7G7f0If3rJd/8z98P/Sqh4eHx+IG5I5+qpC7dz67ZnI98Ip5oz5E4JR8katKSxI8a8h8QtAQM9qCEUZlKzxa/kDguHUdJUgzchXm5KLDOcJzXlcKPLl7gMDNDWnDs+caMrrqPzx39O6xfT31Fm8fYVyIIB22u/V58tBo4RDkC9mB2zzkGg+eW27Aa04yLAnCLHYKQQ7vXCf/y3/3WugdHh4eHosbyObrta3yp29+Lacv15kesP6QqgvoDQksdUb/czlqy0eWB543yyHUWztC911VL7nhrjIYjxv5cLQlyc92DYSL8jOtZRgeu+ysoIDQFZLgleNzPDy5WxRw6zaUraD/cMuWTVSTDo44Lx+9vYJ8vqDJY01zpxFC20Vj0G25wnYrFHqQ22el43pxlxvIjcCSQwhQ0Xt0z3r5V3/yvdCrHh4eHosbpO5cuNEo//zPP5br1S1WoIexTnQGmQ1BgbjQ/xDCh9xfDgiM85KCHElPc619qBTP1d/K/ZLCHGvez2O8b9bTMeR9434QgsWwt/w497+DPva07h7gEZ7cLUIE1lq4V84ltOqtHrjw8eZB5CB1QeiWpo+8F2IXhHIJA5PvB/AM0gAS0qhvs4tPf6Eh/QyqocJB48iBUIPZ2QIhRdJqUKIfDusTRrsVfY33sVZ5zGIP3OgkwFKUcuZqvVyparaxsDVtC5mwbKrNrX/7P/7Q3u/h4eGx2IFMPXOtQf6ff/q+krtWI3cIZP5DtpEfRo+7R/dvNLJDNSoyHtlNCJcDuW5NwVXGA7b6YxtAUnnQFQEobiDNh+rV8OfjBWFSa+OT6Vr7IIfBqtWunyPnaW2z9HlkPo1+kc9OTkPe0ux9FHdQzEBjZra/I8zKwWu2z7pyBAgg7ws8etwGff2crvA0biZ4crdEwRplUQeELyCAE0rQeA3hwS1CY2TUNYgE93rJjdnFv6ML35pIhnI+woGgwHvIZ88WLEIWvC1eXcjhYPE6i8y50lmuCDVasPAaoJnn9do2efPjS/L+F9edEAwDYdmHdq+Xf/FPvmfJtfcqxzw8PDwWJ5C1p9Vg/X/8H+8ZuQuPsBCaxGv38uM75PvPH5RN5QUm95D3yG52ayHvOtjmL/hbXiOqY7s1mHR3QD8MqZGOB3AuQEaz5R0hUJPPAblDxivZYxsuoio8zWPy4pDvgVy3tlpG/la5nZP0BRp9G3nj4HkInd2P3jvSI3YwAzy5W8aA4NFqBJc/cATQ5epx9SGH40YMHRkMB+9DMNz3Qpxwi9ct2nDcy7Pgeawx916Em7ncFZTvX6tpkb9856z87L3zd63UAHgD928vl//7f/uqVKzJExrLenh4eCxmmNK9VCv/4795yxrihxvQeMjINXvj2X3yB68ckm0Vxaaog4gNstuMeTsgcg6BvEamh0tsxPcde22yYRwvIGUc1molJJ+BSW99DDFz73GPkevIcmByHeIW9nce8wvmQILIXW+I3J23x1xYFDMXGXJHXtT/+7//jnlpPDziQVVDp5K7M/Lnvzl1H7ljPu3evEb+yd97XvZvXXtf6NfDw8NjsYHQ6cenbsn/5f/zC0ufCQckiXYev/fCQfnBC/tlc3lh6BUPj9gRkLuvLt2WP/3Fl/K13lqkT5/DE+zI3doQudvs/iiEyU1i7ozrMRZ6IJKqSrdQJ2hZSZ6sKcqxUmWj9B4eccI8fzp3os0eLNf+4VEjgGws7+Hh4bHYQQi1s2/wPmIHcIgg89gT3Hu6PBKB3OwMKS3OtWbO7NbBHDOXrkXs7vro7mISuRsfGbMjwIjep4VHc1u33ZL4aR/m4ZFAEJoYHBqT202dlofi4eHhsdjR3jOgMqsr9Ggy0LsUJORmpknkft8eHjEDL92dO1Ld2CG1TR3KxXqkvbNfBgYppvxGed0dmRgdkztRnCKTZx3ETRVtAJQum3WPjOqhRI/DUzuPRIN5RhXYrbqOqFawh4eHx2IDHQCINkTHKlcZGsph8/CYNZR0USxJdXXQPYNol3tNXwyOCESQu9BtGNzfwR6J80Z5g4fHHEFyMRO3Sa2S+tYeq/z18PDwWMxgv3E8KtPB8zqPRAAOht/NvHV2G3rBwIP7udlkcsdMnGI28qEkkPb0D9/XysLDY66gPx9Nm6/VtEp333DoWQ8PD4/FB3rONagh2tzWG3rGw2N+APeCd+EAiQeTyN3q5GRZpUc04LVjB4Waxs64v8TDYyYQmiWPAHJHY2cPDw+PxYqqhg65VdduMsvDY76AP46oaW1jl21deh/MIQeNu98pN5ncpaZKUmpa6NFkEOMlXNbQ1mMePA+PRMLInc6vm7eV3PUO2mMPDw+PxQZCYudvNsn1mrbQMx4e8wSda0RKm9t7LS89Euwssjop2Y5ITA7LTgOa5LJDQmVdh22j4uGRaEDo2jsH5PKtZqlr7Q496+Hh4bF4gB68eKNRqhumz7fz8Jgr2I3qxu1289rdLaKIxBR5nTGTO5rm8QU3CJv1Dvm8O495AXPr3PUGNSLa/Rzz8PBYVCD/6ctLNVZI4dOTPOYTzLWBoVE5cb7a9pvHY3wfVlGVrTQutItIOGImd3yRq2jsldstXZZ/5+GRaAyNjEpVfYdcq26Vls6+0LMeHh4eDxZEFtB7n5y5ZcUUHh7zCeYbhRRfXaqVfiV5U8L28J0h524m0LKiu39Irla1WBk4hM/DI5FgQnd0D8jV6hYjeN575+Hh8aCBpmOD/yuq+y5cb7QIg4fHfGJQ51ttc5fcrG2TkVmkwsVH7mCSfUNy6VaT1Lf0yIhvOOsxD8A6vqET+tyNBun0xRUeHh4PGKQltXb1y68+uSStHX322MNjvoDfjMjVFxdqpLdv2HapiBdxkTs8daOj41LX1KXKt1VadJJ7eCQaCE62u7two0m+vFgrw2Pj0fMNPDw8PBYA5JtfuNkoH3x5w0JlPmrlMZ9gj3Xazh0/XWUR09kgLnIH+Jr27kGd6E3WkwxXtYdHojE4NGqTm3yDWjUmqBry8PDwWGgMDo/J5apmefuzq9a82EcSPOYb6L6Tl+ukvrlr1oZE3OQO0O+OBo7nbzRITVPnrJmlh8dUINeuq2dQLuK9u1BjLuqxcR8K8fDwWDggc2hYTAThUmWzySXvtfOYT/QODMvpq/UWkmVP2dliVuSOsFlzR595785eawj1YPET3iOxGB4dU8ulWz4/Vy1XbrX45sYeHh4LBkhcqxqVp67UydeXbktHz0BUYhetUtHDYzYYG58wLzHGRFXd3PoozorcgcGhEf3ydnMdXq9ts/Cst2g8ZgvE4+rVk4UkRG5A59mVW0z2GrlV325eYz/LPDw85hPoMtpP4MD4ShUtkarxKJGDpKTVkpGeMtWW7B4eMYNtxohQfXzylkWs5tpHcdbkDh7X3TckF0ky/fqG9f0ZGfXVsx7xA8G4GiGZlnofwWPCt3b2yxfna+QrtZ5vt/T4SjUPD495BeFXdmP66FSlXFKCx9ZPkc6L1Sq4MtNTpaw4V+/PWpV6eFhq29DwmHx2ttqaFjcqn5qrs2xOMxIXYmtHv+VEfXZOT6i9x57z8IgHSatXS0Fuhjy0p0IJXkro2cnAeCA8+9nZKmvDA+nz8PDwSDTIc6pq6JS3Pr8i569P3Y4pLydDtm0olm3riyUpybvuPGaP/oER+eJirbz5yWXVb91K9ubuwJgTuYNYkhd1u6lbPjl9S05drpPGtl6f+O4RF1KSk6SsKEe+/eRuE5SZ6fcTvNGxcamu7zAPHpZNe9eA9+B5eHgkFBA7KhXf++q6fKmyhg3bR6P0cyUUu3/7Wnnmoa2Sm53m8+48Zg0ioGfViPjVxxfl1u02q86eo9POMGdfssuLGpWrVc3yyZkqOXW1Xpp0QfidBTxiBaHY/OwMeXjPejl2eLNUlOYb4QsHk502BPRXxEv81eXb1lTUe4o9PDwSAfLGIXYnlNR9euqW1DV3Rc0lJ89uqxqhTx7eIod3rpPkZB+S9Zgd8Aqfv9ko7399Q84qd6KHYjSnRXpaiiTrvIsHMb8byyQ1JUmtlHSb3OFg8rMdy9lr9fLJqUor4yVPypWNh97k4TEF3NxKlrUlufKUCsxDuypkTWF2lPy7O9JJexQWg1rWWDue4Hl4eMwVeOxuK5mjcOtj1WHXa1plYGgsaji2rDhHjh3aLI/s3WByysNjNoDIXaxskg+/rpQT52qkvXvgPqcYDmEcHetK8yQnKz30bGyImdzBGvNzM2TftjLJ1S8hmTQcELw2JXQnL982xUv5eFffkJ7shK9u9JgRELw0JXi7N5XK00e2yIEd5TqZCXeE3hCC5XnqPPvqQq28c+KanL/RKB1K+GazPYuHh8fKBroJhdrQ1mMeuw++uikXVKYQjbqvgEKNzayMVCN2zx3dJlvWFYVe8fCIHcwrPMIQu/e/vGF55A0t3VE9dslJSbJGjYkju9dLSZyGRMzkDq9dRUm+fOfpveaSJucgEpw0m75D8EgMPH2lXrrpgRflpD08oiE7M1WO7KqQZx/eLnu3lqtAnRyeBSwCPHhfqLXz9udX5cy1etvz2MPDwyMeIEtoP0HE6XdfXJeLocrYaKAy9tH9G+UN1YG7Nq2R9LTk0CseHrFjdHzCWuz85vgVKxKkMjZaGhuOjbzsdPn+CwdUJ66TfL0fD2Imd1Q05uiHo3hfenyH7LDJfT/Bw43NRreEzn76/rnQ7gIuROvhMRPw4OXnZMihHeXyss6zQ7vKo+YaYEjQyZs8hXc+vyafnq02j160MIqHh4dHJOgjVtfSJe+euCbvfXlDbloy+2jo1cnIzkyTfdvWyo9ePiw7N66JWvTl4TETelRnnbxSJ7/48KKcunQ7lL4WPa2otChXXn5il3z72C4pzMuS1crB4kHs7yb2q0q2pCBbHj+wSZ57eJvs3lIaleBB5PCk4N7+rbLTj09XSnVDh98f1CMmkGOwtjhHHtpdIS8+4gyJaC1SsLo7ugetXQEC+ncqoJva+6JWt3l4eHgEIOx6Q8kcpC4gdn390feNpeXJwZ3l8tpTe+SQ3lreeZyK1mNlg3lFoSm5db/+5LJ8fanWdvnCwIiI/hvWlxXIc49sk28/sVvWrcmzyGm8iG+Grlolqap4N60tlCcPbbEycEK0kYnvAIJHkQWhWdzdNIO8VtMaqj4KvcnDIwpwR2M0rC/Nl8cPbpLnH9lu84x8l0gEOXjnrjmCRzI0+x1Hy5nx8PBY2aBZLKlCbPH00clKef+rG3K1usW20IyWtwuRO7B9rbz02E554tBmKczNjLtq0WNlA2dDbXOXfB5KI6KdF0TPEbv7ddT6snx5+qEt8srju2Tf1jLLRV9lezjFh/hnqX4HXhT6kVHZCMGr0JNBGUf2+uHE2Q80ULyQvMu3mi2c5sO0HtPBur8rmSNp+YVHd8hTR7bIZr0fzYMHwWPfx0uVjfKrTy7Jhyq0b9a1S1+UrvIeHh4rEzQ+x+Fwwartb1rxxNWqFmsgG+mxQ5VhTO7dtlZefGyHFXmtW5Mb1ZHh4RENGBIDw6O2bSaGxNufX5GvLtVKixK7MSV8kboJ/kTRxNPKqSB2pCaRDjBbzMoEYeKjZLdvKJFvPbFLvvfsfutNlpaqDDPK3CdB9VpVq/z20yvyn3590lpYQPrGfQsLj2kAwWOe7dB59vLjO23SbyovjGo5I5z7B0dtq6CfvndO3vrsqlyrpp0BHrzQmzw8PFYcWP44E3Aq0If1Vx9dkve+uG6hWLZ8ikTQmol0kNef3mMODEJjPhTrESsCfXS9tlV+/uFF+cWHF2yTh85uOjvcr5CCSuwXVc+9/vReOThHYgdmPVsDgrdZlS0VtK8/s9c8KyyKaBgdH5fm9j4rN/9f/+q4vHXimtS1Ri//9fAIwDwjFWBbRbG8pBY0xTxbKqK3IMASGtN5Rln5W8cvy39UQ+L9r29arqcneB4eKxM4EdA9RI7+TGUCTdDZeWJsihxwOkHs3lImf/itI3Ls4GYpLczxxM4jZuCxo//qp2dvyX/42ZfyO+U6VfUdoZ0noiuigtxMeeO5ffKD5w/ITnLME1CwM6cZi+LFW1denCsvPrrDto/as7XMSsYjwW+iKgQX+I3aNvn5++fl//fLr+WDk5XSPxS9QsnDAzDPaDuA1+7Zo9vljWf3yb7ta20B8Fo4mGdsf8f2ZGeu1slPfndO/v3Pv5Ta5k5faOHhscKA5/7irSb5yfvn5K/fPWth2B6iRlP0XyXHDq/Jj14+JI/s2yAlBVnWa8zDIxYQpTxztV7+5r1z8hdvnbH7bUr00D3RiB0bQmxcV2jc6buq17boffhTZB/h2WDO5ggnAcHbuLZAnn/YVXcc3l1hiyQaSFod1AVXebvd9qP9iQ7CX6sCvlLd4qtpPaYEoRLc1kz+Z45uk997fr8RPOZZZK4nsIKenkHL8Xzr+BX5z785ZSXo7OPn4eGxvMH6r2vplg9P3pSfvn9B3vvyuu060RfK947mQCktyrFOEK8/s0+eOLhJSguzJTU5eqqRh0cASBvcha3r3tV59tP3z1uNweXKJks/m47Y0XHktSf3yKt60GInOyNNkhKU15m040d/8s9C92VidFSGO9plqLU59Mw9QODWrcmXbx3bdd++n0x+3Nb5OelSlJclWZmptoB6B0Ys2T3aDyMci1XV0tFn277AeIlTU/Kbrt/lK5KWF6hQu6STnfY4kTkHhPIrdG4R2p8OkLj/P3v/AaVXkuX3gQGkz4RJeO9RQFmU7XLdXW2ne3p6enq8uBKNtHuWInnO0mhH2uXy8OyslkdHpCRSWq7IGS4lcmbO2J7pMe1tdVWX91Xw3nsgkZlAIhN+7+9/I973vi+/dEAmkAnEH3gZETduxHvfey8i/u+Ga7LKdlZHS1g8b5a9k01h4NIVvUf1Zh4R5P3jPTx4/Jx9VFzSe8m7PJtdVvLg6IyMuwp0ifVfuqoJVS+/u1ddsW9tORSOn+71tijqlUE9sGTB7PDsplUa2wvBWzRvhix2wxE76hcab/YGZUx5eYgRDbesgBuXalLYzFscP5UxOUEv0Vl7B9ht4if2vv3wjd3h/R1Hw4nTPUMOB6IdYzwdk3W+aHyK1SA2rFoQ2lua6rZJtGtHTvVo168j9sFSxjR7R5tmzAytc+eFltmdUeoYF3IHEsHjhV5qBYWvIBgrpI2G99q1wb8yNb495wf0VUW/NLPROVc66lllMqYexoPcAV4HiD+FgzGemLD7L18JvRf6jehdVeVeCz4aiNt/tCvst68rKv95nR32fjWERnuXx8MEnpGRcWdBW8JsWAaxf+PlrVp2Ysf+k7LW1c6GBbQttDEL587Uuq0/94kHwpMPrAjzO9utkR3ZuJDJ3b0LTZjovyzr8FtbD2vSBFuJHbT2Bc5Tb9IEoO1ifB0LYv+1Lz4ePv3Ueq1pp+VOhmiH7ji5S9AMx9YmLUL74NrF4ar9SPaYPd/nVpN64OKvGgOmb/rd7Yc1Jm+aMdh1y+dr4WRa9Nz8Tm2MF7lLUMXc1BBWLJpjlfGMcMXeLb7OWUdxKFD5UhmzrhUV8rw5MzRYmnzyR0RGxtQFbQsLmP/knb3ht//0tfDT9/ZqgXPalaHQ0mL1zuLO8Euf2RR+8TMPhwfWLLKPxuZR1wWZ3N2bgK+wxAnbrP7h994Pf/jd98JOVmYQqRv6feO9mm9tzqc/ti78l7/6vBbpZ91EumGHe+MmDbkDXCgXzBgp1sNbYA0ohe9Md5+seEOBwkLD32UFhmUs3rIfwyzbeXYDhjJZZkwNjDe5S2hsmKZBz4zFY42gQ3S/WsEb6stJ75i9i932hf/+jiOy5M3oaA1zZ7drVm5GRsbUwoX+K+EnRuZ+9xtvhz//0UdaIHaocU4JM63MP3Lf0vBrX3gsfPkTD4Ql8xnmMbaeIrLP5O7eAb1C5y9eFsn6D3/5Vvi6vWtss8ok0fKzrwcmBG7asCz8yuc3aUYsq4ywNvBoeo0mFbkDFBK6adtbmtX4Lpo/U2SvyxpV7VJhje9QRQ8iyKQLLHkHjnaFnYdOh67zF9WFlgYcZkvL1MJEkTveA95HumkZCkA+WIuZds54vHrdtIh4xzCfs7sFA2HP9ly0fKxC7mjTe5vfr4yMyQnKLw0ei5Szbt0ff//98L1Xd2jT/7PdfUM2tJRo6gq6wT755Fot4cXEiYX2UYh8rGWe68jk7u4G7xlDyo6f7Q1vbD6o/fJZr/fDXUe1fRjrJA73EQFXodv/hSfXa/06Nn5Ytmj2mD4kJh25S+AHMC6KMU6LrfFlwgUDVSF4l69eqzsWAvCD+PqisPLDjp3uDSetIdZsR7snXA+WPP3LDfGkx0SRuwTGMlCBstgopm7e0YHLVzXZot54T0CZxMrHpB7WvTp1rk+TL5qbGzQGgjx5tfL7lZFx50Epdqv7RW1lyVaD335lW3jl/f3hwNGzKuv1QOlN43TvX7NI4+tYuuuJ+5dpr/SbHXNL/ZHJ3d0HETpro+g1hHe8tfVQ+PFb7GiyK7z+4cGw78gZvWtDcRfaC9qfTmuHHlq3OHzumY1ao/WJ+5fLAMG7OBZMWnKXwCzY+XM6woZVC0X0IGZXr1/XNhxYUYZjv5C800bs9lkBxsrSY0QBcnjJ5JTLxmjJw58b4smJiSZ3gGfPTGt2S6HSxuwtKzDdtOYOURbtenwsHu/WfnvHBi77h0cqpFTU+d3KyLgzwPpOOaZBZdY7jRyzYL/96nZtbTlcQ0s709rcJOvJoxuXaXbi556+TwvF3irhyuTu7gHPMr1nTMBhosTWvSe14PW3frotvPTO3rD7YP0dTRJoHuj14SMC6/ATD67Q+nVffG6jdlma2dFyU23IpCd3gB8GyVu9ZI7G4jHuganEdJ8NFGvcDdECGyCCWPK46R/sPqouNWZI8eVFKmY4ce+w5ulvbosnDW4HuUvAFM4aVevsHWMsTe/FgXDp0lV9JEDkKMj1wOBrKmu6d/YctnJgJI9ra7Z3n68t3jO9X/nFysiYcNCo+cfZlXDq3HlZ65gB+xc/3hze+Oigxs0OBYooZbYjNrTPblod/pMvPhY+8+Q6Eb2xWk/qgXokk7upDQgdHwYYirov9IeTXefDlr0nwvff2BX+4LvvhR+Ze/jEOfUCDQXeNT4iaCs6Z7aF+9csDJ975r7wS5/dFJ5/dFXonNF2S+/blCB3ZfCy329fTw+uZYZSiyZbXLeGl8I81FdYAvF9Fy+HfdYAv7v9SPhIYy0uatYjzJkbTUOsbtvcEE8K3E5yl8AXO920H3toZWhpaVKX/sX+K9GKN/Q7xvV19VzUlxr7T3afH9DQAid5Dfm9ysiYYFA+sZKwjdNHe46Fr/3oo/A7f/W29uf0tmL4NoLx2fPmdKgr7Bc+80j4lc9tCvetnK+6ZryQyd3UBlyDJbJoFw4c7wovvbc3/P533gtf+/6H4V0jUud6hh6/meAfET4XgLF0dPczSQd32YLZInW32lRMOXJH4wgRY8HjVUvmhqceXKHuWmYS0yWGFWWkG0sFgDVGD+dYV3h/57Gw+/BpzbYlD24KVcD0aXaDc4N8R3EnyB2Pe7oVLvZAXrW409fFs0oWKzENB4WbCroekGMV9oJ/Lmzdd1ITfHgn+XDAOkgFDtHLyMi4dVDmKF9MlDhqjdkbmw+Ev/rJ1vDNl7aq3qBe10LEQ5RZAKnDenLf6oXhy598UHWK2pZZ7eNirSuD68jkbupA75cRDJYxwep74Ng5jaf71qvbw9d/+FF4/cMDYf+RLr1/7Ec83HsGl4AHMa6OHqJPfWx9+NXPPxY+/eT6sHb53NDR2jJubcOUI3cJMp0b62WtssXzZ+ocFE4aZgheeiBD3Wjk6DGuisJ/8uwFjcvYe/hMOHS8O3RZ43zlynWN74M4JlJJ/hm3D3eC3AEeM4WMmdp8PCxfOFuz46h8L9t7c/3aDb0bFKBaIGLYAFZihgMcO9OrsRhsQn4+Dt4WwbOXybts80uVkTFWUL/zsUX9zW5FLArLdmEvv7MvfGj1BQ3acOPqAG3S7BltMhQ8s2ll+PILD4bnN60O65fPN/nE7EZD/ZDJ3eQG9TproPL+0BtD/c079dK7+8KLb+8OrxmhYxgOiw/TQ3NZu0oM/Z5RxTO0bO6strB62dzwsYdXhp95bmP4zFPrtE4iK4PQYzSebcGUJXeA+4AlBFLHGCmWTeEmsZIzhSTda+xww3WnUfipJNg0nlku3IhjdlMOneiWeb/nQn+xTRWN9vUb1+3clbFUGROHO0XuymAG7Hxmbds7hsuCkhRCKmWuiaMuybMDK1+PfSgw/f3Y6R6tpYUlry9aAPXhYHq8x6NZ3T4j414G5Yxyw4cTk+XYLowhNq9+sF+zX+l+pTdmqN0lgJe36RqoTtvEhv8vPLlO1pOPPbgiLlA+ft2wtaCqyORucoFnwscC7Tw7SLCBAhxgx8FTIkdY5xiv+daWgxq7f/RkjzZYqG2TasHzbG9tEidZsagzPPXQyvDJJ9aGT9hB1z976zOZb2I+IqYwuSuDvGl4WZR2LV9dM1vVn82YKUiYutJMjx/MgxwKFLQLVnFA8tiChj51TP1MwmBNs7M9fbL28UzJiwqEfzwaGvxM9sYXk4HcAZ5tR2uzdrZgzCcDrnm3edxO8pKVuP7LxfvXa7/lqBWyvUfOaFV8LA40QmmGbfpqy9a8jIwKKFGMq6bhpUGlLt558HR4z0jdK+/v09ImNL6QOtXNwzS4NLbshMS4OnZCeu6x1Rrn9MIT6zQzkTJN+ZtIUE9kcnfnwXuCsYa9XHlv2IIOCx3r427dc0JrIb5mHw0vvbtXa9VpxQ0jfXS9jgT4CMN6WMKNYT08z+ceXaN37ePmrjMZ47EnEncNuQMUSQYpYsnbuGqBzJ0MjKch5ktNX31XYp+4HUNXARWwYC03ZuveE+G9HUfCzgOntTAhfe801vTDa6saO7m6bWM6kBvoW8dkIXcJfGHxpcX4CMZM+PI8biXGNE9FjX+od4s4Gim+Cnmndh86o5lWzOy7fMW7eZvsd3Ee/tlLVPVOZWTcK1A5sj80pr2Mp7MP7m37Tmq803de265lTVjSxFc/qBCkeoCwMa5utrUNa1fMs4Z2teqNLz53v9qJiW5oy+B3ZXJ3+8G7xL2H1PGxzbJo9KLQvu+xD26eB9bfH7y+S+vTQeiYHAehG+6DIYH2nh4YOMjCeTON1M0NTzywPHzOCN3Pv/Bg+OzH1mv/fDjR7cBdRe7KoDD7XrWz9EW2wcge6+UxhqqpqUGNLw+4XLCGAy8FJI618g5pEsZR9cHTLaCFks/6QslUQgy8R5+Cmsfp3RomG7lL4P3iXVphHw+swcg7zvvG8+a9YgD3SCZ7KgzGdBw+0R227T2pd+mUEb0L/ZfCRe2ScV3jMMZ7QHdGxmQHC4hfvHRZ41Wx0jELkbFO3311u/Z/ZVC7tm9iXMMI4OOLuv8+K6fPbloVfu4TD4Zf//yjsqjMsDJ8uz/CaRsyubu9gOgw4eG0NjfoVl370a7j4fWPDoQf2Xv1gzd32Xu1L2zZfVxjo+n2v3ZtZAtdQiO7FNlzY61UljT59NPrw89+/AFZ6h7bsDTMnd2htuF24q4ld4AGOJlH6fNeubgzrF85X4QAiwtLqTDIkSaYSmIkck50Ycq97LsYMGCefUm3WyHdceCk1jljcC87FzCG79z5i7L+0fUGeMAT0b9+t2KykjvAc+T9oQJmDSy+1PgyY4A210bhYlb2cF99jAXlo4Gp9YzzgOjtOXQ67D3aFU7ZBwPvDpUSenwRUvlni3DG3QjKSU/fgIYs7D16Vh/PdLtiRWEAOx9AjFll2IzPShy6XFFG2OCflf3ZXeL5x9ZoAPunnlgfHli9UO2BLzdx+8sSl53J3cQCqxz16YmzvWqf9xw6o/eJSTd0tb5sHwi8W7QtdLee7urzITLFmqZDv1sJ8Av2F1+6YFbYYO/Ukw+u0NjNLzy7MTz90Mqwdvm8MG92uz7Q70Sbf7PkbtqXv3ay+PWXL5wP3bt2hK7NH0RJBbyoTz+8Kvyr3/iqSNadBv3r9K1jjmUsHQ9275Gz5u+OZKxfrP3KVbe+jQUQWbqAZ3VwtGq21VwjkSyMSyWzcM4MbTTPLF/uBZYfugPYHLjJbnZusweD5UT+8Dvvhd/7xtsFQU6AnD9j79Zv/9Nfi5I7B14VGhzeH94rZl1v338q7DxwSu8WM64gcKOxNGgvZPtt8zvbtfXeYiOMDDNYtXhOWGDvEsMOKFdYHbQAd0yXkTHVgJWb8U70enAwiY1VC1gA9sjJHg1Z4AOaD+nR9LJAjiBE1LNMgLrPys0j65bow4shOpSdO20Jh8Qy7vZ3vvV2+PMfbpahIIGPQtY9+5tfeSp8/ukN6nnKGBrJ0AKZ4z3SxgYWpr7l3Tlhx6mz5zX5hl43tomExDF2E/2xgnen3epd2nfesaX2TvFurVs+XxMmWFGBsf8M3bmTH+G0R5SXNzYfCr/1tVfDGx8d8IiIaU1NoX3x0tC5fkOYuXJ1lDqmLLlLoIDxcM/aFxTjnxhISaXCQTcrCxEya6bfDkjFcNaXoUBFA3nrnNWmfUvnmNtp92PWjLYwzxpuyB4zL+fMhPA1ywoEQWRRZbqOIXzI7mVLzVQhd2XQJUtFwjvFF+O2fSeM7J0Nx8/06MOCbleN0xwFsPTOnNESVhqxg+hRmbBy/gprAJbMn23vUoveHcpWs5HCbNXLmOzAOsJY5YtWt2KpY49mtohkshHkjvr3jFYpGBgVoVMPjdWT1LU0uCw1sX7FgrBuxTxrdOeF1UvmqoxMluENmdyNDRhZ+AhgTDPGGepXSB1hrLisZsFkx9RTxkfCOQszYY2DOne04+ZqQX3a1OhrnkLq2DUCQ83KJXOKDwbq5CUmm9k+MUvn3AzuaXJXC74MWa4CMyYmTEy5dK/y9dhlRI94tjG7cu3miB6g3aWxbm1tEtnTshp2dBq5myFrH9aaDnUZz7EvTL5A+dKka5mXBrKobl3yMT8yKra7uUGfiuQugW5kPiAOHjunAbu7D57S+KF9R86qW4ZKnUprtO8Tz5su3yULZqlS4aCSgfjRNcDMLL4YeV/0fujdiIkzMu4QsFbTGNMoQ+x49w8aiTt0wlciYFkJPqrpQvOxTqP78KE88EFDo0u9uXKpz2R/YO1ibVO5ZN4sa3PurAWlHjK5GwzuiYZGyWUViuS398beB9pfrHGQNY1tt48CJjUmiy8E7oy105A4yB5t9Vh73hJ4XxhDx7vFPuNMwlFdGz+qGVfHEC9WTuCjYbIQujIyuRsCFDYGXh4+SfeAd93uP3ZWjTTEb2CAwe43+ebUQXqZWLqFgb9UVFjzuHedLOliJIaDr1KIIOvmQA5ntjerG5iX8G7FVCZ3ZXDtzOqjuxZLHjtX7DKyx0ScfiOAoyV4CbwzWHWXUOlQ2SyZG1ZZ47Zm6VxVPgvsHZpM1oqMexeQuSOne/TBzJhSBqzvtzqVj2eGx1Cf3gyoH/m4uX/1ovDAmoXqgsVSx3i6yVwnZnJXDcgc3aksM9bXf0XkjO7TROBwGXucliITubtAnH8gjzRxbSzgO4Des0V23yFzq61OXbXY61bWpFswZ4ba39s9OWKsyORuCDAQMc145Euzy14wBvJC7OjCZTFaLHwnrbHGqsesrVsFjTVfADTGyUKXtqri67OttVmVFuP4CEPyaLx1WFxbW5PJm/VizjDShwWHgZypgZff5JOdCGJ2p+D6/b+ubeG++fLW8J1Xtg/qypxK5C69U4wHYczHIXuXsOBB9hjzyUrnTMLhN48WvDN0GfikIe/+p2FYahUT443oxl00D/+MaMW4MwN7M+4d8I7TEDPr+4R9uPBOa2H4U93hqNWbx071aqgL5Zy6Ff3RDF4HvLvUb0xeYgcJljSh+5VlibBca11Ti6fepGxMVgxH7qirmVn56afXhacfWqXfxSx86njqcD7oCFO/T2aCwXNlxj9d7zxfhjjh5yOX3wtho329ePGy3hdWmMAqx2YCjIdjEhlyuubTeEsO8i0sfOa/VSML7wnvDHUn9SW9Iovt/VqOZS72iGBIabe6E+LN85kKdWgmd6MEL6EP2Lyil4+BmlRYdOOqErMKDAII0cM8zMs4moUORwsRvQYsNanLje4Ie9GsYedl4+Xka4IxJ2xSD+kRubP7zaD7RO4gfZA7BuGjx0SO1K2biAKVCIRyvOtGyiBjJLiPXqE74aGC56uNF5HwJQvz5Xb1GrOSr4lUsx4cM0hrrVtTidyVQeXEu+SN4AURvf1Hz4b9RvL4vVg3sHZwb0YLf35e8VPO6NKfM9vHdVJhMS6Er05mb6XxnwwK5t3IyLgZUIYpo70XBzTeCcsKdSDWOKxzzHqlbsTSwjhT6k7KP2V9tOC9pp5ibDJdYwxax1oHuSPMUIQZHfZxe4dmJN4MhiN31MfM8oVcsBIAw3JS3U65htwRbrHf2xhJLB/waW1M5WEuMq/rx/+eYCnjWWpdz1KdzBCUy9GSRvsHuaMtFLkzEsc4S42bu2zvDOTO6rc+ln2CvFka4q7GtHzkXr1mbvwAGC/4+8TqGW3qCaOXjHqRcXRsY4qlFBnDX2g7ueeM5+S5TCXwVDK5uwmkhpkKC/Mxg3+x4jFmRDtZdEfTMaZlfXlcUgGuJSfjBcgey2SksVZUADTaHMgo4MRT2LXNlckhAVQYhGFyvLyko8GH5I33FEwagoHLVtg1E/malp25YX8uXaECMMJnMsLs16p7ZfGMu+BeY+mikqjFVCV3ZfBb+Urlq5WB5ViHWTjz8Kluddki413iXnAPRwveA7ZQ4jlD9IpJPHNnuEXPvk6p1GbNbPWZ3XZwPymjU6wey7gN4N3jo4QZ39RnvLM00HzMUudhlaP+06B2e5fPX6B+dKsM5X201jmQCA49FXyMLLaPEyZF0OUKsdMWk7Hngnptqr2vw5E7QH3Nhzyklo946mNm0DdZmaZcp7o9fZhThvnAT9sXUqfTw+Oy8b85rEEoa5tdd5l4XTCSz4c6PSz8Rp47JI0dnCBpWO0gcZAOLLfsz+0642cIqQX3y+u/1jCTes5cPm6pB9mulB6NtAIBZC4ZRri/3NupCkpbJne3CF5WXnJebJmT7WDGDhUeC3DSjYulr+e8ExRefgozRIcXf6yN9niASqHRiBxkjxdYr7D94YX2bo2JIXd8iWGN0pe7hSn0VA7IbuY+3A3kLoHuBe4DHwNnut3yse9oV9i2/4RvTm2N6Hkjxnwd8/6MpbEE6YsV660qOyo6q9Co2Oh6YH2+JVbZpUkZlFUm/uDXB8IUrugyxg7eL+o1HVZn9Rupo0FnUPupc1jk6Hb1xduRYW2H8Ln1ZmxkDvB6YY2igeW91Ar/S9lKcp429efddIsKH59Te4zxSORuLPD7BhmplNFpRuiqCMo4F12uX1a2SOIS0kzWsux2ARLLewEpbmluUE8V5JiuekgcPRcMV0mWOdoO6kH2F8bIwb26m8ATyORunEGlxuweKjm+bHvtCzZ94coyc6pbXbqM2+MLF/M2hYQHAVGE5OCOtXK8F3E3kbtaQPSw2PFhgFWPNfN2HTil8Xl03Q7Y+8XHAe/NzYw7oc7nq5aKLX3RcmAt4at2xWJmhDHmZLa+dKkwZS1giIBVpHwA0IiMc7uRcQdQHsNUtqyk1QOY0co7d9zqrO4eJ3HpoEvtZi0v3qPgVil6DWiAme360LrFWjeMDw/ePT5E/EM0JpziGE9yd6+BdyDVQbi8Q9RFjEOfO6cjLOicoXVl2Thh2UIncrw/M61uk2ttBsT3bkcmdxMIyBltLg0vfhprLHes68QXMBa+tD6PDz72r2E15t0X4ziE8RtrcDfibiZ3FC66qXl/OOjqZ6bY6XN9GpO3bf9JLZDMEhJM6OGj4GYgy61VmLhUmHz9apFOK7es6ZSIH7O4GWDMek6MTWFQO/Hqws+YsuDd4qNTC76WxslB5NT1emGgIHKVIRVep9l/uTcLxjyxBRir+7NIN2PoaJgZX8eYJ40p4+AdjWnuBmRyd/OAmLFUGKsEQPzpovdeh1lh9sxWjRlPiwyztJgPM6nUcXfbuzQUKJWZ3N0mUAmmr2K51hgzDsEHnfrYPZ8lNCBixyyhM0byiMNyc8Yad+KpbGnob6VSvVtwN5O7WqQBxnwk8HFAY8zA9eOnz4cDx7u0XA/j9WiYGbB8s+9HInlY9XTYV7EGcbc1aYY2FWa5W5eByVS28+2LOU3WgAwyHipjcoChDwxmp/6gK5VuVHZSwT1r75DqnvjBSS9DWsGfuooxsIyxutUeBSwsNLoMXGdbLUjdcmugsRJjoWP8Jw0zC7hjyePdu1sb4UzuhgaTBOlN0Mel6pd2rfmaJoB5D4Pv0MPEEpYCY7ww3atp+EiagIg7EWMOpwIyubvDoKKkoFOB0jVLJcxBRcpEAipaZpdB9LDyQfpk/Ts/oLRnrHKmYqDi7mWGqaWjGxgCwJgI1o8i/VRGc3OD3lR+Uy3uJXKXkAotz1dEz94HttY5bo22W1565ELysAbT9c8g+FuBCJ9VluyYQuVLw4ufQe9psLKW6YmVbCJ+VL6EVRmbDMKHLvVAo1W8lm3GOEHjfu1DEOLPzMRkaevt80Vese72WX2A9ZcPxF6Ll0u9Uap73H/rMxR5Z+jKxwrH5B26XBOZw9KyzA6Wn+Bd4OOBg262e+GVGI7ccd+0aoGVK8gKRoBLVn4Z5kO6qQrqDC3pYnUApIv6gDFxLPEFqe+wj8dkdYPcoacxcVZfzMK1eiRt21l8AMSPUO4Tfu5dhiOTu0kMkT57OBRuXB+o6l/R7JLB06Px7reKgS9tGnHG+jHwnsY8kb4+q8RJR+UPGaBLRRWGhZHpLTBwDmSQBv84Lx7v+MAKHg06g3/1hZW+qMyhUCcZhVQzxUyPwsr1siXRnoOndd1l3IvkrhbcH56rP09fIwpix9ZndN8yi5GuXBp4PhJ4V3g/brYbtwx9JVvlCuHj+Wn8lB2Mj2q3Z8PzYRFufX3bgdUPd0asxHkXZBWMzx8yqAkcJsNlgP29Xl1jLaNM8pGG9ZYFr1kTDKs/sjRBC0LHx2C3PgT9Y5BnjXWOZw9BoPzwrojE6TC/5TkekGXOniNdY8xkxeoyt7Ndy3ksX+Sr+0PqfBkPL9+8K/digzwcuaM80WY+smGpyDDlgmeunTtiPY4+z48PfNqFtGe119u8M77WIO9OIRxnUEf70lyVZ0hZTpM7EFE/YGnDhYyxziokDXJHPQDZY8JD6g3gQMZvVr1iemm5rxTWB8C9XimMAjz1cSJ3vZHcfagwBZ0HMn2a74v5sYdWhH/+D76Syd04I5G1VFFTjqmskVGB0IATd+XqVSN/AyJ7LDnClHS6ZWgEUjcLlQZbt2j81kRUCFYgqdCx4tCw835IbHLWYqOQI6MSoAKggYDoQWC/8dLW8Gc//FAVWRmZ3FWDp8YzhwTQANDlzzNlAg87rByIO6ywdA8kEHLAobWpaCw8m3GBBj1riR5/ppVlHPwrm7F8NGLssjJ/Lqu+N2tXDSx+zJiEHLAPM3VIU5On412hYYD8Ub97PePWRMBoGp3PjuLjYZKA+8vHF+WSf/yHtKWuTuTEU46J412n7FLGscJhccOaz5CMNG5XxC2RN8vL6wE/OJ/8ssQ5ERgv0Jhzz2nMmZVIvU7DDXljX1eWLGE1fyx2WGBkbbGyn2bn3+sYjtxxTxfPnxV+9QuPhU8+tkbd1emjnidIee424k4a3h0seqzOwFCMVG9D/Jmwxzs0EVU5oO7F+gYZS2UNckb9zuQGETorh5B6XMZOpu5SlVN7f9LECOKTiyzj1sFjpw54c8uh8O+//kZ4a8tBvQsQf+RO7pYYuds4Arnr7Qrdu43cbdmqMI13pzFzGnNegk0bloR//J9/TgU84/aDil0PVQ0JYX/Ist7Ep2hRFdmEALO5f5lS8Isq3jzlQi0dVQLeRXO3bD92p8Azd0LvllsIwikjd8y63cGkjIOnw4GjXUX3nIiGHbi8JxMFGgS9C6rUfaxMquSRsRYjA+qJYykDuvCaGhvVoCyaN0O6LO0yz+oZGkCAzMfp0CVcPeaPd+n2EItYxmJIMIHWwzSCxrAKGndIHA0w3aOQL4ZcpEWAr9trzphKLG801DxDKuT0IafGPsp0mH88yVstuG/cOpVbO+hOm2tEnN1QWEz4gdWLwroV8/UcZrT5Sv6QFJ5HJnODMTy5G377MW+cvYwC8kKm5x9fARw+6CfwlVB9rXLKO5FkcZxbeua4vAf5Dbj94NFTN7y19XD40x98GD7ac0xkX+NpL1yiITZytzjMvm9jmLVyrSeKqCJ3/WdOhnM7d4TePbsU5sGroraHTWX7zKbV4Z/93Z9VZZxxZ6CHVSrtHpa3QK3OuEOlvETsEkxQJStVGJnc3ToSUbO/1hi4VYguXL76WYoH4gGZYOYt273tOXhGy1+oa8cqiImCtwHxWccHrpD/93BsIBJRgBAmC5CIYaN3CUvX/jUyNtDCZQsAOlgU6CIir4kC9xfyjCXtYn/1TgypC1QNsYV5HrLcmQ5+5GnSDPEidYojRN7+h3MI8uMWkgkB93LenA4tHrx66VytPZf22KT8YaWBSFO3Y53lvvNceRb+fDNqcSvkDvgrUXnq8RWpgt6KiXwx7OEOerylcpuQiF7G7QXvBPX8N3+6NfzRd98P2/ad1AcBH4YaimHltG3BgtB53/1h9roNMZWjitxdPHUidO/cHnr37YmSykNlzM0zj6wK/8M/+oXcLZsxZmRyN/6g4EMakoUOaxDds5A5jdkycoKFyZfn6TXix+4r58NJ/OaWG6PbAeqSoolQA6I/LkvhiNSWVMmMBDIIm4azTPrGH34vIW0QNZaySaCx5b6XIdId/XhSg5xkidjdDnDf2MVk4TyfucouJnQPLlswy7f4srKG1ZTxUfjplZF13RImi1669xnD41bJXUbGSKDuoKfmD7/3fvjTH3wQdh44nWK8HrLC2jrfyN2G+9U1W0Y1uTtp5G5XNblLYFwNDfC/zBMqMm4CmdzdHohoQCxwY7jngu+2wmQdFuHu6u3T9lJdPYzX9DGbLNFztvuCEUPffQVyMxnhxON2sY9YgU5CYMWk3GhMox2Mk2L5GpYoYQIEy92kpSfYwJ44rHNO3pwycy/xZ9wcMrnLmGgkcve7334nfP2HH2lLyypY+W2dPz+Su/uj0FFjuTvp5G7v7iipgIHTTz24PPz3/+DnNUierpSMjNEik7s7CycpXtT5i0k/rbvIwWxctthjlnaajcvEHSbo0O3LLE2f1cl2Rd7l6Cj5Kt6MMaDCryp1KtVrQ6PPNuZjmgHv7eYyDppJS7gsHsySJAvnzAxzZreGxXNnaeC71ia09JXcsjVuIpDJXcZEA3J3ycjdb//Z6+EbL23RuOoqjJbcDXSdDed2bg89RvBqQYXx8Lol4f/+f/pcWL9ifrbeZYwJmdxNHUDm2FP50KluET9m6TIz99TZC1qLj6U6IHiaFWouVr50QPCQMfYM3jc035u8VrFbhROpajZVhMyD3UyLszKeebpPOqrdTL45TmKb19kuYrB4HvtpzjTC0Kk9Wmd3tARmL2fOdueQyV3GRIMhN3xQ/7/+3ffDT97ZHc6e64sxEVZ/iNzdN0K3rC+FsrPuOneQufUr54e/82sfD88+skqDmjMyRotM7qYWiu7dSMJSN+91I3CsyQjh00LLXedFBDkgfiywe5xJHEYAmf1JAwjSuEDyAvg1U7CUN+5UBGQudXemMKQtoTyWjR4PZgt7d2l7mGMHO4MwNi5Z4VhSiO2YGBvnZDDlH13+Icy4o8jkLmOiwTvGoub/l3/x9fDutiPa0KCMaVaXtC1YpNmys9esi1JHDbkbehFj1qRi/aNf+tym8Guf36S1jzIyRotM7u4eUOHwDJnFVTncigdh07qNRgJZ1+3wqW4ROtb0YvYps3ppBBn7R9cv+TABhPX6GOsnmD75OCF0EYACpn16xQYnEiJivtxPLdIyLwCyhZUNQsYSUagz65RZqfj5KJ47i3X/WkNbc5PqTXZ8YPaqr0QwXePnmDmc1hFUnB2cJ2PyIpO7jIkG79T+42fDb/xPfxV2HV4/5ykAALETSURBVDxdfCwniNwtXCSr3aybJXdUZkyqeP6xNeHv/7VPal/BPO4uY7TI5O7eAySPLlzA2D2WbUnLiNDVkJYQ4X1g8dZrLPxrIB3bsdE9TNdvAhUdRPDipcumO7HsDuKF5YydGCBaZTBRgQWa0YHBYaVjz17fis2XdUk9GxA1lhdpscaeXQAgfr6GmKIzpjAyucuYSPANy/jn77y+PfzbP35VY6JroUWMFy0OsyF3q9ZEqWPU5A7wZbph9cLwD//TF8ITDyzXDK2MjNGADfH/8LuQu3fUmNO4eVfTNDWUkLt/809+NWpn3MvAEsg6c0zgKM/aZQFnFgmmW3hi1+2DsPFetoiYicSVAOnrMNKH1S3j3oWTu7Phd7/9dvjLH28RuUtDDyDyyxZ2hr/xlSfDzzyzMZO7jDGDYS2sU/o//d6L4afv7dMe0rUYl71lAZXZorkzwl/70hPhS88/oC1q8gdoxmjAF+4ffvf98AffelfkjneJmYB0fc1obw5PPbgi/Kvf+MWonZGRkTG5IXJ39Gz4vW+/G77/6naROyzNLFzNx8GSBbPCf/pzT4afff7+sGzB7JgqI2N0YI3SD3cdC//4X38rnDp7Xh+9tRiO3I3p05OXmbEym3cfD8fP9E7o13PG3QXvlrMvW/NjtaOra0ZHq7a3Y9HV9rZsBc7IyJha0BZy1ujOtDps1sw2LVmDpRfrHSSvr3/yrhmZMXlBO8k2h+9sO6wF6OsRu5EwJnKHyZkG+uDxLlli2Pw6I2M04CuELjUNi7c3l03uT3edD8dOdYcTp3vDufwuZWRkTCEwwYdJQzsOnArHTlo9dqo39PT2aywpk35oK7vPX9QY0oyMsYD2cf/RrvCTd/fKqHYzGPOgEQjeybMXNC2Xfc7yi5sxGkDo0pIXHvZlMrD+MsD+qh2aBZmRkZExRUAdhlUF6xz1GOFUjeGqYc71WsYYceRUT3h3+5Gw99BptZU3g5saEdxnXyu77aSb9xzXyva5Uc4YCXRV+MD0waM0eXmpHNn66ma/UjIyMjJuK8TbrO5iA/eMjHEC69p9tPtYeGfrIfV43SxuitzRELMBOeSOgwvIBC9jOLCkBGt+1ZuAw6vDYOQz3Rfy+JSMjIwpA+qrPmuM61lXGFvMcmHMvs7IGA3oydp96Ex4a8shrWt3K7gpcgdYgJSTv7H5oJa5oI/4Zs2HGXc/2lqbddSr5q7fuK410I6d6bXKMnfzZ2RkTH5cs/au/5IvyF3b9lHPsSIA6xvm9WAzRgPeoS57l376/r7w/o6jdZc+GQtumtzRfXa2+0LYvPNYeOX9/dqDMltdMm4G1+21YVFbxnKy00FGRkbGZAe7rZzruaiJYrV2Dax17OrU0d4yaJ3EjIx6gD+9s/1QePWD/eHQiXO3bCy7pbeOVeVZZO/l9/aGN7Yc1P6SmeBljBVY7voGLmt20M1M+c7IyMi43Th97kLYf+xsDFVDyz1N97U8y/sMZ2TUA+0fa9r95U+2ejs4DhNVb+mtg1lyUXsOnwkvvbs3bN57Ipqoo0JGxiiAFZhxm/uOnNH2UqzMnZGRkTGZccrI3T5riOuD/YfZJ3h6mJa7ZTOGATvx7D18Nnzj5a1h657j4fyFgVu22oFb/qRgACB9wx/tOh5e+3B/2LrPCN75TPAyRg9eZDaNZ++8090XwqUrlT0aMzIyMiYb+CClp4rx5kOhmFARwxkZtWCbxX1HzoZXPthn/OlAONt9MVyt03vFHtVjHbs5anInM3ODb3xdexIIHttjvLX5kAYDbjOCx4bhmeBljAa8Jywn0NV7UV/CTNbJyMjImKy4MHA5HD/dqwXYMzJuBkwipFv/lQ/2hxff2hOOnuwOV676Lk4J4l2N08OCuTPEvcaCUZM7xg3M7GgJa1bM00lqp3czVuqgfcWwwe0P39ytVbu5+LxESsZowAKgdMlu3XsidPVczB8GGRkZkxYsMstOTdRZGRljAU0bcxMOnejWcLbvv74zbLN2jw0hats9uvbZovPh+5aE+XM6onR0GDW5a25qDEsXdIafff6BsHxRp4UbYkwFELwjdsGvvL9P/cc7DpzWjKLcUGeMBLpmL9rX8C57Z052XQiX7QsmIyMjYzLio51HZcDIyBgr6Ok8crI7fO+1HeEHRux22XtUbygS9rMZ7S3hs0+vDx97cEWYO7s9xowOo7fcNUwPc2a1hY8/ujp8/tmNYdWSuXX7gCF4J8/0hjc/Ohi+/qMPw+Y9J0JP7qLNGAG8H7z0J8+eD9v3nwzH7R3KyMjImGw42XU+bNlzXIaMjIyxgDF2Ow+eCn/5ky3hxbf3hAPHzmkB/3qYY2Tu+cdWh1/41MNhyYLZoalhsEFtOIxpzF1Lc6Osdp98fE14zkjeyjoET4Pj7WJpnFmv5a9e2hLe2nJQBYLGOyNjKEDwzvVeVMXJ7KG8b3FGRsZkwzvbj2gB//O5SzZjDGAlkQ92HQ3f+un28OO3d4f9R89qd5N6Q9c6Z7WFx+9fHr7ywkNh46qF2uFprDudjJrcATJvM4K3fsX88MITa8PzRvAge/UI3iV2HDjVozF43311R3j9owPh8CkGDOYGO2No9A9cDvuM2NHlcerc+SjNyMjIuLNgXHD3hf7w2gf71a2WjRUZowHkjTUR39txROPrXjRiRxvXN8Re6rNnOrH7wrMbw1MPrggz21vC9GljomrC2FMYj+Nkj6xfEj7/zIbw8cfWhvlzZgxahRsyyqDBE2d6tUTKt17ZpsWOmTrOOLy8QXxGPbDGHQWBrtmd9nVMhZqRkZFxp0GP1Ja9J8Lm3cdD9/n+KM3IqA+MXBqmdvZCeGPzofCdV7eHl97ZEw4cNQ50afBkU0xkHW3NYdOGpeFnP35/eOHJdWHOrLGNsytj7OTOgKWu09jlpvuWhJ/7xAPhM0+tD7NntWlcXi34gazd8rb9uD/53gfhT37wYdhrP47FjzPBy6iH832Xwh4jdlusEu01P+9QRkZGxp0CdVB3b3/41stbtfxJ3iYxYzjQZDGs6PiZ8+GbP90W/uh774nYHTvdU7f3kh5Xtqt7cP3i8Kuf3xQ+bZxqfufYZsfW4qbIHYDgsTTK/WsWhl/8zCPhc09vCAvnzaw7yYKCwUBCGCszRH7rT1/Vgn3sR5sJXkYtsNax+vsHO4+pOz9XpBkZGXcSp62tes3qojc+OqjlT/IHZ8ZwOH9xIHy4+1j4D3/5ZvjzH3+kJb56L1wK167Vf29YXu6x+5eH/+IXng5PP7QydM5oveXFr2+a3AGtfdfeEu5btSD8/CcfDD/z7IawfuWC0NLcFDUqoDAw3fd014XwztbD4Xe/8Xb4w++9rxuQ96PNqAWbcTPg9NX394fdh07JjJ2RkZFxu0GDzKzGH7y5S+3XldxeZQwBZr7uPnQ6fPuV7eH3vvlO+Mk7e8Lh4+fUng01xGjBnBnqgv2bP/9UeHzjsjBnZvu47Ed8yzkw1m6WEbyH1i3WGng/8+xGWfPaWuoRPF8qpaunL3y061j43mvbw5/+8MPwvdd3ylKTB6hmJED4z9p7wmbKb2w5FM6YP4+/y8jIuN3Ye/RMePWDfdr385IWms1Wu4xqqNv+fH94c8vB8BcvbtFSJ29au8UuJtrMoU4PJcPYVi2dGz79sfXhK596ODz98Mowd1a7dqQYD4xLLnTFzurwSRZY7774/EatqMwCfPW6afmhWGKYMfLDN3aFP/jOe+GbL28LH8aBqrmrNgNcunRVs9JYUmf7vpOh50LeliwjI+P2gS0R2Vbzlff2ha5uds7JbVNGBXCVC/2Xwt4jxmXe2h3+7Mebw7dfMS6z82g413NRRoraVyaNr1u3Yn743DMbws+/8GB4xojdnJn15y3cLMYtJy2T0tIYHlizMHz5Ew+GX/n8pvCIETwmXtTOpE3gh7PV1LtbD4f/zx+8HP7jN94Kr1tBOmpsl90KMu5tMJuI9+CjncfCS+/uUwG6XGcl74yMjIzxBmN937dGmnG/bO5ebyA8xgsa6ox7CxA22iJWdvjQ2qc/+9FH4d9+7dXw4zd3h6OneuJWYoM/BHhfGF+3ZulczVX45c8+Ep68f7mMY2Ndx24kjB9NjKCveOmCWeFLzz8Q/qu/8enwySfXhXlzOupa8AA34Oq1axqk+v1Xd4T/57/9dviXv/+T8N6Oo1Ej414GX0Yyd28+KAve/mNdMSYjIyNjYkC9w8L7339tZ3h322G1T7WgRWtraQ7LFnWOyxipjKkDhggdOH4u/MkPPwj/7b/7XviPf/lWOKRl3oZfBQRi99B9S8I/+hufEbG7b8X80Noy9gWKR4MJeSPditcU7l+9MPztX34u/CdffDw8uG6xdrgYDljyes4PhJff2Rv++X/4UfjH//pb4eX394Veti+LOhl3H7DsslbiJ59cr3V+6uHYqW4tHsos66One6I0IyMjY3xBO3TCiN3/9hdvhre2HtLCxfXan3arq5Ytnh3uW7kgNDSMf+OcMbmAIYrhZLsPn5GV7jd/63vhD771Xjh8okcGqjqGugJwopVL5oSvfubh8A/+Dy+Epx9aoV7N8eyGrcWE5YylDoK3ZtlcbaHx17/8VPjsMxvCvM4ONeZDFQUmVfSc7w97Dp3R3mv//utvhP/4jbdlGj99rk8Fr952HRlTF02NDbL2fvXTD4XVy+bpS6YWmLl5J9jx5M3NhzT+jgWPMzIyMsYLtC/HTveGb/50e3iDNsdI3tU6SzHRvj20frF2EZg9s3VCLC8Zdx7es3g9XOi/HHZZ+/OnP/oo/C9/8HL4q5e2hs27j6lblu7ZoSgJ7wk7TrBd669/4bHwS5/dFB5etzjM6mgdcrjaeKFhw6//178Z/eHa5cth4OyZ0H/qRJRUgNVt2cLO8LPP36/GeLTAXM1AwYXzZoQFczrsa6dFN4tZR852698VTJv9ly5rEUAKGxvKn+m+qJvMDWtuagzTrUBRpnLBmvzoNjLGnrHMkq4lZZC5NUvnhb/+80/JSkuBYZ2gWvM2S+nw/HFnzWgNnR1t/h4M0eWfkZGRMVowxo4JXPQWffPlreHgsa4wcGnwGF/am3Ur54cvPnd/eOKB5WHvkTNhx75TVas9YJGhjnp049Kw1j5YWTIsY2oASoIB6erVazIibN5zIrz+4YHw4jt7ZHCim57JNcNtpcrzpxdq+eLO8PHH14YvGm/6xGNr9S5g9BoLZYEjHTnVE96x8/J+ljGtoSE0zZgZWufOCy2zO6PUMeHkLoG+5qXzZ4d1K+aFjvZmmbmxxnDQiA9H8rDksQDyrkOn9SMZZE+fN2mmTZseplnjDtHjjuVmfnJiOHIHQVtpheDXfuZRFYiu3n4RvIv9g9e2o7JlEg4kj61ZGIjKuzk9j3nJyMi4SVAnney6EF5lq8yXt4Vte49rf/TaZgliN2dWW/jSJ1jXdaOWAWOt1kzupj4gdLwHA5euhLPWxjCBD0L17Ve3h++8uiO8tflgOHmmd9gl2zA0sM4vu0vcv2aRdppgNuyT9hGwcM6Mm+qGnfTkDvDDZtsLz5IpSxbM0o1gn1ksMZeHYcGAG99nDfqRE92awQTR6798VSQRww1tu984J3jZmje5MBK5W27vFuMRWD6H8Sts9cMaQVh3a8Eej4ftPeBLG4LH2AURvPzMMzIyxgBqouvXboSevgHtgc4OStRRtEu1oL3C6vLMplXh1+1D9JF1S8K53ouZ3E1hQN5v2L/ELzAc7D/epTXqWIP3j77znhH9k6HX2q/hJkrANxqNaGG4Wr6oMzz9yKrw1c8+HH7hhYfD8gWz1T7dLKYEuStjQeeM8Mh9S7XWCzf4/IV+NdY0/ENZ8QAxFKKz3X3a0gOid+BYl7p5W4wk0L5jxaEg5sZ+8mA05O4rn3ooNNu7NaOtxZ+xVZw851p9gOzo6W59FMxobw3zZrfH55+feUZGxuhAPXPOPiTZSeC7kdixn3UtqFbSTMe/9+ufCA+uWaQxU5ncTV3AM+hapReId+CdbUfCN17eGr72gw/C917dEQ4cPSvD00iAZ8CPGHr21EMrwy8aqaMtg/y3YnTA+nQLmHLkTubLpoYwb1Z7WL9yfthkhUBmUSsgNNwcwzFl4ngwfRcvhRNnzoedB06J7J04e6FYEdpTT9O4v9zo31mMltzxnCgQWPBYP4r9hxn3UO9dYKAzlSuWPN7PzlluwaObPj/tjIyM4cBWUcfP9GqHpO+8sr1YKL22rqHp6LAPzo1G6P7Gl58Kj27wBfpBJndTC3AMDEHnjTcwjn/HwVPhp+/vC3/x4ubwwzd3Wft0XD1GGvo1xD6wCTzjGe3N6oXctGGZep5+7uMP2PuxNMzvnGHtWsO48I4pR+4AP5yGnW61RfNnhiUcC2aHjlgQuLnX7IcNR/IgCvSRsxYaW5jxYPYf7ZI179S5Pk1dvnr9uuVhBc/uMyz7Vpl0xtgxWnIHIONtrU2y4PHQ2LRbz7FUeSbw7DGZ8/VFOnXRWn5O6KNSRkZGRgTtycWBK+HQiXPhlQ8PyGKHcaDnQv3dkWZ2tGhm7FdeeDC88MQ6X8LC6hdrmjK5mwJgfD5EHkLHpMw9h8+Ed7YfDi+/ty+8/O6+8PbWQzIMMXHzwsWBurOjE2hS/Nm2hKULZ4dHjMgxru7zz27QuLpVS+bYs27V+zFemJLkLkEkz/JcasRumd2wRfNmhbmz28WKATa4G1boYN0UqHpAfsUYOeZVVog+dKLbbki3yN5Rc8+dHxARYAwXBRiuB2TlySxgwjEWcgc0fqGtWcsMQOqYRcs4GLruy+C585XFWAm+unlP21qbQ2tLo/boy882IyMjgbrnvNUlew+f1ZqZWGu2WcPOxu71iJ3Wa12zSNtqfv6ZDWHR3BlFw03dk8nd5ANkCMMQPXgXLl5W78/B4+fC1n0nwltbDmlZNZa5eXfbkbBj/ylZ8JioN5wRyQ1RDWGmPdPF82dpSNnzj64R2X9u0+rw0NrFoXPGxKxbN6XJXRmaVbtglsbiMTAR8zezT2ijIWT8UB4B7lAgCqZ+5lyfCvG2fSdF+LDsnTXmjpUPonfZiILyM/2UX7bqTQzGSu543rxnfCVj4qagQvAY9FprwePRQfwopD19/SqIEEMO8sgELyPj3gY1znWrN5g4sfPg6fDSe3vDj97cLYsNe1jH6r8AdQZt3url80TsPvf0faqjyhYZ0mRyNzmAdQ6LG2PkaCOY7XrIiNDuQ6fV5ryx5aCsdC++s1vhY8YH0BuO0IH0HtCbuGjezPDA2kXhmUdWaU/Yzzy1Pjy8dolmT08kb7hryB3ghjLuavE8Y8jrl2gh5NnGirkGbiLLpzDebvjHUgEP/VTXBWPpJ8MHO4+GbeYeP9OjRZEp7Dxk7QVnulh8KvB19DJuHWMld4B7z6BlJkt02sEzpzJlwHO5Ik2A9B052SOLLeCd6ZzJYpEQPIkyMjLuQVBfnLd6g/rnO6/tCD95e0/Yd+RM3S442h+sNCzP9OVPPhg+a8Ru9dJ5g9q9TO7uLJJhBisdm/ef7r6gHjvI+3s7DoeX39+rLvcfvbVLa9NBjDACDGcYSqC9gGvABzAyPbRucXj+sTX2PjwQvvqpR8L6Ff5Mb4cx6K4idwl+g6eHTiska5bPDQ+sWaQdDBgDwZgsbixj6Xi4o3lgAGLBPoHcJL7aPrTCvuPAKZltGVzL9mcQkX77mmO8X4OdA3KQcWu4GXKXwHNmPTsqS94HlknBikc3fT1A1k+cPS8LbaO9q6wGPh6zljIyMqYemHDFloWvfLAvfOPlbeHtLYfCKasf6o3hhdjRW/TAukXhq595JHzqyXVG8uYWKzGUQfWTyd3tB89NEyK6IHPnNF7y/R1H7PnuNyK3O/zwjV3hlff3hd0HTmu9VAjdSBa6MuA6C+bO0LZyjz+wLPzsxx/QLlsvPL4urDCip7ak9mWYQNyV5A5wDyko3FAa6QVzZthX1NywxgoMO16wbl6rET0WM+ah8xBHeozoYAWi0GsadM9FdduyvdXm3cfD/qNnw2G7iczCZQAmJAFrUZoWDUkYzwGT9wJuhdwBH4PXokoSwsZz0yQLLLg1D5zne9Hi6JY/efaCTPZ8gbE7yu18dzMyMu4cKPfU3TT+L727N3zvtZ2aEQshG8pi1zmrLTx835Lw8598UGOqaPParO4grhaZ3E08qMsxtHCf2a2q6Gq1dpqJECw6zbN9Z+thrUd38Ng59chhwKE3jmcyhA2gAI+WdoFx/ssXz9H4uWc3rQ6ff2Zj+LSR+4fXLQnLFsyWUQm9eu/CROKuJXcJ3FAKTLsRubmz2sWsmYIMKcBFxhgrtrJCj+fpu1h4+qHAjeMlwNrDZAy+Bng5+NJjVwxm1uw5clY3lTjG7LFjRhr/BeGDrPC8IX23+8FPFdwqueO20lXCVzV79fGcIefMemNvv1orHpUCz6erp8+/3kwXKyzn4uAdycjIuPtAVUCdcPR0r3pmXnqXWZF7w66Dp9Q1S91QC4Z/LJw7U2TsMx9bHz7x+Fo16LR7Q9XpnCeTu/EDBhfqc1Y/YI3TE2d7RWrY3m3LnhPhvR1HReiYFPHe9iNhy97j9kxP+8oYXX1qk2kTaPdHAs+UZ4txaMn8WWHd8nlh08ZlmhxB9+tTD64ID65bFFYa2dM+sHfQKHDXk7sy0oOB0LF8ClOSly3o1D5uFFCmKftsyQYRLmx5w820rUVaWoUB+txUumyPnmQG7rmw316kfUb2DhzvUjyWPabQU2kw4wqLEZM5khURYMK910nfrZI7wD2E4DHJIm3lIoLH5Jg6BA/wLBhvyYwpZslxbt5full4hzIyMu4eYJGjkd9/7Jx2GcCq8+bmg1oei9UUauF1SmNYbO3Ikw+sMGJ3X3jeGvhlC2ap/Riu2s7kbuzgnkG+qK+pt+leZZUDt8z5MmYQtu37T4b3jcxB4t61g25XiDpDqXZbPCSHFRJocxmWNRqk9gMDwTxrP1YYX7h/7aLwpBE5SN3TD6/ScibMjl5qhI/JnZOh3b6nyF0ZFCLWQ2OdvHVWiOiyhW0zCHKREb22tmaeKlMj9KDSw+KGjQbo8UVBhQGZYzPp3VjzDp0R0aMLF8se+9BB+ujOxfLXe7EyUQNCAdkjn6us3WdhiB9XwOVMhhdoojEe5A5wr3j/5mgWbYeWKmB5lL6Byz62os5z5RlSeWDSP9V1XnrN9j6TB/ll8p2RMbVBGaeu5SMOYvD9N3eFF9/aI0KA5b5efU+ZZ7gPS3A9++jq8AVr2555eKUMBgy7GalGIMtM7gaDe009zP2AbNPu8WxY8aDf2sRz5/vDcdrS4+e0jejWfT7Rka7Vt7YeMhLjhI5JEB/uOqpu2GOnejXWGsNLPcvrUMC4o4/55iYtrcaM142rF4WnHloRPv7oGnW9Q+zSGnVMwkN/MrUH3M+bIXfTvvy1k8WdunzhfOjetSN0bf4gSirgRYXZ/qvf+Koa1MkKbgSFjm2p6D7lBTp4vMtIV084fOKcrG+Y67usEhjLS1ILnj2EUf8tAEGAMFCI589pD/NmMx6wLczuaJWlac7sdk2nxs8EEV40Fjuca3otTXf/emwH7Dn84XfeC7/3jbcH7SPMl9Qz9m799j/9tSgZHXjWTHnfYl9zfKG//N7ecNRe/qHGWXCLp0+brm1iHrfC/Kkn1oXHNy7T0jt082ZkZExNYKHnI/uNzQe1hhlkQZb6IeoCgGVm9bK5WoT2hSfXhfXL56kLbrQTr2g/6DL8nW+9Hf78h5t1DQl8sC5bNDv8za88FT7/9AZ1/d0LoE6GyGGR4/7zUU/PFuvNQYR7L1ySoaTbZIS77IC00VPW3+8bDpAHlg8em/w3CSbfwVsWWX2PYYrJEKuWzpHxZ83SudZOdxSTIyZr+8uv5x1+Y/Oh8Ftfe1XvdhnTmppC++KloXP9hjBz5eooddx15C6BdwLzLwWOcXH04zNm7tjpHh2MqeNrgFlTWh/N4m8VvCTTG+xLwdg0C+jy9ccXnBY/tEqD8YIQPgZmQu5mtLZo4/tmI3cdRvSIpzsZXdJ0WOXDvcZqmiaUTEUwlnHv0bPhL368OfzZDz/Ul1wZN0vuABZRKot9R7tUsbNH5L7DZzSgdijyzpcZ7zPd+JA7umNYgZ6umDxRJiNjaoEhMh/sPCbLxuZdx7QcBgubs65dvRqAOpnJeA+uWxw+/uhaa9dWWOM/W2O2x1L+hyN31DHz584IX/r4/bIOYRWifkfebudh0X7ai6kEJrDRQwJ5o1u1q6dfbSzErZ+eE+L73aX+5WAiIiSPdBC4PtOlPcaiR9197Rq9Wbijmww5HCDlrKLBcC02QuCjnToeF3K9eN5MxbU2e5tKGz3ZnwH3I5O7EcALhEmXfn72o8U0zEKGLJnBLJyTZ43onevTzFm+Kngx643RuBnwVdBkLxIzPtkvFX8igIz94qWE4FDoefG41+y7S2XT1tKsF5EZWwz+JC++CluaLb1VUoQxOUP+GhqxJfrLyjvbHtMykSCKbxqQ5XQPKZzpg4oCiSVuYOCKCjpfWuzdl8KArzMINBXwBzuOFvKEWyF3gG5exl5A2DHnswL51r3H7ZwXwuVShVsG95z7ttAq+ftWLVT3yaP3LQ1r7et9oVXKU63izci4lwCRYltCuvUgdO/vPKphMdTfkIuhgIWesVZPPLBcdc6m+5aoq456cqxlfjhyR51LfX7fqgVa2YExwlgK9dFucup3xvSpLjd/shayIoCuJYYB9Twf+qS91XoccN1ca5p8UNTl5mHIisYvm47qdqvLIcrU60x2ELm7fE1twNke7/3CSqfx5hYHuaPdZKjMFSNufMhrOJKFySvtEDUegKRTh7OIMGuhYoljNQ2GYzHJknFzTLykN417j+GkuXHwkjaTGdypCSd3zFB89pFV4X/8r35hSpK7MnhReeF4KfnqYAFEZsH68ieQvAtaRqPbSInMy1Hv0uWx9fePBRRcvuoo8NobtcFIXAxTuDlSoaeCarcDokiFxHZbvhtDqXvXnFnRGphI4K2Agk+hpXBTyJO5nMqBrVu4PxRc5FQQFHKWKQFUthx8uXHEpAVuldwB8uSZspAl42yYUUXXzIFj54zMDww6ZwL3E2sqXSgbVy8Mj21YFh5at0jjcCDTPJOMjIzJAco4QzGYIcnOQ+wRut9IHdtMUuekeqkWfEjT87F+5QIRu489uEID5yEF1I83A9qCocgd1S1WQAgeR5uREOqSVK8TR/0N4aA9hagA6hzq8/I1kY7hPejeaj0OIAsyclBHm79Sl/vWbHzA46duZ/cOer3QYUcn7j/piUvtAKQNOQf+oZ7BrUD30+4JbQXDmXzdU4Y7tYnMYZ3jgNxhHJlpJBldrZ5RIspTDdxK7vVP398f/t2fvaY1GssYF3IHO2btl3/xD78y5cldPfBSYrFj1itWuzRbFmsQx8kz59W92GdEEDLDlwuFmRd6oghfPVC4qahUUdhLS5jKoglCyEsc32MseFj3ZP7Xy32rL7hPBOGr7vIVujv8N1OQ+Urja+76Da8o0lcaL+VoMB7krgyssnzFQ/Besy+d3QdP6dlRKQ0F7ieVwsolneHBtYvDUw+tDBvtq5uKA+J8sw1ARkbGrUF1ipVduvhOdp0Pm/cc1+D77ftOaCw1XYJD1cHUj3wUY9Vhl4EXnlgbHlm/VBPuZrbf2mzI4cjdaEC9TL1T7h6EjFBns+d5QqMRQX4Deqln5laQCBk9LvyGSl3Ogs+sHer1OB/0+PldhG8XuBXcF34zlk16pbgvHfa86F6lC52Pb/zzOtsLssdwJnq47qahNendZ6eN3/mrt2WwKGNcyB0TAZ7ZtCr8j/9o6lvuRgI3RF83Vmnw1cIWZSJ8RhCYjMGkjMOnujVmr6v7gsge+hQGCgsuD+U2locpjfEmd4DKi1lybBb9w7d2hZ++s08DeyGiQ1VUVCpUDGwOzeDqRzcui+sdLQ7zZ3eI4JW7SzIyMiYOlFJ2IIJcnOnpC29uORze3nLQSN2pcNTqX6xMw9WxqVeDblhmR37xuY3hvpUL45aEt04AbpXcZfgzok6FZOMSprcKMs4SZ5C45Sx1ttCInNXBEDismHyI89EN8bubQVsFCf/j738Q/uR774cd+0/FGMe4jbmjAf6XU3TM3c1AJK0ga94lIJJnlQqkj+7a7vMX1YXLWmp8VTKGD4vfzUzbvlcxEeSO54UlkQG8B42Ms+Dl9+zrZ8vuE7LKDgcqGb4aGXyrtZDW+FpIjMlj+RWNfcnIyJhQMCaMfaI/2HEsvPHRfi1BRfcrdTAWJerloUAZpqw+/ciq8InH1oaH1y/2raPG0bKTyd2tAYI9155RssDxAc16g8xspXuabnQmH0LoZnYYkTMiUxBBO3Dt/10Nkbsr18LvfftdTUZkjb8yxoXccZOZVfjf/4Of1wzPqdyPfbPgRtM1iZkUSx3Tthmwj4WP7txeq3QS6WOAKVO9GR/CTFxmdOLX9HAjF0zqGKZuuqcwEeQugQqYRqL7wkV99by77Uh4077+WQxzuAkzVBxUPnzIsCURJG/jqoXhkQ1LwwNrFmr1+nvlIycj43aBOpbtpnYfPq2tINkujDVEWc4KUkd9Sx08FGj8qU8esQ+xpx9eGR6z8sqEBj7UGKZyK92wtcjkbnhwr/lInmHcIa0SMX+2LxNGnQp5E4mzY0Yb48bRaw2dpst4RMbYNdrzxOVIXdf3EigPvFe/9fXXwzd+slXr7JYxanJ37ZIRj907w+l334qSCigwj963JPzT//KLYaU1dPSFZ1QTPiYU8EWZyB8TNSB2mpBhZI9195h4AMFL08Mv9vsMpDTbiEGqWPzIA8KItfBux0SSuwTG/2HFYyFjFlN+Z/sRazyOhcPHu+3LaOhKmQqKQdDMYmbvQdbFun/1Qh1rl8/XEgfMZKNRycjIuDlQXzL8BSs7CwIznGLXgVPh2OlefTAzFmy4XhDKKeRhpZXHx7S8ke80oDGzrZUJC+OJ4cgdPIR11pqNUNL7w3AQfuPdAu4ny44wUYSxgBAzlveCzNFtKlJn9ToHE0p4NtSTLByfiB0zWNOsYcYViszZwXi7e5DH1QX8AuPEv/idH4cfvL5LEz7LaGix+7psRZhl5G7GkmVR6qgidzesAezZaxm8/gq5RqmDWZes7PwP//oL4VH7GmJXiIzhIeseh91X+SPx42DmLZY+WfysUtNxgckcvrMFlQHT+qnUrpg+X6yqILAWXvGZSfjTw/cJDeVn5lPX0+DY8QAERjO8IPal0ocVlwGvabYu3R4UWj4ACNONybWyNAmLDNd2p9wOcpfAvWPs3cET3Voy5X0jeewffLa7b8Qvb34X3TqQvBWL54QNqxeER9Yv0YKYdC3wdZorpoyM0YNZ9JQ9hrPsP3ZWe4iyi82JM+dVJ1JeR6q/IBIsfaHhE8yEfWilxmnRRkEYJqo8DkfuqCuYALB+1fwwb1aHriEtIUJ9zYDCy1d9Uh7tAWHqdJaR8lUHYkaGK9LzWarjAerkRmbt2n3jOgkDvk/TRAaIKWKW78KqlnTgAcRDwrDIMe6N5UVmz2zVihqs4jCvs0OuwhBrywt9uXEyoIe9azVjaNBWsvrEf/M/fyO8/uEBlYkyGts7wsxVa8KstetD2/wFUeqoIneg98DecOKNV8P1S5eixMEDpUH7z778ZPjS8/drPEPGzYMKC9J3/Zq7FFwdVmFw8LVHoWetICx66srt9zWI+MLF8kfFx4BjFpOEsKiSiCB/yBRpWcxzPMAXFpMN5tqXV7lQUlh5HyBpEEAI0OwOvs68cuUrDevkD9/YpYWMa62Rt5PcAe4NRJl7BrH74Zu7tQAq6x7S9TOStVQk134zX57sRrJpwzI1KPevWqg18vhKVQWZK66MjEGgnhuweuyCfdiy/BQzADnYZortw+jNoC4bjtRRtBqMeDDjddWyueHjj/lWUhtXLhCpg0RMNIYjd3zQLrYPvl/+/CZtc0X9SN3dfX5A637y02ioqdepo/mt1O+E+y9Vz/71D/8BLUsy3D0ZLSBura2NmiRJj0TqdYBsURd3zmJhfV9mC2sbExt8GNY07fYwZ2Z7vP/+IS+yaC51PXq0E7jE5R6NWwPlgI+fv/PPvha27TshblBG08xZYda6+8KsNetCy6zZUeoYRO76jh8NZz58L/SfrN5flgfHFlqfe3pD+Du/+pwGp2ZMPCjMHDzUNLFD/mi1A6kijMECacHIWvnNgkKsQmvvQhkq6KWCTKVABUKYOPzsifdH32X7sXc0+6eM203uypCF1Cpb9qP86fv7wo/f2u1bmNUUoqHAb4TIQWBXLJmj2bWf/dh94f7VC2TNzAQvI6MCyhUEZvuBk+FH9lH17vbDWmaKIRNaPHeUlRXkjR0gvvDcxvCrn92kpU0YA8tH1+3C8ORu8PZjqsc54sc26enRSETOw17fl0Fdn+SjvD3DgirJ6/I4jq1URVGfydqZwhYPWUvVWLLAZdweYGx49aMD4Z//7z8Kh46fi9IKWubMCZ0bHggzV68Nja1tUeoYRO4Gus6Gczu3hZ5dO6LEwcOl8DCg/Df+5mfCQ2sXi91n3B6UC7x8MeiO/fX/g1BbUdwq6pnRJYl/iljzVDSnaSzNeO8tOx7g9lDZXrSvZVa8x3rw47f3hLc2H9Ss59HsUiIya1+xkDzWXJrf2a5dLyB6jP9hXN7dPmU/I2MoUAcxRGTHwdPhPSNzLDKu3SR6GYM8oDJWj9TUA8NCNqxeGD7x+Jrw8U1rjdT5wrUs/E7dVKd6mjCMldwB/cL4O90vr2B3QOGSqAJLU1d+kxipHq/8RTd6APc4ejMmFpQHlvP6rT97PXzrpa2akFkFexatCxaGuQ8+EmauWBWm1ZDuhg2//l//ZvQLdAcysaLv6JEoKcNnEK5eOldbtuRxd7cPXnENPkQsOOyLq97BV9Z4HvXOoSNeR71rtP/aQJqJDIynqbWKUREuX9gZvvKph6Lk9oFr4/r5UIFksk0Q7/e65fPUbcF4R76e0td2PfBrqOjZkYMuFhotiOH+o2c1K3cniyif7zfi16IPJM6XkXE3Awvc+f5L2vP5px/sD3/x4ubwwzd2amHxXVYeNGTE4rWkSU19UAvqkNbWJq07+fMvPBR+/pMPhuc3rQ73rVigxfVZwN3rnpjgNgGOhtX/w93HNAmkXEdoOMqMVm1ruHbZPJV9wCUOrh/9GK4ep/ejXn18s0f9c9iRriNe06BDvyLjdoB28tiZ8+E//NVb4ZSVl+o2yJ5RU1Nonb8gdCxeEppn+sdDGYPIHezvxrWr4cKRQ5pgUQsKLUuhMIic8UUZGaPBZCV3CVRcVHpY2NhUfMWiOVpAk48YBgYTh8VxpPW1iOL3pYHijCliCzS6pY+c6gkHT3RpBjWFk7GJDFjOyLgbQLkYuHzN3vez4b0dR8JP39sXfvLOHm2dhCUcax1lIq3/OUwxEiAbc2ezwf+i8Jmn7ws/8+zG8Kmn1qvXCGsdM1HRuVOEg+sfK7nLyBgtGFuPlfvPf/SRNkqoAu1VS2toX7I0tM1fOKhLFtQld1byQv+Z0+HagDVCNQTv6rUbaozXLJurxu92jnHImLqY7OQuAZLHVyskj66U+1bMD2tXzNMMWaxuVNo0YlTkI1kcRPRMj9nPR43YUVDZOont7JjMgRxLH2Mm/as9zezjK1lZZGRMSjgxY9LXDQ34P37mfGA9ug93HQ8vvbc3fPfVHRpT976RPBYe1i4+IxA6XnnIWlNjY1g4b4Y23X/mkVXhi8/fH37xM49o7Tr2gtX2XJOggGRylzGROHj8XPjGy1vVZtYOWYCnNXXMUHdsy5y5suLVYhC5A1jsrl25Ei51nQk3rlYzxtSgMbli4byZWpRwMhS0jMmNqULuapFmAj+8bnF4/P7lWnKBAcYsaaAJK/wU/Zzq3zQUmNbOwNh3tx4Or314IGw/eNpI3iXlQwGGOOJOm1YZ1AzTyyUs407CX3EnZ3yMsPE8pI5deT7YeSx87/Ud2iLp97/1dnhv+5FwzD5gsNCNBrKaGxlqYZa9ESImR3z+uY3hr//cU+GXIHXrl2jJDSZzTaZywL3I5C5jIsByOe9sO6Qu2f7+mnJkhWCatUGQOhYubp45U+1FLeqSOzYtbmhpDn1HDoVrly9HaQWsxcOLTaO3dtl8awDz7JmM4TFVyV0CDRCLdjIcIU2U6JzVFvq0lqCRvGuV2cyjAXoU4BOne9UYvvj2nvDm1kNh/7EuDT5ngDgk0rNzS17+iMq4E+CDHuLCsARZoY24vfLB/vAnP/ww/PuvvxG+8ZMt2k2CLRhHsmbXguEOdK+y9RSWuV/87CPhb//Kc+EzT92nFRl8okRUnmTI5C5jIsB79ZG9U9/66TZtvVcLrHYNra2hY+my0LZwYWhorrxb5TaiLrmDGU6f3hAu9faEq/0X61rvsC4wZmh+5wyNS8oNT8ZwmOrkDsjCYAWLWbGstL5u+fzwMSN6D6xdFDqs8mZZA6wagPJBIR0JEELSYAlkB5PDx8+FzbuOh9c+OqBuXMbssbsJoMtK946MrbhxPbnUZYwneLXYk5kZrKyrxmSiw3FIwXdf3xn+9Ecfhj//8ebwqpE7dpA4e65PHykQm9quo3qgmWBSHm0Ha2ZuWLUw/MxzG7Ue3Jc/+WB4fOPysNjaEw2BKIYpTE7wczO5yxhv9PZdCt97Y2f4zivbtclBLaY3NobmWbPD7PX3heYZxr2Mqzkq5U9tVTW5KzVIlCr7f6WnO1wzgleLtENCW2uzL/VghZVxQxkZ9XA3kLsECg7dtazQzuSLxfNmadsjKnEW/ITo8QspD7ijIXrEM1kDqx3rgJ3q6tNWM4dOnNPsQvbY3HP4rFbyp8CniR360KJNobja+XIRzBgLeH/0cXH5miYB8W4dt/du+/5T4Y2th8JL7+6VVfn1j/aH97cfDTuN0B091R26e/uLiREjgfcSQke3KzPQVy6ZGx5/YHn43NP3ad3U5zatCg+uXRyWWdmBBEGMSDPZQZnN5C5jPAGvYszq917boXq/tnxhtWtsbw9tixeHjiVLRfRU99PSlFXNH8mdS70BQsnDJLxyvjdcvXgxXL9a3e9LhcB2KqgumDtDS0iwBtFUKJQZtx93E7lL4E2HwLHFDtaGVdZorVw8RwSPyUZsw8PEjBso2k9mLbyijI0ACjWNbVfPRc203Xf0rJaVwJLH5tGHT3Sre+zMuT6NfWK3EhoXHfbRlSoFhljkEpkBNBHI3gttc3X5qj4kWKLn6Ole7dTCsj1MgHhzy6HwxuaDdhwI72w9bPLjet9Y4oeFhmPzMCxE6BqZfd6kHVvo3dm4emF46qGV4eOPrwmffHxteO7RNeGhdb7/q5YImmJtB/chk7uM8QDvEmO4Dxw/F77+44/Cu9sOB/ahrwWcrGX27NCxYkVonjGDCt6kljiWyXIJMnL3G79ZNqfLr7AdlvD61avhipG7axf7orwC/+Kzwm7+ZdY4s05Y2l80I6OMu5Hc1QJrHuturbHKfBN7zpo7b06Hdq+YaQeDwiFeFEFRrjEUE+4Z452w5u05ZA3xvhPaVYMZipC8U13ntcwEWxsxhZ5ZuNeueTkmLWQvlXNOm8vo3Q2eNc+dOpq1GqmneX94P7D+HrKPBAgdZZKt9+hmxUrH0iVM9mEx79NdFzQBaDTWOZAIHeUA6zVDdujVwSr35EMrwqeeXB8+/4xb6tYsdcKDRW+qvosUp0zuMsYDELuz3RfD99/YGX7y9h7NMC/zMsHKSUNbW2idPy90LF0apqVltAq15LnhdfzP/clxSW7Qt1POy8IsaHyl70Lo2bcn9O7dHa7198fIClj8ddH8WeGrn344fOnjD2jAed65IqMWfJFMxh0qbgcYk8SsQjZFf/XD/eHQsa5w+lyful/TXrZejkc3Tm8otLc3a/kW9oBeuagzrF0+PyxbMEszENnEvKOtRVZGtkVjOQlZSvy/IXfpTlXUvjs0ClhyWUTYl9u5ohnZZ3v61GgcPNGtNeeYtZ3WnbtZ+DvDMj6+EPjsGW3qel08f2ZYt3J+2HTf0vCoHbyXvj/p3QNI71h3qMjIqAUWdazir390MPybP3lFPTPldylhmhYtnh9mrFgR2hbMD9P1YdQYrPCpu1YrLDD+zgql/F/6o6OpSoiOu2KN9vJev2qVw8mToXf/vnDx2JFBCxtTuFmXCPP6Vz/zSPjEY2s0lZ0vsoyMhHuZ3CUrCl1aNLSsCcauFVjftLCrEb3zfQOh9+KALCWMp7sZyHJi5U5HtKDgX6QxgZ1h+eLOsMT8i+bO0ELkkD1mAIvwNTeqQRLpu8sa4bsVNArsjcxG85A41pKD1A1c9gW0DxzvUrnDUocVrrvnoiy6suZZOmZ5814OshCMEvTSMOYaqxTvE8sEbVi1INy/ZpHWh2RYQosRPt6ru7E9yOQuYzzQfX5Ai37/7jffDh/uPBb67IOfsl2G6vaZHaF9KWPtloTpzc1hWkOjyBzHdLpnox9duV/6oyNWukkeM7NM8YnEcQJmTl20SuH4sdCzb3e43NPLW+26ERA8GoqnHloRvvjc/TK760stE7yMiHuZ3JVBkWJmLAPXuy/0h3PnL4bjp3o1pmnfsbPh6MkedfUwQxarHg02G4ffCiBu7W3NaojbzI/ljnFQLMy8cO7MsGj+zDDPGufOaHWh+5jlKZrto81JX4O2eGqy8pyJ3+2FCNwVZlNfEXmAvPH+YA0m3HvhUjh17rzWlcMarPfqfL9mXkP4+ozMYZlDFwvxaLtY6yGNoeNdmt3RGubNMUJn9TwTJNYtm6dJRRA9hiHMaG/Wx8XdjEzuMm4VjJdmKay/emlr+On7+6w8D1R17ydMtzq7deG80LZofmieMct4nBG7Erlz6x0kr+Kf9qU/PFyUdn3BQe4iqXNydyNcv3YtXO7t1pZk5w8dDtcHBgZZ8ABbwnzs4ZXhs0/fF542d5GFZTqM8Rn3LjK5GwyK11UrR1jtIHSsE3ai63w4eYbGulcTKdg4mgYbi0tq0CF7pL0VMPmp3cjeLCN5jA3qgPjZMXtGixG89jB7Jg20EUAjfT5msMUtfS2NvhyMNV4NDT5rmPX46HJjiZg8Y3704BnyLBkThzUNSxplI1nVNPHByBwkH8LGoXcl+hlwfdEIHA0EO56cjx8DWH+xEt8KeIwNDQ0i90x2wMLLNnysbQpRYfgNljo+ENg1AisdHwf3EjK5y7gVUG5Zz+4Hb+zycXZneut/fDHkoXOmE7vZM8P0pmbjVU1O4ETwIpkzYucyC+NP5I7xdRA6N9Hj94Mw4/GuX74ULnWfC737D4SBM2fCtUsDrlMC5kDGWjzxwIrwM89uCE8/tFKWABqAXOff28jkbmRQsPsv+1IobKx+/EyPxkjRrXbSiN8ZI3pdPX1q1GlIaMC5l3zp1RTFmwZWOp5HmgDCeD2I3Qwjdsjw09gjh8xJz0hhSzOTSdpDo1VETvaocLybGMKHxa/RZLjUExBDdO428BywtkHOeCSQN7o+mUijMczFEjYQOF/fEOuaj4tzay0H/kTqed40BHzVQ+CczA3IIlfvK/9mwDNqaJyubnmeq55te2uYP6dDe4jz4c6McHYlYnYrCwwzeehu7G4dLTK5y7gZUP75KPtoz3ERu9c+2K/xr3zMDQLl0j6sWhbONYI3KzS2tGgixfRGI3dG4NyCB79ygmeF2OpYSJ6FIXcicFbZqGbiiOQuETv5r1sjculS6D9zNpw/eCBcNqJ3/cqVqF8BlTdfd088uCJ89VMPh4fXL9GXXSZ49zYyubs50D3LTFiWq2CmLN1vJxlDda4vnOnuC+d6LlqDPyCiQEOfiETdL8BbBMSPLjkOLHqQPKx+dMXR1bvAyj2EDRnrXkIUZhj5w21umm4ksEVrnUEIsBpiFYJUaIyI1Q24IPlTOCGRxNEAvaGsiNwb1W0xPBS8/uNQjVggpU/AT4WNiDgaeQgYZ2A5Gw4n49fUXYqlDusa5Exry4nQGZmDuF3ot7SXROzQ1VpypXONB9L95VlBshutcYDMUQ6pu1m7cb6ROUgda8+xrM9iIyfzjMzxzGufy72KTO4yxgrq5ov9V8KOg6fCN1/eqi0o6aFh0fBBsGI23erOJiuTzfNma9cwlkKZNr0pupA4q0Mhd5A5We2QR2vez/7+QeNv8euPSqSw3hHEXyF9+K8N2Ffl8eOh79hRI3jdg3avAFSsVPAfe2ilVh1nqyYGcd/tYzAyhkYmdzcPEQxzaUz6rQE5c87J3tFTPeq+PWVk70z3Bc24YqmLcz39dQfljhe8bfcGvtzOGx2TmK46kTcjAnONEDB+j7FamrVrcrqEZ7W3GklsisSCo6moHyCRdAP61lOVE8wwUgm5GI21iN0PWi19LRmE/IpwGbkaaSwj3eDoYiG1ZAW4t8g1GcHCkOoLRubUnWp+rHBney7YgwvhwoCTtn661S3N6e6Lyu+CkTfyYNs6FFP2lUdGfRu94wiROrt/zJ6mG3VeZ7uRcrfMLZw/U2RuuR1MvMEyV9n+ywl4RgWZ3GWMBdTjTJ5gIt03Xt4W3tx80D7Ue+sTO8O0xumhcUZTaDbuNL25xa11WOZkrYPAMfktEjodpTDuF39vv1ch1CTDEDsOtqW5ce1auNLXF/pPngwXT54IV7p73OpXAyoQunAe3bAsfOqpdWq8tZOFfSFm3HvI5G58AGHDSocJn/tIg8I4rFPnLsiaxxg9xu6dsYP17rTu3YWBYoD9eHXjDQd1xRqpgkjgx1W3XwMuYasf7MsSHWSQQEhbc6wbqCPoEobwlckZ4wOx/o1mL2u6iNP4wDIgX9wHukJHuheQLyyn3OMyUaZ7VPfS6j3qy6tG0HpY4Nc+dFGj0b9m9SQp5IcEWt1JNcl6VuhMlHW1DO7cdPv97IEMsebgvjB2jjFyWOnoauUgTDnEygrJ5h6nZ5dRHzw/1pr8N197Nbz41m5ZZhMyucsog3qH5bDe33E0/PDNXeHdbUc0xIZ3JnGuKlA3tjWExtlNoaGlVZY6jbOLBK8gd7LalQhfQfASuSPzYYgd8rJMCxuf7w39p06HATuunD9fl+BRMXTObA0PrF0cnt20KjzzyKqwceUCdesM1WWScXcik7uJgZOL6z6Q/jJdfSy3wngtiF2/VSi9Whyz0oXr47kupDXQ7IDE3OzyK7cKtyTFsXmRiDE5A4IhYlaqJiAejOcbTd3BEhx8YNaSk3S/KmsLDg30IGNOzirKfGkjT9yMRl7WvQkma0OBnyhrXKuvZYhVDisnfrrM58/tCPNmx+7Wzhkie8gh1OmgW3Y0FtGMCiDo7Ln7z//jj8OHO49WlaFM7jISWJrooLV/724/om5Y3hV2FkofeoMw7UaY1mz1Yvt0I3j2gdvky54kcicX8lYmeIonjAvhE7nbx+jeovJyImeNL2HJLMxXZiJ7SK5bxXb5kkjdwNmzRvLOaosyrHpJpwy6aNlknVXKn9+0Oty/emGeaHGPYSRyx+zqf/tPfk0Ne8atgTKcxnUxHk+WKjs0jusCXbd2GNFjhi6TNxgfBslDh65Izco1woc75Jdlxm0HZJcxixAxjX80UobV0y2dLSJtWOYYD0mXqo6Z7Va+mtVNTjnDIop+HiJz64Dc0WD/s3//g7Bzf/UOFZncZfBRyBCOPUfOhLe2HNKBpZe6d8heAyN2ofF6mN4S7DDiRu8FpE2kDsscxC75I5ETmUvWu+SH3P3u3htlq5ssdEbeCiKncLTaucBI3FUneFevGqnrC/2nz4SB0xC8/iEJHl+HSxbODo/FbtoH1izUfoNUUNn0f/eDMWJ/+J13w//+F29WdV8AGpynHlwR/uf/5pdkfagdJ5UxPsASpa7Gi3FWZrTecTBmjBm5Xecvhp7zAyJ93XG9vctG8rRch5HyZPViazN3ffZnxq2jPMGBNeWwpOGHyOFnkkon3ar2sQxRo1uV8Y0sVcP4ObfYtYjMEY/1DlKXMTGA3L2z7Uj4b//d97QlYCZ3GYCPYQwY1KG7D54Jr3ywL7xtxG7/sS59YA/5sRyJ3bQme48gePYONWC1YyiLrHdG6pgsAalrtDBWuzSxQkQvkTsneNO++Dt77FyJyJl7w77Uy2QPEgfZiyAMuXMC5120V/suhIunTodLZ85VCF4d0HVARfTAukXaOJquWha/hPhlgnd3AyLxB995L/wvv/9y1cBjQAO0acPS8N/+vS9pMDeNWcbtgyojI9xdVhmlZThw6cKlm7fHCB8LLjMYGMsf66xduHBJ4/kgiqlLUv+oQuyPH95lCSCAqZ6510Ddpq5k+48rb3Q97AcfORAzlpeZNdMJm0966HBCZ/FMFNGahFZnIkOXHUYIZ9xeQObe2HIw/D/+v98Ox0/1VHXLi9wtnh3+1lc+ZuTuvrB4XiZ39wKo41jeiF2IPtx1NLz49h51wzIOutaoUYXp9u40QOxMp9H8dM3axx4kTqQNIlcQPPdbhEicj8eLOtEVyfvCf9xdvJEiblXdr1jsyt0yVkHLahd17ID4Xb96RfvODpztDpe6zoUr5y/UnUULsMrw4rOaOdaaT39sfXjmoVVWseXK6W4G7xDk7r/73344iNzRtURX/f/1b31a+1Bma8PthxdnJk1ViJlci2MMX1//FXOx9vlkhAF1+TID1MLmMmnDrYKXQs/F2M1rcrp++VTECugzVFNdcm+A+k5WNCNhTPAokzEmiLAXK6SOYSrIdFg8Osjb21o0s5j6kTGHrB0oMkjeuIT5hyDjtgIr9k/f2xf+/v/w51YeLqvMJFCnrV0+L/zdX3teY83pKs+4+8GH8c6Dp8NrH+0Pr76/P+wyP/s68yFQfj+q0GBEDlLXwGFKqSxboYbINTS3uh+ix4QKkbeS9Q5CJwvedDsqRK8gdyJwg6x2aZBwvCojftex2kUdddkyKBBSaLJr/QPhUk+PE7ye8+G6Mdh6oCJiiv2CuTPD/WsWiuQ98cDy8MCaRXk27V2Mv3hxc/iXv/cTLd9RBmR/zfK54b/4xWfDz9hXLhaJjMkDxo6UF+OlSzaFcfkihfDRfQvB6zMSB4FPZA+KeKHPLXw0iCwJwrg/wKBiiOBFkxFHfePhy1UD1NP4FcYBDjleZZzBBI9EtsozdBnz5ku9WCUaWRUWNvRYqJnxbFrg19wGi2+FzNnBe17Zx9d3CIHAtTU7kaNnAzIIacPP+FOuwSebROtfxqQB3W7fe31n+Kf/67f13pbBs31g7aLwG3/rM+FBc7G2ZtydgDvRDcvSVMyCZRzmtn0nwuET50T2hv2gxVrXjLXO6jS6ZWuKOIStscU+DKzsy2qn2bJ85Fnd0tjiJE5Ez3hTJHcNInfmr5A7H1sHgUu4fu2Kk74Ei0dmQgvEL/xI7gDu1f7+cLm3N1w+121uX7iOlYZ864BKkC9Z1lZ6eP1ifeE8vG6xTNhUnBl3F5gC/m+/9mr4aOex9LkgML6IRVK/8umHw9/68lMaS5QxdZCWZ6ESg/xB0hIJ1Iww02G8nsff0OwxGkZAOiyDmrELubO8WOTTw16vAPKC9F2ytOQxEljzr96K75AkCBuWlZEm76CblmnhHU3gwxSSBsnDcgZmd7jljTFz1GuQPdKIqFlFm4hbImqcm+29NK6OCryUf8bUAGOo+GD9X//olSipgC70x+5fFv7J//kLYfWSOXkCy10K6pizPRfD9gMnwwc7joYPdh4NB452adIE9VyZPlWBblg7fHyd1VOE64Dxdo2tbvXFOje9ga5ZJ2/TI7lLs2V1mH4xDq8gdzVdsuBaQeSAuZC7qyaL4YrlLpE3+5K/Zl/WAwPhSt+FcLnbSF7PhXAdk/UQX9t8jDbZxfClu2H1Qm1Z9sh9S8LaZfM04SLPnrx78NbWQ+F3v/lO+N4r26vIHY0d3VLPbFod/m9/67Mi+9lIcXeCD0LIGeNSPOzED2Knj0WTpYka5Q9LvCwSDGms+uAcAmzfVtv9DyBfabIBhGs4YJVDx7dNi0JDsqYRl15TLHGQNd5bCB0EkPc64+7FO9sPa6jJX724JUocvDfUZ889ujr84//j57SOYLLwZtwdoA7jA5XdJViUmLZt+76T2j2o3z5Ch/0AhcgxcQJrXYMdQxA7UEXurH5RVywzZiFxTbiQOuQVcidLXjW5i2PpSqgid7iMr6NbNqLcLRsl8qNzw0jg1YFL4dLZbiN458O1/ktO8IapmPnyZaX0+9cuUsFg2RS2LqPLgi6OXDymNpgS/uf2pfvvvvZ6VQPNc8VCsn7lgvD//ntfChtWLVBjmZFxs8Dyh7WvFpC0NBs1d3Nm3Cyov77z2o7w//v6G2HzrmNR6sBKt3jBrPDF5+8Pf/uXn83j7e4iqOfB6hbWDd2690R4c8vB8P6OI+qSZXLZsENGqG6KGbHGmSB2I1RBVeQOwtbEBIvB5E6Ejq5Z5JpRax+b637x7/+mUorYVVeGsuQVsDh7ocsyv65qGTo6rOLk5I1trTIbQhxv2Nc6m2cPBb7eWXOLDdP3Hj4TdhsZuGH5UDgYjJxWt8+YmqAx7e7tV/dsLfiypcGF2C+aN0NjVjIybhY0sHwg1B7IZXHLFUnGLYBxpj99f3/47qs7ZHkug+76pQtnh08+sVYTxbDiZkxtwFquGz9hBYEte06Er//4o/Dtn24L72w9HI4Zseu/ZNymZLCoC8hcyzUfY4e1bhRVEPUU4+zcj1XOiBwkz+TyI7Mv1nRwpZpkZf4KuRNBq764KtIWL6TWugeRq+iZkn6gHebqwqhI6aJg8HHT9HDdCoKP7fMU9cAXNwMR2TB996EzWviPZRgoNAy2r91SKGNqAOsrG6P/5N29GlxfLgtpxt/CubPCmmVztX5XRkZGxmQEvRAvWT32UY3VDvBhun75/PDlTz4QFs2dqS78jKkLSBvbO76++WD4o++9H7758jbtTHL8TK/2jB5xDDBEDksdxI7ZsGMgdrLI2aEW0niPulsjuZMcUlcieEoX/aMndwAiV4fc1aYjPC3JuEBOZi/4dGvcWXHZLsvygeTVpnMg5YbxdcQ+juyXidnz4Ilzusl8eTNuhkLDj8yYGuBZQdp3HDylsQm1JmzGU0HgN6xcEBbPn6nnnJGRkTHZ8PJ7+0TujtfM/Kc5YkcmZsp++YWH8iL9UxiQOhbff+m9veE7P90efvzW7vDh7mMaZ3eh75LGAI+4gHsidk3XK8RulIDENTA71sgbL5YvcRLH1U0n3ISS3q+C3OGf5gRwDOTOXlCiy7LinbWI0o90YleRSS1eAF2105llxuwwix9uHB5iCADLH7BeFkz56MkeraTPoqqsmt/UELta+GEZkxrUcZD2iwNXtIEy1rsy4Pp03S5d1KkV3VnwOiMjI2MygTUdv/ny1vD21sNau7EMhpZQdz354IrwycfXhDypZuoBA8SB413hzS2Hwotv7w4vGql7d9thzY7G2ITRaVhSx7g6iFzcaQJyJ2I3llfB2kGGsxVdskbWfI074znwKFnwGGMHmbOwumud4DkBnFYidyw1WnvBCpdlNfF2tVyvUTQPGmjAK8HokRDHXPsPuWtotQuQZcYEpjbUrhYgkTz6tZlizFRjbjR+HoSWPLC8IXkUpvylNHmBNa7FvmZ/9OZuLYEx+JW7IassY1Z81mx+lhkZGZMHH+0+Hr77yo6w59DpUsvnYD3DjasXhReeXBfuWzE/SjMmOzA6YEBig/8Pdh2TVfbbr2wPr76/TzK2DYNnjDiuTsQOQhdJXSNj4Ew2xmZMEyKYAYvVzuCzZOmO5YDMWRxEDssdJBDSJyteJHrmlsgdqLlwXVBJli5wWOtdJFfISzeioobshi6gsa0tNFhDzkVev1xZYmU4sFYWyyh09fSHXQdOh817jotlQ/yamnzdKAiejkwMJh0Yd8es6J9aoTln5Lx2LTIGJ/P+LF0wO6yzypFB8BkZGRl3GrRMDKr/4+9/EN7edkgWvDJobebMag9PP7JKM2VnWtuWMXmB9Q0rHJMkGO715uaD4c9+/FH4+o8+Cq9/eECL7WOZhfgNz0oMPHxIHDNhGVtHN2y0XY0Z1v6xEHEaa2dkJkxvcp5E2ygrXuqSJQ6iZ3yKdJA8rHrKo0Lu7MJqWKnFR6aa5FjquNqynpO5akYbCZ5Bt4U4C+vCPFPFIWP6bmN7a2ie1RFuTDdmzED7OksY1ILzMUYL6w994O9tPxJe/WB/OHb2vN2YhjCjo0UkIhO8yYX0NHhu+46cLRazTUivBsvfLJwzQyQvIyMj406D3qPT3X3ht7/2mnqPance4MN11dI54eOPrQnPGcFLbWDG5ATbJ27ffyr82Ysfhd/+s9fCd1/ZHnbEyZuMpxvRSpfAY4bUtV+JS5xYult49A1G5Jy8WSZ2sP2YejlF5pzY4YpPQQKN0EkX8ie5hc1fkDt/D/lT/kG1YYP0TFb1wytkroIYLutxMTqgtJU8/CKNcdJda4261muhl3iYrtoEsqCQ8TDooj1yoju8s/VQeHvLIc1oYlujmZZn7rKdPOAZzJnZrm1a2GC5tpLUzgTozG4PD65ZrK7c/NQyMjLuJJjY99t/9rrWNaOtqQXDSZ59dHV44Yl1GlKSMXkgY9C1G1pqbeu+k+EbL28Jf/id98Jf/mRLeH/bkXDiTK+eKQS+itoMBxolxtQ1X5W1brSzYIeDE7vSWLrGpgrRi8SOdewUX2O1o8s2dckSV7LccVU31GWMm2BJLGTh4hcjcbesp5MLFV0XJXmELoI8orzQNYld2HSWTbGD5VMamu2ibxgRrJ21OwQgCZhR2XoIM+uRk75e3o4Dp8IhI31seo4lr0nrDsUr0LVk3E5wx7Gq7jp0Ohw7zeKPl2KMA66HKZz9PFnUepEdeeZsRkbGnQJdd+xE8Hvfeiec7e7TmqxlYDhYurAzfOHZjeGZh1dqUfaMOwfv2bsRLl29as/rojbwf/XD/eE7r27XOqtvbj4kKx2TNFl82HfIiYlHAiQpjamj+7XRwmOYBVsPGiPHZNNI5NQFq10n4iQKazOdyNkRyZsvk2IcCT9j8eBPsUsW3aoxd3VJjik6ShfPyZ0Z2VGRFzRJYuTopfQlKH2hHXURm0wX3SBiN80O/aBG08Tah9oonwB7VjKzhX5zuv8OHT+n5VSOGpnAWnTufL/63NVta0cywVZdV8aEgFvOtnL9l6/as+B59Nax3l3XM2Qc5Zrlc0UG84zojIyM2w16hfYd7QrffnVHePOjgxqnVQZtBovsY7X7zMfWa+vMjNsL2g/IHGO4WY2BHSR2HT6j/V5ft2fGGG+ON8y/+9BpTcbkOY6STthDtgMCV0yWMFKHe4tdsDSG3tUKz/Flc9S1CqnTAVnDQhfD8CMdTuYKf8yDi3E5S6H80j+oTKgQsYlXWvrVnJBEVX3Q6EqVP1EumYULEX+iLOWbEHVdWptvPLjAVmbW+o/UJt1uWozpavIcApAErHmQPGY6bd5zIhw6cU7kj0GxmGo1cDKRPbue0hXpWjLGG9PCrI4WFcIDRrxZN6gMxlNS+KhYWfNu3uyO0MoaiflZZGRk3CbQ5jHO7pUP9oc///FHobv3YnU7aGAS34K5M8OvfH5TeHTD0tCRd9eZcGCYgdBhBGBJrZ4Ll7TpATNb6al7b8eR8OO394TvvrYjvPTOnrDF2v1TZ89rv+maxzcyIHQc6oK9FqY1M1nCMrnFpghiJgsbXa9xmRMRtWjBE+eJxE6zZcvEDque+e2PrHWu65wppWtY/8v/8Derfi0K9q92fgi/g3a1PsErIaZ35SgzqFFOR8oDXR3GTnUGYHHI9MPdHCk/JK+9WUTvBqr2YJ3nlfIbBXgh+i5eCoftJXhryyHtlsDUZ6x5EDzWaIZUuJk27rJhR3EGri16M24edhu1LQ9fW2d6+ox4d1W/WwaewfmLAxorsWrJnNA5q11jJzMyMjJuB1hjlVmUkISd+0/JMlQG7QPLn2wyUvfLn9kUVi6eE2MyxhOpbcC5au0Bz+V834BWzaDnB6PNT97ZG/7iJ1vCn/7ww/CjN3aFXUbysNDVPrMRAbGAesRjWquPqWOjfzoQxwPiFU3GZ5J1DtIGiWPvWAganMdcSJ26aomXjsVpiRRrQKuIHRcauZLJLBCmffH39t/Qxv+DCJIxYwa2V413M8JjjfF17VJR0jcd33HC5EU+Rg/Nz6QILYZclkuXA1mUW/z1a+w9G/UTyAOZ5XPdXIXt4V63h3u171K41n9Jy6jcuEpayyudZpTgHjG7ttlIA8tusEPCmuXztML4xlULRSoWzZ0hItLa0qj4vGjy+IBXgkHKbMD923/6qn1ZXYgxFbAoKDNmv/qZR8IXntuotaPydj4ZGRkTDXoP2GZKZOHN3SIKtR+gtBkrFs0J//Cvfyo8t2lV6JzZFmMyxgPcb3reBq5cFaHD8kZv2+ETbqFja9IDx7pCT2+/4t0wA1cYIxEAsVfQFyD28XRCkt8S3CQkggYBoxsWEiZCBpmL3arEIzO/j79zHemLxEHqLN7IXNlK5+k8X1PQOUTuRJiqCFiEha/fMEIlMhcBkYv6VS86YRG2WiKHbpRLZHEpfZnIJbnpudzZts4hfeLIh+vBb9dmjBxSd/3KlXBtwIjeRUien6sgehxjADevva05zGpvCTM77JjRqn1Oly/stK+yzrDM3IVG9tg9oaXZyKCRvvKG5HnplbGBwkoB/fqLm8Of/uDDcEXjICoPjdvZbPf40Y3Lwpc/+WD45ONrNRONMXsZGRkZEwF6DRij/cc/+CD8+M1dRiDOaQ3OMphEsWjerPDZZ+4Lf/dXng/z53TkD89bADNVL9s9hqBxsJ5t/6UrItWHT54zQtdjz6RbW1d2G5ljkgs9Oxf7rxQ9bWMGxC01JbHrVV2u6bhlQMRwqsmYk7wYxkUmkhbH35lrf1xu75QmUlgaMnMZ1jtzI6lLrtKkvEXugAhUmZg5XAZZiiQMEI76VTc06ilNoe/EzOPK54CgRd0UL9f1k/zG9dRHHuNiGl2P/MiMqduLgDXvur0MWPII37hi8ayZJx1lMmZoR4XmRi1OOXdWm1y+ziB8kDxmc84zf6fFzWxv1SypZAWkoDfaw8PNnK8+GDvBeMh3th0K/+ZPXtPs5gF7hrXgfj+7aXX4mec2ag0p7rm+YjIyMjLGEYzzPdvTF773+s7wjZe2hl0HTxmBGLz0yUz7wH/yweXhP//q0+GZh1bmISOjAK0wC0GzdSjdpRBm7jd+yBozkc8amevqvRhOdV3QrhG0D7iQPCZCsrpCLdEeNcpWuDhBohg/N5GkLhGuQa77ja3Zx4K7ED4TOmkT+UPX9SU3v7peIXrISaO0kfil/AtyByBBBfmqwGUQKuQxLuoWRCxBelGffFJehX6K97wKQicZVhsp80eyZPXza4hx0i9b6GI+FocVTwcED7J32fSM5GHlw+Lnuqjy5+YA4dMiu3Nn6mttHoTPyB2kj2NOJIGsUM7aRzPaWkT26MptaJgmsoefL79cIVCZXtOsZtYc+vMXP9Jm3Jjiy+BeLVkwKzz36Jrwcx9/IDz5wHJfpDpb8DIyMsYJWICY5MUanOxEsW3vidB7oX9QNx/1DjvofPmFB8N/9qUnrY5vjh/xuT6iaaVL22ewXtc9xSqHHyKHNY7tvHrsvqYJjUxuhLydOWfkrrdPhI7lzLSXq7Xjt4TikdiFicjhWnC6ETu6YDXj1Y5bRXz2RrHkT4SsTOLKskJH5My7Xc2jd0hWOAuL8BU6MT1xVWljXiJ2yGM+X/y9A/arSj9M5CeRrxJEymJcoe+kyskXsijHj345L8XjkI8RLcXVytF1fT+PIjx/yBw60vd0nt7T6dqi3ONMny5bCN7A1XBN4/KQQfQsb3vZlJXS4N4aKOx0H3bObA2L588Ki+b5DM+5RvIgerNnYNVrNLLXLAtfe2tTaMYiaGSQh0l3rj9Ue6YiLCbjQfGe8E/vC/KpB38P3EqHHxdQ+BU2l+nrzJr913/007B517FBa98B7sfyxZ3h00+tD7/0mU1h9dI5mpmWCV5GRsatgnoJy9EHO4+Fv3xpS3hrM1uM9YuY1IIlmp55ZJXGAj++Yak+0vngZ4xwpS73ertct+NO5aE7qsPV1nq97nV69Mf6HDLHMlfsQoTFk8WBOajTWWsWwoZllPHWp43MQabPmD8tIjwu0C22C8NNXa+4dL0awSu6XsfjUcTnWUW8zJV1DcubSBdHJGIlPU2IkMz1iJuOPkTP/Oh4XuVuWTuf8izlHdNW4uz42d8/ZM/DfjBPqAAPMN7kKrkFo8VMNy7BdBLxKkiZQD5Rn3xiXul8Fbcch7+SJuUnOSSusOShH9NJj3NB8ojzNIpDx2TXr3lX7bVLRvb67bhiZO+apwm4dN9OAHjsbEszp7NDBG/BnI6weN4sdSti2WPCBoWdcX6arGGVBnK+AqksmhqZwOFdw3T3TkUwdoKxdRpHYW6fFXoeDbOdGGOB7LwVeEzur354IHy486gq2XrAArp04ezwuWc2hK+88HBYYwSPezceZTQjI+PeBfXSu9uOhD9/cXP4ydt7tKpC+hCtRbt9pK9eOjc8sGaRxmMzY3aB1fEdJm+1urqluSm6fshvH/8c6E5VQMCYuIAVjnobKxxhhtJowoO5kDq28Drbe1H1eCJwJ7vOhx6r47HE1VpCxxWFdS66WObKhG6cUBApuXHSQ6mLtCBZOhKpKxGyEqGzgGTFosS0aNJPepHUldIpLa4IpMWRBr2k86U/OGy8KJKcMmETcYIfOcmqAF0iEsFyGTroJtJVHeeky0oKMdItdGI6d+vEFVa+qEOWlpefyw/kOkhJXIxP8nJexDEL+AYzc41spLF6Ny5bGpE9DjKq5Hmr4L7TlUtXbBqHR/csYcgKD3LO7DZN4GDMHmP5+BKcb5VFe6uTPggf3ZB8GbY0mav8vIuXePLX8zWQL+nQjaJxAXeDQimihlU0FlCcRN6413y54b8Sdag0McPzFceXG4UevdNW2KksOM712BeyPRtVHlZBkEc98BLze1n77meevd9I3n1hw6oF2mLOX/CMjIyMsYFdCrbsPa7dC158e3c4fKJ7WALiPTWsrtCkj28+0Kmz+dBkLB71NZPuIHt02TI8B1mHHZ32kQ9IT29Pk9XdVN7Uaz58x+sx6jPqdXp5qNPHu3aji5QPb8a/efvvoA6m/qUtvGpHqo+psxkLh+WNcK/V6XRZ4/Kh3otlzvy+2X6lOxbXj2sWju3xeGJ6vHa7jYnUsWxJQeR048x/qzfQngfPhH/yRxIlghXD8kOsiIN8VbkVeZK5vh1qvyty1+V8+DlfJS8d0V/kn64n6aLzpT88bHcbHqM/0KpqUoNM4SiLeoSRp3SKJ5zcKCvS4kpuN91eGLkAWZHGZHJL+imuIHmE7UUrpdGLiRxpoRP10rmQRz3+GcNTWDNuIXvmXo9kT1Y8WfM8va6XyyXPCQIFm8oBskb3LX3tfO2JxNlBHAUcPSx6uMRROdDVK5LIgzWgS3cvOlE0LuDnU0ghaHydJRM6a9VRIUDeKNQQu/5L6Fyx2wzZg+gxeNYH0kIEeQaqNKJsLOMq+J383lX25UwX7aeeXKcv6Jl2H9I9yMjIyBgJWOaoyzbvPhF+bKTu9Q8PhP1Hz6qOGiuoelJdzUFPC702kD/V7fhjnQ3aWqnLW2TNIy3Ej49y9EGq56jLST+eVRt1+SWrp7FOssxIuTuUsW/8fsgtH/Ea96YPd/+I10e7+anTWUCYFQ4uU49bmGPculbroSBs5nI/EplLFrokS/G3gKItEVnif5nQReJlYY93fyJdSe7hZLXzw/64396Fio75Szqevvoc0kGGHocW4fOw4pOri7W/InfA/or02BMsyFECshiXwtFTIU+Kd1lZX+SrpI9MciMBng4xeuhU0hSyKBfJUl4pv6Sb5ClcTlstL8hdlCW59LgeCB4WvUTsCNtLK38ifOShbFIe/IDbByqIFivwuHw9igwaiXPLnb+MfPkxFg2dKBoX8HMp8FpPqGS5415Q6C8xecX8kDkqg2TJmygwZnH9ivnhE4+vFcF7cO0ifSVngpeRkTES+LDsvtCvPa5ffHtPeOOjA+HA0S51Nd4OJMsddTh1VmG5o9E3UI3xQU9d7vW7xOMCqmU+1J2sWTtXqqdluUNm9Tsf69yP2glutwUQNLklP2PmUpjbFImc7o38KN0MLKH+uysfZAmfukGRI8MPiYrxZVIV/TqkE90UlmvpFBfzwkob9TxdIo6l/Av95EeXi4x5RQtf0i2utSB3CfaQaZD9Wduf0kN3siRPSe76CtvhjXmMU5g0NXLSRLImWYqPOslfRdRAzKvipriSP5LGpEecq0R5Om/UT/m4nrmyEHp6X0fPDsidpZNrhKUgfGSv/PyI2Xg447aACnHtciN4T6wNn3/6vnDfygVWGTYVFWRGRkZGLSA0jAPbtu9EeOndfeGtLQfD0ZM9t43YZdQgkTcgcmWguxU/1rpksWswIkcjSzjpjRWQH5xSBk6OzJMIFDIsdNEtiFVBpBKxgmgRh67JCj13E9GqhKNM+VRb9JzMuX6SyS8dd+2PX3fUTTomcB2li3l86Y+ORFZSDZGgRHjK8eaXzAOluJJuoRP9ydUBIyojxtFNSpp0EJNImALmh2DF9J5/jFcaJ2SDw7iIIW1KScD+x3iRQUVEOfGVfP0a0DHXCB2Ez7tyTY+D9JH4sX7PjatRTlrlWfwpnIyxoHzTeIkHg6/flUvmhBeeXBc+/8yGsN7I3qwZPiklIyMjowy6DRnk/8Guo+H7r+8Mr390IJzruShLVl2o2kl1T67Lbxm11fg0u+/IkuWN7lWAlQ7Q7ZrI3U3BMo3nFPGxQEGk8BNBWA5Ezq1nIl7EQpTwIxN5Sha3FLZD6aOLPqQrplG6wk88usyUreikfOyP8kh+l3sennfUSfFcYQqL4CGKab70R0ftrsUbB7GpgQgOXZGKKsVL1w7950+Mi3InSdEt4glLSfIiTnCdoruWOFcWPL9KXMrf/ni4SF+PJKKf0uGSj8e5DL/rS/eaEUFFITN9ck/EssjH43S9HFed3AUjd24dtP8ie3YgJ811++aI/oyRcYPt7iDlBr2z+jriJa4GcXTRLpg7Izx+//Lw1c88HB5Zt0RjVfIyKRkZGQl0NR4706v9Yn/01u7w3vYjoaunT/J6mNZojWSzNeZ8KDIsJ7UN2AriR3zGKCDrm7V9QJV57EoFssJxH3HNSeTuVqruSHjKZKeQkzEyETTiIlGKshT29OYvCBh5uN/DKa5C9gq9mLYghZwz+r1rN8qkh1uRV52TqzW/VGn/oq7kKW30Iy+ug39O7hLK3orfiYwfLq7VI47//Elx7k9p5VbF40XOA0/xeGNYBMnTFOeXP+pArMyLoBJvMhXSkgy96OefXB3kkfKqxAERRHlMmq5D53O/5xfTJVd68VwiqC6rInc3IHdWKyBHBGnG+kilYcmCkT8ZIzmPfsfdCy1pw+8Eej/NP90rTt0M3UvuObXodYvmBW6xg2VPfEByGbzkDESeNaM1PPPI6vDpp9aFJx9YEZYtmJW7aDMy7nFQHzOBYP/RrvDqh/vDa3bs2HdSkweGsthB7Bo6WkJDG5u7W91NvZ7qcqoqvKrDzcuYNOot6nZV7lapUXUp0nXuSqjutt+HWwZhLG6pu1X1e/LHcEojN8aB2rzqIRIY16VtcALkcHkiSiJHLrCjTIjMjWSIA/Lku0REoiS9qA/pw7AQ8ypkys/1U94iWAUJ9DTp+gpZIUfX80tyyYo0HoerQ7rldFFH5yzp4v+5Pz5m733pxgqlcIqLrnTt8GCtHnH850+Kc39Kp9gUh1yuk6FKnB0eYf9TWi8gRT5q+CVwWY1uoWfyRPgUX+h5Yazo4cRzUBiVP3GKcL2UVvHltOXz4VTC0rWDsGRKa/+pBPjym2Ykh4lZUVZUGKokEPoRL20wIISokFAeD084UqG1l0jnU8Etn9iumUJfBYuXisVZzcdf/T5c8mugNuR3cxPc9WdilQTk7oZVstParEwZyatD8ACWOhaPfmTD0vDsplXhYw+u0Di8NCMtIyPj3gLkjRmfuw+fEbF7e8uhsPfImdBzfqD+zE6rKKY3TQ8N7c2h0T4Wp7ewgbvJqY9SW0L9jD/WU07uUDFXdbepqTpD1+szFDxMWgvWItblCabl6UqyCQO/jzqYc6meHOKk4hKlOHTT2LgyUn46XCR/Qq1+CSIsCRCXehV3IbeD/1i95KkcKVxFjhSO5Khw7RBxs+ceyZLH+XVIJ5K+dM4kqyJaiWCVde1wAlYddn9F5vKSLJG7dK7ybymfvyyPcSl+CHIHSrJyfPQn4qHQoPj4chOb4qTrYT8ffkXEOLyRFAkxj9i4V3Twl/SQu2KMI+yFSSlSPIeQwjGPeCRddxKpQD3GV+kkGefBm65RCSzsBzq6fsL8o5BLz3VVORgB0uzcqJ8qjPQFKDnx8XIUF6E45JzCa5JBFcRIsJw93RDQOeohFdQUnQpyAr+LaypdjOflR+WecQVRnsig3acUX5zePNNu8DI3WwE0ghdYK4pu2vpgOzi2B3rqwZXhk4+v0Vp4rDuVx+FlZNwboO5gqQ72KN22/6TG1r2z9XA4crJby5/U64qlYZ7e0iiLHcSuoaVZXbJedcX6SfVWrJvtUD3Nhzr1Vaq/JTeR6jLC0SVM3R6rPwfx9j9Vlwryxw4RQymNGlLXyesnrFunJxJGVPLXSa/tuhQXIS6RZKWIKHfykQSjQCIqUd+7NWOdLbm7KV8XWYhxclFWJk1OrKTkspgoyV0Pv6dJ6Tyuct4qwsb5UnxBsFBLebpbnWeKK8fX+t2tpLO4eC4hypGhl/TLMtykP+3n/uR4fAsdgx98DNd7IUyGvr+8EkgsSL9OHPr4S/IirGAK47WCEP3+J/qlE196/CopAD86xOFHlOIJpDA6BGoKHlDYdFDAldhcFbJKPuh7mqinisL9Kb7INx4exZ8UjtdNYdfviXm6osHD5QqDQ9FyyzJPr+x50EIKD4WYfxxHMhgp3xiMMKn+yp/OqVOaJ51aWtf8viUoiaejJiOpwtHVuXgxlSfpK3FJhmWS7tnpoc3qDix4XgDqgQWhl8yfFR67f3n4wnMbtBYeO4RgxcvIyLh7Qb3Uf+lqOHKqJ7y340j46Xv7ip1vWKqJqqQWWF6mG5lrnNkemma1hwZ2kqA+SnVSrMuUNNZHXkchiW5J5nWj18uFXpJLbC4xckxQyAgjRxbDZSSdOkjnGSptitdRW20SJkn5I70WicgVurj2x+5dQUJqUEXQhDp6hag6n0SqpBDlkuHGZ8O/FCc3yYrzxjylU89vOpym0MUpXbPUUUBWirOAX6sUJPMxb+ZGWbXcDuXvOh5X8hdp+M85PM7lRHlYQE5Y/pgPSjEsmchdQumlKV6yAqVwbZyF0VcaRdXqIo/xCSW/XrhUcJK+BzyO/5KXSFiUu1uRy40FqhKWz/xRbofrJxdvNcErdIuw63vYdfUFJpkdxEf9qrx1ELQ0clK+MQ5fdF2Ga7qJFFmczkUEy7REDE4D4jmTIF1fiuc3laG8S+caBOLdLWD616UfZaWoalha06smd+SX0vm54wkEhavOFfWjnscQ5jVuDNNvOMEL5lcBqAOtE9XeEjauXhA+/+yG8MITa8PapfPCdPsar58iIyNjKoM6g7U4dx86E37y7l4jdnvNf1q7JwwJqwwaWluM1HWEptkzzN9s7WeqIbzOUaNJSPVSTd1VfCCj6/KiLlbQ2wzi3OV/zMPyUu1m/x3Ro/Q4uElm/6vqawQxzvzpHByerh6I4+fE31f6mfLLNU9Kb37OKVJVkqnNLsvqQOcoSFaEzstRwSDyk1D4oys1/kCInPh4GLnLCiheHiItSHzKP6WLB5Kyq8kN5EU65OgpVvGVvFwnxYvIKX36zTXnURrcqMcR0yuML8V5QOGUtzxJzjWkMIh5cb2kn/blr52wd6DOw4my+i+IySSuiTNdF3u8p406RT7uDn5Bkw8/RywMCeYv4hQsx1fk8uqPFxwvhClCMXKVf/QrH/RcomjXUci8HufXXJbLY153CSedqjyTmvwV3dT1Wg27LvJQev0v/ZEnpqmK9Pzs8N+LzON1zoSS14ECGtU6lTzKIO+on+LkuqweyIdKr9A3KO+iUpDE49P7YH6lS9eg/+V7EvV4ka/ZCyzrXasdTLQoveglMA4PK97yRbPDoxuWacHj5x9drW7ajIyMuweMoWOP6pff22fH3rBt70ntado/RDdsQuOMttDcOSM0zuwIDVZXFMthANVfdpTCXqeV8kt1leJiXeURVmVFXelY2COijh+u7vEukzS2EYQ9z0KvjCJoHlcQSmeqkgNCldoy+ZLUXH5rSmN+rqFGFNVLQtIir4ITjUERtXoFoYnEJBIa5Z+U5ZeG/lbC/LG/IlQeJx38drjI5f4fP0E7h6WpjLOLMfFPcd0iS67jGiVihkzE1OLRlhvTpni5MX2SK6ekg2N54gH4pWPgN0nBg5U4ZEloMD/ySv7mfPlrJ+3J+MPxZ5QeVER8cP6C1YPJh0inNPrPn3J8DBei9AK7X3LSJwX8qVGP8Um/kre7klaF3fUwXv7EgiJd/+P5+TmKblAFKnkkt0oeyZz/t3/ES4U/UV6kgVBKoMN1Y1xEOV46EsZwAchPjC/EMT95y7pJFtOUofQlWXFfTJaSyZ90XO5pkjzKohv/CBCyckUnv2RUFJUXU/nZoTyIF5FDrxwfSaKEpskAFT2nRid4InlWKReloBqcj5095nV2hPUr54ePPbwqPL9plcbitTZP3Y28MzIyvFro7WPSxOnwyvv7NbZu35GzoedCv7bHKu/AUAabrhfErqMtTLe6QMuepHqEBtN9Fajuog6KeapKoh3AjfVYERX9Rb1FOEVGtyQv8owo2r2SrjvVesgrbWQJylZ/PFCF+nWlUBtF+lKdLZRlZI2f+zUo20g6ajOtUvS0yZ/aB09GuPRMABEeaQ5+gh4uQDrCJXLm4qindFEHlzC6KQ5X+qTF5Q/kimtRRI0/xUsZof+Xjssklr9C2op0iir5QcovSRQvT0xXkbuYvy6L5C7Bvf7elMTAhULtC1iOq5eu0JdfHgUd5idY5JFedPc7Uh4luf7zBwG+KEt6/FU+lTD+4WTKI8pcBwc3Eo1CXtLlywp/lX48JK7j90AMR5TDsZA6MZLXUNGVXjxSEo9HlvwVoF8hWelwp/YaXMh/RXp8oYM0hpMMnSRLYbx2PsmjTPJE9iIq16SAHLZ/kx/96AL3kx456YzcyU8iKzzXm8J0ETy2H4sFrg5YFoVNvJctnB0ev39ZePaRVeHBtYvDonkztY1bRkbG1ALbHO4/1hU+2n0svLvtSPhg59Fw4kzvkJMmAF1a0628N7S3hqbZHU7smFFfsv5weNdXDahfYl0kXaqmaBgooNNSAxLpR21dWkDimB4xukUAR0L3A3mjToxT3rVIevXiJgh+7+RxN8KJSIm0gCod4kth80e64lGDngNCd1P3ZCI7LtZfh/wpnucroeR+vRKY3/KRTiUv4godiVzOP8XX+Mv5l/PQYX75oh4o8othC1QIZgpLJ/r5G9MQdsflKV4wWQ25q6DyQtREm7xKUvviVIVL/igvv+D6m/Rr0hXnL+Tm6j9h9xNXXA16NeHq30AYJ8lSYTK5KgA7Ylz53J5fjCOsqCRDJIF5FYhyPxRTyPjvrv8hL8ISVPx2xJRFXIFSnP6W0jjK/grIu/iNhY7rubr7HcQjtz/Rypbk7o+EzP9L7uF4ZbHSk0wSTPqWpsjL4/BXyF2UJaudhT0PxKXnJB0seK7jMvOznIFmCRvBUxctFrw4e6oOKAtsxD3bvtjvX7soPGcE7zEjemuWzQvzZrWrGzcjI2NygyVOzvb0hX1HuzQT9q3Nh8Iextb1Xxp2L1QROzbot/LP5IkG+9ib3ujEjjrDG3nqCRrq1OhGUHnYQb2jJlgNa6yvalHUXykegWIqoA5zT/zPn3gkpLQ1QLfSdrmsgMIurI2qoE66oaDfOTwKjTq6fi+5d1EwCMSlSLuvqoNjWFE1zyHB0hRxxTnSc0FW/CHXSpziY7hEHAud6JYP/cMvxVJcktvBP5fhVOI5ymkr15zk6EpQCQvIkUU/fwngdSGekt8Q/QW54+UrZ1BBfEHKL1sZJh8uLqWvQtI3h7R6oRUu6xKJE+Or4gDndVc6BQko/kjuDi46MS8XuiuYn3ChD1ko6QrE40QdhaNOTFu5D9EtgsSlygaSg2syEZmIIq1iksf/4JKHgkZu5EZ5+YvRI9ypQdUzigRKIN9yXAzrehEXcVy3yWJlIqmFi+iYTtfjkfyRDEImRcV73vrt6YWE1Nnvus6g5EIPJ14HQAdiJ3JHvFewnjfnJB352XHdKusbzKilu3WISsHA6Zk5S1ftoxuXhU8/tT48/fDKMG92u/asnV4uMBkZGZMCkLqBS1fCqXMXwuubD2oLsT0HT4dzvRdlxRsOkIbpbUycaA9NjK9j4kRD3DFA5T02vLHsF4vaApMVDbTJy7WD10l1kOoy6kN5k4s3xlGPJWH5IzzBvEV8LSyPwTEmUT7DgbqVjEfSc5TvybBAp0ZPoSHSDtJ0Zfuf7jn/0zMhHN0I4ipAGV28fr2KlYz8qhLqj56nnmWMky7+StidWj3P3/38x0/aMol1mfvNKaWpnMPjlZ6gXHmiG3NOZDdGFdDvKsHSeN7mHcpyVx/xhaiDkV+UkeIt2gqt519HL8nNrX8NLiuuA71B54x+4qJcBatKB5AueuV3guHdioTL+tFfEg1a1iT5Y2yBslfnQFDSTemKtIayvw7KaRMG/UbzV87nYTkiffJFHfsliXBVycsyQ9RN51De8kedFMd1aIKFn4eXUPcUggainhO40rXwFz3SJl17y+nCrboWc69fvWw6FnujOTSEdiNobdIdDljq2lqa1DX7yMal4Vc//2h4ZO1idd9mZGRMLpw4ez68ueVQ+M4r29UFe75vYNhxdQWscWb9uqbOttDUTjcsEydojCMRoFFMsyQJy5/k3mhTD8nSg6wG0kt1TfJT58V6k8PrwfJ1Rn9ZVAdep8ZARNWqBQk6Rx15XZjOaNRAnd9bH37fauH3sUREdHtMlu7XSIjnr9z7+FwkTPmU8lIw6dhR+BOiLLoJ0onP2gVcc/IXf6xdiddBHqX0Fd1E8srxFb0UJ1kRD6K+HU7oalGrb4jh6uuw8NjIXRnxRa0HXrDoDomi8S7BE7kXh4JRkjnMXxUkkPQSqnUSUfACkiKiW6VKoKJbybOi6zopIt2D6BZfS9FNQUMifGV4mnQ+4mrTxftYEURvkppLupiv8oj+Kpn0FCxwXffCz12Jqyh5XtwD9MqyaDmL+eNKB/LlEpPFdCXcgIjFysivCTXTg6zFe0Be1yF2Im2V9HoW6MTzkloEEOJZuTjpXb8yYHHIKCRNVghbwrRrreY2SzYUsNI1NTWEGVb5r1jUqW5aZtVuWr9E3bcZGRl3DtQZPUbi3th8KLz87l6tWXfSSN75i5eszqjUKfVAIzmthYkTraGhzT76mA3b2GhteKNb7SKJUyNJo0wYEmFZKm1NQ+4zaZWz/aPxjxhUvSBI9ZP/8VDpWqO8DNV9pd/j9SaeGr3oVsOkw9yLCQf3afCNqHNruI8lXcL4lT4hxbkDqu+3pUj6ZUKmfNx1SZQX0aTjmUYNpUsuUESEn6PQI52k5T8Wm35L0gUx3rP1uCgs4hzoRL2kk6JAPGct9HulX0blfLdA7kDNy1b7UsWw/g564UphV5C3QJRVkpmH/4UguoPC/OdPkhui3+XuK8dX6Q/SBVxHCiR/DMtBVgTMifFFXvypLrCCVJKs4g66j1LE0VXJTbIocVSlK11nlUqlopAYHfxJN8qqKpgY7zIOCWO06xXXDGErp7U3zUlcIncOdETQCpnp8//alWgtdHmhR37K0s5laWS1E7kz6G02OZa9a5cLXb38N+z8VyBvHXa0mWzwV2UZWPEYjzd/TkfYuGpB2LRhWXhs47Lw0NrFRvKMJKoQZ2Rk3A5cuXpN3a8f7DwW3tt+OOzYfyocONZV7Alb1DtDYFpj3HGivUnbiTFpYnpDoxV0J3V0uzpZs8ZQViFIgoUhdZEwQASSxaggep674nE9GMNF/Aiwa/frj79BTqkuTRj2N1oc+cRQzKQaErneuGDE31hzX4aCois6RZooqr7XDsmq4PF+3+V1WLiSX4pwP/8quu6v5FvSSZBKlJfPX+Qf45NM6RXQ//jH48zvTpRFHYVqZBXEQJFvREm/8JY0bpHc1YIXM3prXrIRX9i6L95gHVezP1G/kqyki550Yjh5KsrmrRCNipz8KzoCYcmUo8PC8kd5GUVhlZvC8riruOgmSBTDkJlCtwY1eVXSFH8KKI/ybzSIKNXISCbrmfTT74JQlfMzeS1pQ1f5Ea7oFhY65HrPIHeQuHiOCJ8Va+lLaSGG168aE5PcwDkku2zZ8AJbhhZx3Yji9StXYp6mJzmEL8kqeRK+fnnArgJiBsFrNXUWPR6e5JElS6TQVbtxzcLw+Mbl4aH1i8PapXPDnFntoblp+PQZGRk3j0tXroYz5/rCniNnwoe7joW3thwyYncyXLh4WWvZDVlHJlj5ndYciV2rETpzp9tH2zQjdm6Zc+tctR8y4eROFjvJySiSvBifTuCEAjfKkh/5aFGuqwq/uYV4hN9JHSn9+npFnkPE3xT0s/mNQ/3OdF9GuA818ZYiemrcEsr3tzr/lKb443p2uAjXww780eVvKa/aZ1iVrkoPfylOfv7HcIovvNHvSkXYUfKX5SX/4Pvp4aHu8ziTuwqqC9/gU1TFD/XiDZeHxVWizSN/pAqVP46kSJqyHFSdg2AN6SviSynl8biq/FK4WrEK/rvRqcRVyUpyQcFqWVXI9Iv0BUwGwSpDesiinjl+rfFAFElZIZcQb6xMkwwNEbZI4iThD5YzdOO5U1oIl2u4a2kgcTpPgslEDLG+JTmqkLOrrCxvRcIqW4RY9q5fYWwd+Tqkh4wxeCWQ57XL/eabZsSuyQpCmyx4mlWrSrl+wSiD/Wg7jdA9+eCK8NymVeHhdYu1lMqsGa2hmQZjiMKVkZExOlCNMGaOvWC7ei+Gg8fPha17T4S3tx4Suevqvmg6pfpiKFAUp98I0+3ja3qbHa12sMRJbLCnN1IHJDKHhQ7rnYXTbFnT8Xgv1yrbuMSRJuZD96DilA/1CPB6wOsDT1dGdchR9xfF31nVFg0FdOpnErMZxT27SXj9OQR0C+J9qAO/NfanJo9qbeKjtww9A/7zJym4v35d7LL0LOVPaWv0XY6ncl1DPU9QdQ1FPDL9tz+ej2eR4hNi2BXlFaKei0tyoRKu/1srmDByV0alUA59qkFkpBbKY+RLTSTE1UdIM4i0DAPlWcqvNlwHIinoSM9BmpHSVRD1SunxK5RkKb+Sjo/viwGhKiDoftvh11IG+VWeBXpO4krPR+d0eTl90fVayCBxJiNcPo8RsGuy0JXP7Va76vTm5RzXTDdC54XcYaUr5YueT6YokTuLQw9yp66YWDCmaeHj9tAwrd0KCIWPY/iCkjBnVptm1jIe7+mHV4VF82aE9pYmI4A0CCrqGRkZowTFl/G/TIg43385HDnVHX7yzt7wozd2hYPHukL/pUrZHxHse9pwI0xrvR4aO1rU+FG+Za0z8kZDOb2hKRI8CIITvET0pEeDyX/G46WGGXmaUWtgrB55CZwjkjvXJ7EfReNb9ieo2op1l/64XzC/120xXBfDRk4S1PzmWug2+b1SsOQXRhhCUwZp0/MqUE8W4c+/dC6DP8dqWULVtQ2RJ2kLPTlRvxaS14+rfCgMhuc3RJ51cFvIXS2cEIxw2vSCDwmLGzY+Qmquyz+XjZAuERnSDKub8kMVf0VXBGnItNVyEZo6EJEZLo+aczqQR6+B9P77uZ4oNDiBQ27x8fyuV1KyeMiS61YgwkWapEsedtBdqvMkIFP3ayVPXY8sdOVKexpnCtevYKEr6XIeI4fqlk3QeWI3bwkQvmtXLtv5LlcVAln0LvUr/ypct3ws78aGzthdy7IpIxeeNCZvZkdrWLlkTnhm06rw6SfWhlVL5pqsRXF5CZWMjOFBaWQiBGPqWMJk+4FTWqvu9Q8PhCMnusPAZfsou+b1ysgwHYpcg9UJTdeNyF0PDS3NInJO3CB3yQ/ZM4JnZM0CitOHn5VZt+SZTHIsepEApHSxUZdlD3k8PI78op90dklcuZMI86TfUUUMyr8NpYSYeFhU18llDNWejC/4reVrrofybx0CRRaD89Jz4B7XQvLor0K1sHhGUV48C6FaN6GShsBQ1x9JHOCDPvnroXT+WlSdaxBGyHcUuCPkroLKqesW4hqZQoP0asKuJG+BIljTxJOXHZ5lTRrCtaIkiNdQfc2D9avOJt06OnXlHij/rYJEqeJL8fUrwoKEleIqxC6GqShE2Kr1qECK6fYS88fOg24pT/ySiXC5rn67nUcy6UpVuljT7I/L7SVmeTrJ1X0awYtNvqbr4/BKMsvXu2Bjpojt/JJBHJPcIIJs5FB5pIswoH/NyOS00BgaprdY/c3ixR12CmsIyFDH0IDktTQ3yZK3fFFn2LB6QXhsw7Lw8PolYWFnh/aybWQw9y0W0IyMuwWUvkTo+vovh1Nd58MHu46Fj+zYc+hMOH6mx4hef7h02T4IR0Sl7F+/ftFI3Y0wvdkaffu4glM0QOYKcmdEDX/JeifCJ2udldGoR1widiJ6ZJ8sdpHAKY4Ihf1AkPRNEPOyg0uUsv7IHdxgI3OXBF5vEq4Hxcb4IZVGjh8X2PXW/pQSVIcO+q3VUPSQBCrmUXsSiYiplVu45nxVOvJ6uHgGfgHuL6PQtRxSdE3+7kMmT0RtGFQEg559Tbg6flBGY8YdJndlVF+Gt891Lq3UcINyQ15BvXTFnwpi2rrnirJqqYUQFOesjq0Ey4UQRE/ttetPtUzSQbIKvPDHeHPd57Kqq5XXJOhW5WeyRNhKKMhZIcYDEYuEDZgjYqjlUFwkQKwsbVW+XE+Z3EVAIL37tZSvQeRMY+tKsHTqfr1aXdmTVnlwLVYgKAYihybTRAvkpevAeghxrNwfcyW3axbpoxDbl/70NiN6jMWjSweSR8UzciFjCZW5s9vD8oWdYe3yeWGjEb0H11TG5bFQMha92rKdkXEvAEJ32QgdpE3j6Y51hR0HToU9h8+E/UfPhqMne0LPhQGRvpFBKab82kfcNCu7xteuXx8w4maltcnKsAjcdJE7db9GokXX6vRGlkOyIH4ROsqkxWFtT9a7ROBIF3VFECm85jZYOmqRFBa5U/2RwhRyOwrrnnLRP0Gi6PdADVIdVQN+crVnckO/K/7SQb8xId63oRUsqiY+eiv3MMHCErnrXv2tQZSluOhWNM1XBNzvwRp5yamgIvDfVYOSrG784AxvCZOI3A3GYOJW51JNZ5B0ULqIuvKhdSvqNTrpnEPFE+b/UNchlOJq9JycDAF0OdLLoWuJshISqYtX6pCOSWIc/oREwsrX7DIjaDUyJ3gVGX51v0IQowgZepC+QboQszJpNEj3Sqn7FSCLXbhV91JE0ElcUUjIF9KnrtnaruDr4dqli/57ytC1YNVzax8V+3SseEbupovkNVtxs8o9VuCjQVtrU1ixeE54aN3isH7F/LBm2dywYtGcsGBOR2i3OMbmZYtext0OWeisjEPosNIdP9Mbjp7qFZmD2O06eCocP92rHSWqyvaQQMfK6w3K/WXzWV0x/ZrWr1M9YIQM8ubLnCRyZx9p5qeuVPerkT8g3UjuiCNNIoVO7Crkju7bpMchckd+OkwHQhfrBoggOomwuFWPWE9bIPoHyYdB5R6N5l5NDozq940Q73VvRJXuEOk4pf/xgBDdqrhauFCnGNV5orzO9UsySF4drk/uxheTmtwNRjX5GBJRZ/S6Y7wFlqacd93UxCtiiLyr0ifd4YBOUsItvRxcT3Q9Dq+5pTCgEpSujihUvIUZL5egOJNBrIowcEucjiiRh/yYTEGmpQhZ42qIFn4RtiqiZfGRsJUyUH7oYdFTFimfgvQl4pjkN8K12AUrK2LSt4KkyRaQROQF+I2M1Ruw+ArZpEKB3GlWrUieNQRjsOQlzJndHjauXhg23bc03LdyQVi+cFaYN7tDVj52xGhosEZopDEbGRlTACqFRuiuWfli/bmLA1e07+uJM+eN1PWErXuPh+37T2qNup7zA55oVLAySr3DLHgjdtdvWFm9YR9q066F6c1Y6nwXGZE3zXilWzaSuyYs8BAsul4hd0nXCJsscm5dc6teycpn8jTeTla7JCeMRY7xelYPeFyFCLqO50nd5eU6lm9dB64kkiuJZO4fDtwF3eSbRaoLRwtd0sjXNRw8i1HkIZ1h9GKU37eIuvmaDHFNXBEyufyjuaYEnttQIL9R5JXeg9uNSU/uKoVkKPjli1iMgEJn1C+66Y21UEToXMX59N899TDac0DO5MbcBqWrkVtFq0qhBJGq2mQm0GSIcgRkS9a1EixfCGI1MTOgm2bKFrC8LMys2OrrdLlIXxnIEikrrsPPl6x0nL+QJ/0yebTXpDKxIspLBZBZsyKQ5esxv1vv7NC5KxDJi92106exlVmzybxi92P06GhrDk88uCI8sn5J2LRhqXbB6JzRqoWR2cd2NJVERsZkBWvP9V++Gnou9BupuxgOn+gOH+46Gt7ZdjjsO3o29PWVxsiOEirzwT7usNTd6A9Xr19QmKLHeLqG5raCWGG1K7pQ7ZAVDxnlinJs+mXLXUHoqB+UpkIMi6VRYt2hfNXIJ91YBxRpCSOqkDsFcSVz3cJfgxRftBl1dG4ZY7z3E3INhnq/n/syJIa8Dpfrb6FiHv6P6dqVIPqHgMWPJk/TGjmv24gpZrkbC/xnDX6nh/i5pjj0jbCYupFDyWsxvFJlweB6+VUEusLaH1QV9ICrQIYU4o+AvMpCB6TsZKnQRU8kLlruErhHWO1qyJ10ZY0rayuTSMyQxzjE9q92Bqzklkf1EikIOedVt9Spso9AbkTOCSHXw0eAVxLIdPBbi7zMa3rSr9fNy8QNO/BXgyJLpUwFjzXv5rprmYDBoshMtJg3pyOsXjo3PLB6Ybh/zaKwZP6sgui1tzar2zYjY7KDcXQXBy6HC32XwunuPq1Nt/PAqbBt38lw9FR36O7t16xXul7pph0drFxrrUonddeN1N24MSAZFjyVcxEzI2/JEmflEH+yvtEQy2oHKaN8QqqMrDVYGulHcuekzTRwRe5oxE3X4tVNG/OSPh91seGGKCZ/IpIJIncmiwH7jx7XEP2xjoqpJS9Q8tYEbgHxvo/29pdRvrabBT8xeiuol29JVng9sd/DehhKXkI5LzlDp1FMVfwwuq4s/2TFXUbu0k8Z+qYP//U4TBxkInorMMlw2RUYQW/Ia6qWS61KN/oHXZuFkNXmi6yWmKFrhKaWOHFcV1cIeXg+7o2kr1xZx3yVR1nMP5G+lI9D2UCyqs6JCtY4uk/L+pYH54TIKZ9KGgipZtNKvyRHnyVUFOcEjwoiXb/kTNKoSmPXb/n49XKUrk2gcraKO/C1bw2LJl1A8mLFr3dudIWdCRhY8jpntqmbll0w1iybp8kYyxfOVrftzLaWMKO9OTSzXZI1OhkZdxp0uQ5cuhou9F/SBIgzRujYxP+Qkbp9R84aueuSvPt8f+gfYCmT2jI0FKgpTJdyK1IHmWMoBnWElUWsdfZXgMhpPJ1b6gBdsw1NFoZUQbYgZwp7uXSyZmmivmbAasxdidxpVqylt7C6cNFVuSM94WidM2hZlVTWLW+6gB0mEzlMBM7+kWfKB0bgrEDhit91K2F+ayVuMFLdOFqY/liTlK5tdKijj8jyGV1OQ2gNdx2jucZCJV7HsGmq45xUphs3XLrJiXuO3IHhCV5CfR1POkz6UeVdwoj6pfjorUrhjCX9jyDAQWXpwQKSRUGMFJEpy4GlrycXIYMEQayq9C0s/SqpEUerrCPBqoqR3PMpoHNGfXPLz8nJlxPFsqVT1wEZK/LyONKmZVSc0JbeCbtWdcOm60rn4TdEgldYChVXuQ7ycSseJM8ajEj2sORZLW5+Knav3EcDxt1hrVswd0ZYYiRv8fxZYcmCWWHFws6wbJGP0ZvR3hLaTKetpTHviJFx26BZrleuhouXroSL/Ze1ST+EjoWGDx7rDsdOd6sLlm3CTtvRe6G0lNGoQI1APUJZo5zaESB0l4zgMf62VDcAETuIViR2lAOTNba0ORmzsCxpEDcIGESLA7JGGNJlOug6uYvkjzyNwFFFVPQrH2zSj2kBeXmc/YU4YsnzkOvZEamEn4PrIixRrBvkRxY1yTvJUn0UzzcIKX5EjFZvKAxx/nqoc63p54yMGqWhfvdwGDKNy/V3kMrQ56nUsdzDofUmM+7ibtmxovIQRyZ/w8RbVCV2pHwMoy6oEbX6FnZJSR51CuJURCUiEwVJjzxkpVPQoTiIEyTLRShIF7IEqSoSmMt/5BCkKE0JvRvU5EWEQUQKElUma8DzF5EryBUO8kTiuCaT20EZ5HcqH9LIAqAkRDhJswNd5Se5n0Nx5KWDRJ6n5xdJoeJIlzJNsErZGgLWYtBYPHXT0qDYYYTPanU0pDdaYKFjosUcI3TLFswOyxY60YPwYd1bNGdG6JzVpu7dlqYGWfXyzNuM8UJag+7SlWvhSiR1bNB//Mx5rUHHunRY6pggwZi6c3Hz/rHBypfKKC7llbqB7lfKG0M1YhmuhZUnWdSSxc7eeYiUj71LEyei1Q2dSKp8/BxEjvJJNhYPWSOP1A1reaCHgudpaSBplGCs9aWw8ozn98uC3MXu3hiG3HnI6ifOL13SmuNaeFweD49yeQGCtdXOiBhzglGi5tqGQu1vuFkMm091nEJDqg+dz2gIHO3MVP2YzuQuYuSHWP0CiFyMCsPrjT6fiEH6FpaoRm56EJZB+YvgIFeAP4IITCI/CaZUdM3GfMjPiVq1HEgOISrJgEgXZLAmf5EqdZ9amirYeSMpq0rDuUljck9jz8xjpEdXa7LGERcjlKaSXynOXM5/LcWVSJz0jExqmZRITj3f+rAq394fyB3j8lpMYI2IrHoVC8BYwYw91slbPH+mJmCwjh5kD6K3cE5HmA/Zm2lkL3bdYgXEzWQvYySoFFj9AKFLM1xZtgRL3KlzF8Jpjq4LInIHT3SFg8fOyWo3YIRv9OPnytAZrT6hDFKe7IDYhdT9Wil7g5CIHePoSiQsTZKQTGp0vzKRwi1pkLJE5PxDzNJA9AhDwMhHOpRTyq/nG6TvZUhx8ZzS17WUw4Mtd4loUl/4eTg8XjrE4cMlPiHKC8Q8xoSx6o8Wtdc2FEarNwKGb4tHf45KNsOl4Z6Nz3VPJmRyN2qM9gVItxNd9998eaufcDBhI2xHrViErVqotDUkC1C51iMwIlO1cvNqdmwieAnmVz7FeWMccvIZiuDJGleWo+9EUXHlNJaXFkwWGUtEzkGa1A1be82Eiy7amutAVpC/eF6PiL8nnqu4llK+g2GVe7TiTZ+ORY+GgwO/N0JjgRoce5UgbayR19HeIoseRI9FkpmMMR+i11k5ZrSxTt/dV1lljB+u2rt8vu+yFhWGtJ3pdkJ35KRb5Y4YqSPcd/GSxs6xqb9/2MUMRg0SkD6SOax01yF0dhQWumEyFZmqIXbIjKQNJnYmg2ihY2F1tyZiF2Xq0k3ETmGLt8PzwGoXiZ+VVpW9SO5ENhROljglsHKGVc/Tpzx1viLseTk8T8kRRX8RL38F0uWex/Bkh66+5jcMj7HoVlB9iuHz4J2t6N/c+aYqMrkbd3gFWFQAo0LtI/C0g0ickGQpfw/XJXwiMYPzKMhLGaZXX24Vs+WDWwa6Ijw1cs8nErPyuSFJuh7SldKgT5yIk+kXaUr5KB3X4HHo6VoVl/LztIpL+ZXjYrqUJnXJOsiP9PZblc7jXN/yIj1W0CQnXbqmuuDZUIFTsVsDEmhQIHc0NOZqYgZxsREYA7DONTc1aNcLumVZGHluZ3tYNG9WHLM3MyyYMyPMmdUe5sxuC3NntofZM+jKdetexr0HLG1MgmCiQ1dvv1yWLGGc3Mmz3tWK29XTp7F1A5evaqzdlavXxzApogzKIHWDlRVNhrhixQcyB7lLdQZlkqM+VH9G4lQQMCNKIlPmdxnEDgJlYRE7yJ8RNJE0wpGoWV6ysGG1s/QKoxPz9ng7IG4mK8id8qHMenk2geURiZwh5ZHIXHHNKRzPbX88rGtLeUkQ/bg47nrk3Y/i5xYY3e+mXq6kvTfu1c0gk7tJgdpHMNwLm3STDhWpuwVcYCQkkR4FC4j8DOpasXAiMjF9ghMdy6ssN78qb/KqIjnTdN5EgJQvIFv+mHzQEiXkpTScI7oe4fkTp/PXi3OyldJWxRlRSzNs66VTF67y5lq4QOI4LL8SOfS0nk76xTn5jeYq/VCwRgISFwmdb22GJY9GwdwbsbER0Rt7RQVhY508JmVwdBjZm2VkDmveonkzwmIjffNmt4dOI3kzZ7RYvOm0+YGFD6KYcfeg/9IV7QjBAaHru3g59PYNyEJ3usvIXNf5cLr7Qugxgtd7weJNj+VMOOiWvbkuV0A5MuKm8XRWtrSLhJM5ljWRlX/aSGWFomBlQCTISVwiW+5PljZImJMojysTO09XReySzPIiXJDEdBQyP4fScJAHRI14wsonlRcrsUqfyi3xdv6kH8PJr//KA/0IrjfmnaCw8quPke7f7YBf462i9neMR54ZZWRyN2mQHsPYX/KCnJQhkhLltRUCcViiquRJL8rLcehDiCA3VXKXoV+5Brv+pA/5QV6bRsTI03kaVFyvIE4pHTJdW7QgKp40MZ5YkxVxpudyHM4Vz2dkrZKX/S3FeZ7mT3kq3g7JPa3nazoxbYXkYc3zc5bPPRTcekeDgstYHYgeYXPVbWsVvt6Bm6/s2Me2o705zOpotcMInZE4xubN7exwdxZLsLSHeRZGRxM0mhsKkoiVr7EhNjwZkxKQOKxrA5evaRwc68ld7L8SzhlpO2dEDjLHZAj8Z7v7wvm+S5rt2msupI80V6/6+3yzEGFT1yr5GDGUdY5yRhesW+i865VjBNi75mQNwhQPETT8Jqd7lHeyFF8maJAz6SFXVyrEKspqiF0lrfkhY+Y6sYtpUjryJU26NstHYUooMvJQGBjZiwRTIaXz/FJYVrukT1jxKb3r2F8PDINbeWa3isrvHQ+Uf8d45psBMrm7C+CFveYxxgpAcfXiI7mrriiin0oZwlKGdKnEawlMzAeyQ1wBlxV51aZJhCoRNSGeA3lBqDzOf0eMI20pDrdIZ3FYDsq/2+UxHS5pUzrpe7ysfMRzPTHvSjo7dE2lvGN6yaKe0pevbShQubNGnggdlgbIHWTPGhkdyL0R8Yrv1io/iBvj9bDYzTSXo3Nmq3ff2jHbSN8cI32L5szUtmnosexKUyObpU8PTXY0WliHNVLjW8ln1IIxbpAvJjow4YFZrFeuXCvCjJOjexUyd7YbItcXTp09L/IGiYPAsbjwhYuX7bikNLcG3mdKhru83yJzRuQ0w9Vcu1qTW1kQmRvh/U9QObB3CTIFCYNAiXg5+RLpguRhrdNHkGkTV8icIImwEZZ+LDtRDyJH/oUecs4XyVehQzyySOzSOy4/8eRBmDQpvUsKmXkq+Sg9/iQj6HmaciFP8PNVwkNjlPd2QjCa68uYDMjkbkoiPbJKQXOSNvhRJlJEZVwFyT3e0yZI6LJEghIkr09eCnI1KI2THuKq01heEDuRI9JV4jwv0tSkk0s6J2LFdZTiPS871OWKjsf57yFtzFc6RsY8Nsb5eZW3HcgS/Jo8jU+w8DxipP0nD09fWViZ9JU8hkZsDBKpM79RKZNh1WOsHi4NFhi/ypUuXax2Mzpawgy6aUX42mTNm2kH5I/uXfxY+5iswTIts0wvrben9olrsv9plq5k0Z9RH7wvemX4h6t3xd1rVi5YjgTylsbHQeaYvUoY8oZFLhE3Ebq+Acluvlu1Hip5YZHzbtc4MULjbdkWzOQaV1dT7kcC7w5WahEyiBHkyfyRxHn3qx0iUcSlblDXsT8xzvKJhC6ROM+PtORl5arQIy3livcW8mXyKmLHSxzPgT9dZ5ThB7o2lVfg6Yr4eHi863t8jHOJhTl/CgPPJyNjvJDJ3ZRE+ZFVKgRvIGoep8kKeWxAChCWOOkkuK5kicAUMDkkB3lVGoLElUhPgkiPE5/BaUw35odOQjq3n8vyJC6l5Tw6x41IxGJcTXxBxCx9QpEvx1UaJj8HaeyPp9U5Xa7zJJffrng/p6czVxa9Srz09Vtdx/Ur1zA0SpU/frpuseqJ5GHZo1uIhgV5pfG4FdCgQMpofGh/WH6lwTx07bYxfs+IHS7j82ZCAo3Y0XXbOatV4/cgfrIEWtyiuTPVnYsVEH2sfhmDwbZddJMyFg5yxq4O3mU6EHrND5nD6tY34OPnGA8nfYvrG6BL9Wq4anlA5LDw6cA/jsTOyRxj5iBwkDreX3fV5cq7bz7HWM7rxMZJFVY6JzmJeBXWNxEy4tBN1rZI3pBJTh6mE4lVInVMeijIlfRJax9MIoWETVfnsQPiSNgOJ3aet1+q5yl5zI/zyY++VNBJ3bUSxHjPQ/HE6ZBIcYUsQuFxKM8ZGQmZ3N1lELmorWwhJEkutwTCEiedBNeVTMSlBMmNtCCvSkPQZR5fikvhRIiq4kr5QYaKOHNJAjkTSYo6ivc4pUtyXCwIRNsfjStMJAthFQlDjD+m14GuMnX95Dd51cQMZClOh5O3Ig/cIn3Km3QeX/kNI8EaBpE4b6CYeWutksm8UfLxexA9wtbAmG+8QGMDydMiydagNdpB9yzkDbejjXF6TZqt65M5mtS922B6dOlCCNMYPnXxNjWIBLa2NPqYQCN/7LNLdy+y9hbXmWrgMbKsSPf5AZE236LrssK8AxeNoPX3XwmXLtsRrXF0t/okhity+8p+yJwdEDjyYizptWtGp67RRUv+kDh7j0bz+owa5AdpYxJELBOERe4gdEyK8PdZ73VxjBL2LjmRsncZcqTDwnZAdMoWubJeFaHDz/stWYxDH13IUtT1A1k8Zwx72nTuqD8UsZOMa4guh6WvJXbSUz7EEzR5EY/f83a5VAzmUT6FwBB1MjLGEZnc3YVwclTzWKmYk7y2ZSAscdIpIRIRVerluKQLYZG8Jk6kKeWX4tA3WUF0aEgipIeYRgW9lK+k8hfEKcUpPp5DcvzoRFk6X9KLBEx569yVeCeJKd7DuO7HjfHp3PE6FK+8zY8synWtSlvRU1jniERRYeLsGBFU/t7I8I9GZDC58wZLhDCSwIlCInllF3JGI9VkjW5DQ7L+lchdRyR0JqcbmC5h0iGDHNLVC1jipSWSwHKbhw5pON9QQJ31ANmXF7cWWLl8IgJLfdhzGAbarSEuCwKpSnCy5uQLsGRI94V+J3dGwpisQJhHzh6raSYqB+SO5+5kzZcauRJdySwP3PHtXq3AP37s3Su6UnkPea8hclfsBhKX3lmT2z9S+TF6ODlKZMhcESrCkazRtSliZG+ziBVH0olpkzymtz9RFl3CkeB5fIpzXXW3EuYlijqD8ivHmWt/3E9a3ibCUS/FI/d0rlvWS/EAa3jSc0S/dCuyij8jY/yQyd1dChGQ2goZMiGXintwHJEiHFVx0R/JyOB0JodMqdGoTqe81ADW5Imca4hEiHBCcQ4aFuJdqDjcgizFtBV9i0Nb8ph/Tbz98TjIlYiah9EjXn50LI80uUJy8lV8SU8kjfwhaoir86gss2JHykc6lWtKRC/dI2S4KX540CBYwyAil/yJ7EVXs3GtYUI9EkNrcewv/okHjRbkje5ZrB6QNUifLIGRENIlnMhhGrMH2WPyR2szjbXLwOyOVsmH6+7lnC2NjWHu7PbQVMcSCGlipindocwwHQ6XLl+TJa3fyNlVPSNH7/kBWdcgYcAJo1vteGwQNQghTzAROB12buS3D/YuFeXSrk1drXZo4kPqYoXkIfd3M0wjzWjev1rY+6dnFd+xMgmDAEG87Nm4zN5NSBl+6bqeEzE/5E95EEZeInKVdHSJJpmdWzKXUyI8T7+mSresH2XLXNLxtMgsTNlJ16ywH5W0UYaO8kk6eKO8eH89LJn0XObeFM7IGD9kcncXQxV2HTh5SJV+CTHs0bVpEUI86qcTiVFC4irxiew4ESrHkcYcSFRVWuB+ZJ4uXkuKV1yUixxZOKZRnCt52rRUiYv8T0wvb1qYuHQOvxbS+jn8OrhO5FKKeui4POXhv9FEOmfUM7/InjXwakwlruSR9ExRYwQTsbRY5eVO9A8LGglriGJDIsudxuq5X2TPDqNSrhsbGekXx52Hkz0nguUrghz6XrrWkA4FS0B3Mta/uos22210axlWtuHv6TV7HnShop+eK4DIQdrKsjsLrsOvRe+MrovD3rtgBFbLlLhlrtLFatdvRM71cKI7Wujd8furvxAgETY+KpyU6R3kwD/d3jt0qgibpTR/9Xg6kymNy5K+ZJAv5R1lhT75cnicCcx1Oe9KRZd8PI0TNPejL3nMw4Seh7lcM3EOl1V0EMW8YhoXkZ/rusjDhSzC/SnM/a/EZWTcKjK5u4tREJY6cHIBwan/+BUPaRoU7+k8fU2chZHrvIpL8ciiKxJUShf9SkNcImIJMT8/TDcdHimZp7X4OulTGj9vjC/S441h8kenGJenyOjE8yQiWM6jpFNYG81//RqNatSJ16mwHeTh6/JxTvSNzEkNfXQ9fxHCqC/ddF1jgjdM1qy4n0ZMFglIH3E0xuyaYY3vOI/by5h4uDUudqnq3YHA+SQIj/d3iX/2Eklyy4CkaPJD5SMhER4RMEhW6iKNFjp/71CJ8eqWjXJIDgf6Fk4TIkSaQEzjy6SU9C1H8tDG/SLynN/jNDEjpkOOjLhk/UsyyckzXovkdgwaXxfzTr/TRciSDnnhdT2XgehP8gK14YyM8UUmd/cARCzqVerIVfHjr0McRCxoMGrTxnRKPzhdQbaUriZtSodVAYKToLwqeRakyyP1nz/EOyGqjY9xkls8OlX5k0Ye80LijKhVpbf/CqNnrtJHIlfKHz/nKK5BrsenQ1pV10E+EDjizVEeHFKUrpZlkT6NNX6ipBB1cOO5lGeySKIzGtQ0LCJ2yFIDZY0Z1j0arxvmQvqkQ8MHEYyNZMZth3el8qx5/vbcscbZXydwvMceB/QuRd3BGO27Uo1ExvSOiKjYe2FkivdDb5CIGqTJZNqeK+k5gRF5QkfpiCvng5/3ztyaOCeGkKmyPOaHHJd/5IOco0zq0Ce+yNf1dEhWSasjXrfrx7SKq4TRc1kKW/qIIh1RCSmt9BNiHhkZE4hM7u5CQABqK4+CKNSDyIM1BtKpgeKSW443v0dU5EW8x0kut05Dk+LVYNXmEcOQl0RoEtAt8vdrdleR8T/kp5QWMlTkUckb19Pir8lD4ahLvPQhXUkWD86WziUdT8fBP/cjR9e8kVRW6xnSNUo3nltEr6ybdGrSI+cayCldw4iobmz0V+8MjZU1SJLhpyGC2CGjIYwuRBAdGmaOTP5uEjx/nmEi/zw7e4Z03zO5AWKnOH++etYaJ2e6yBQG/tdR9o8eFZJkbiREhAsZLvI4nm2aJsB4XHW8EywRQAu7jsnwF/mi5369d+hKjoWukl56uoaoq/xjenTitaW8EulM5y7eWeXhMtwqWQrbvyJMKJ0nykHS9XBZlvKRyCFZ0k1I+WdkTCwyubsLAQGoV4GIGAxV8YskxHi51XBSkdxyvIf5V8iL+JhnPKp0EpDTQMklLsYX+taAXXd51bmj62lp5AbHF11SBelShBMhxbueGkgdyY9LLC7/7Q95YH0jXYxXnsQqHM8hS2fMQ+nKYUO04Pk1lfKJbqGHP11noUN8nXMQr2uL6dAB+MkDL7KU94jwd6f81xsojthgFuSOMI0xFhuiLXzD4nUq4iEA+LCkRJkdnsfdCnseImAOf048B56Vy9FQWESOZ+bvBc8syRK5cz3i3Jf+VtwxokQ6/Bn6USZLeo7JalYQL3flJ2W0rFHXJIKDvmapxrBb2MzlXyJ9xJF/zKtC1siHc5Ovh5NcrvTIB5kfLo/pJPPzujyGdW5PW9ZRGuIKuW6Oh83Vdbgw6kd5yUXmQf4A5MlNaWKYvykuI2OCkcndXQoalErFUkFBHuo1DIqDOJhb6FWDblri1DhVqaQ09dJ7GHlBPEBZJ8a5jufjIC3/LV0kNejqKBDT6tqIlyTqKGD/PZ3rVfJAo+K3f4nAJWLlGoWO/dF5/Dq4XnMhaugVOjjpt8R4kSyPd10pSUczF5UdVhr0gOu6qvvdQmg6Kb8iLz+K+xZd14u/h+sRsSSKeHmiN6UZDeo1TNaIRV+g+03kDok1mNpSDa81lJHQ4RZkUEC3kq/nVi1zWFiiWnk1RkccuXOj+c317o3dy0Fp03NDnXgf86bz6OFy78ty8+tZ+zPx3OpdTz3ZaFAiFiVX9xa3gXsUSVQiMdLDxcszgpgRnw4LK19lhpI9Vrpb3S8rbiRRSaZ8JEukj3yTvsdXyFwlzuVRhhvPpzjCygtp+XzIoxt1K35c1+XQv3K8fpLLq9MnPXTSgePyymzYiHLaAjGPAumZ1qTNyBhHZHJ3l4MG3+uV6oqkmkDVwOKqicJgKF4kpza+ks4JTS0qcm/0atKTjsZRbsyrjBTPGDWdR0L+FFC+EJuYD2mqEeM04zHqIi7pebpIpGIe0nVF6QARMn5PcT7zE1+l52HtppHOF/VTdKGr89ghIqZElXSKT3/siH4tastEkHQt8RoUXejhjRL0EEZ9XbfuZ0JKYJC3FB4Thmu8PE4NrqyAEAeHdwMjI64MSAiNegzWBalaRtDhVnAPhl8KReDe6H7G+2+o7NhQuS/ayaGkU46rj5u9p2XYj6z6nZWACBDj5LgfDdxPCIYTJkFJ+QPh8VmlHoe+pY3kSUdEMavVZEU3a0lH+ZHW8hJh5BrIV+fx8xfETHGkS3EeLzlplY7oGKfz2n/Nxq3EuWPxaUyfSxRXtuhV6ZavK4KwZBaXoOsr0pZ1PW+Xl6A8auVcQzlM+fY8MjImEpnc3fNwMlEXkWioIRpCR/E3RfIcBdlRA1qDeG6Rl0Hxfj6RE/Invt416BISiVEgxgH3p3hdR9IrEP1KyrWgaw177fmi336t8vG9ZckLt6SnjKKPeJ3T86x7ffof7yGHEQjy1v2oc/4E8vI9cElDeo40+D7B86+Crtl00ePauDf1zjeuGKqhu7kG0JrT6Bse9iujb6yol26i7k19JDJTkCV+M92k9X67CEfawsvJSoV8DdavdLd63iI9Sa9QNxLI5AnlTT7kH4mRdJBDbCByfm4RtxQnJ11HOhdyj9N1Sj9dQ0yT8iWOQ5a7KJdTyRN/Aukr+SQ51+d5ua7LpYNM4aTrcrd4lmHxKY8a6L4J/m5QfPz8GRkTj0zuMgw05sO8BmrsiY86tboWVEPJf5GJMhCin1wcdwtYWOljWs+rpEO8wrUuQBcVwk5AdA1FPIg6rmj/LV7EJemU45HHfOrklc6veF2v5yd5vH7FSUcBD6Mj65j7kSlWbtIpu4idVEkfcuYppOPeKFEaJ5Fck8hnlCcd88T/LkvXLn/U07lEXC2sWJd7ILpI0+8EnC9eo6eN8irUFd7DqN/AV7oUIRtOXjzCSUhVukQSYpxb0pzQSDcekqEWSUgMeNjyF+HT+Sq6rkc+CrjcdEWmiutLejjxegnjRj2PR0Ze5tacLybmDKX80Y8kLMXhWpzcmNblyqCI07lxiYh5Sd+1o44fyKM0hmMcsuQqysMSKU5iQ5K7W40oFyhX7qvIMjImHpncZUT4a+AVUZ1XotTIq9GP/ipYMBECRVXFR79HRJ1yvCHGFWQj6hWQLLkQJAVcX17c6rCIEeEkS/Hx4J/cJEthqaY4z6NW189TLTOGE9NCeOSL8ZaHETQLRHmMEzkyv9KV80HFZUVeUa68yrr4Y94VXaLQQxx1zC1+S5TxX/HIFK6cy3U8Pul7nOehKKXxo4r0CVGnSo6sjm467xRGFWkpweWQDAIxXGEJFUSiUCEUkZgk0pPSyG9OIjX4Tdf1FdBBGl+LLoL4KI+CSt6kL/KL5y500Ut5xvNI39NJXlxbDJMv+SmvStrk1spIN1gvhc0tXZPLoh/EtK5vcolwU1q85fiK3GX4kwuSrofdL29Fx1xdQxWQRW+RICPjziCTu4wa0IBHb2ycq0Aj7p4YjVujJxEyl3s0QgUN+Amkc8WIcj7mT0REQaVxn/7G9NKLbkUeQVzKQ+RBQkXFgKctCFaMQ5r8civ5JL2KfrWu6/Hf3EhgXNfOoUD8E9NAcpzolPL3DEr+8vWlc1dfc4UsxTBy8lYg5s2/aNWLEe4t8nE3hatc0ka3IgMpjDfJEmJc1bXFtFHmKdCLv2ckSCXqjUZ/rFCbzB87xtg+O+EwohHDgrKK1iqFjQAkC1lEhTzgJj+Oh52IEHJXS4TgwwomEhMBoSJe0a5fxJMH8Vyf8uNaFaGwZLFb1K/Hdd0lzIGDDnLP238LaTwvHZZPJQ/z84/rkIxQSl/S0blievTl4JpHvyHqEM9/5UfYnJjOz1nt55/LEJd+C8EUpzBuksVYxeEH0V91zjKifkbGJEEmdxlDQkRlJNB4izwoIFEt1GhLDzcKhVKghqxUQWkTQZGgRi/lTTyuJHLjH3MSeUAe9SX3cAXE2bmKcYQeV31tMc4O/jk5LF+fQfHySNfjo47i0I3ahJMb4xUHAdJ1m0tY/92Nf8wxCVY79BSXfqdB1xX9BsXLk9wYTx6cA1fnTGliiiIM3O/p8HgeCkfCVgH5xS5i/SGNfAX8DCVZdfRgcK7oel4jJbgJ1JCAIVE3GnpQisBr+YjQxHBBUlLYhSIxIkxV55VC9OGpxIngoJ9kWh8Ov8nNSfIivxJ5S8TNPNFPAvwopnSuk4hUcU9cyfMvX2/UEeHDdaHHK5/oSh9/iivp2EG4ghgHYYxEUof+ux7xusZSHHmQV3EugTjkeJMcmcd5PgqUQHyUKW1tPIh5ekYZGZMCmdxlFKCBrl95+SuiBnwIeGNPfNSpp2uygggo7E4FJoBkyFvSqwWEAuIi/SirycyvB+KBngSSVxDjEwEqxw/SjXrSJRzjS3p+rcRDjvBW8tV1JsQ0xIlIEavxcjFuCH3B8vbJFFJWuJImIfpiOl8+BT/niffWCJdikas7V7Fyq5DyVnrPx/3mJY8i76FRN19AOuVXyUN/JfO4uhgpflwQG/m6ZcGhciIiIm39TtxEuAaD2OFRWOJK5y2IkmR+vjLKufpgfwvHaxNZwVUerpM8+hv1/PBz+Ob6xBYJ3BfzKK7DAhXdCnTOKBdRM12lKespLh6JsJXiE1Er0sXrUxy/xz3yF1CYGE9TifN0RXySJzH/6j5rlxXXUBcx3sB7XHU9GRl3GJncZdwEYgM7BCqNb3Lro0KWIqoDMewyz1M+havllbjKdVVcz0Z/YrzHFX4PGvA7KXPiVQZxFd3U7ZrO7+IUn1yiiIPAcEgQ807XEhH9aKc8qwhVPKrSCOV4nHQuzoETz6UAf0AKR4Hy9XMprsgv+tGWG0FQOcR8EiTy8+IvrqUGyNN1VTWQ8Z5X5ZlChbA6dkJRNOr1G3dJTQeCAtlV427EpK62xTlpiSDvIn/yin7yc5+DPJFF/SIukqKCfOh/jCWMo/h4Ts7NtSls8sJCVXHlQ17W4y9plafr6i/Xgo7i0I9xyAq/pynSK43LBIkqeVd+S7yH8Q86VffOE7qP9PJwDfJU4pI/hiVRGFFZDlwe/9Scr4LifBkZkxyZ3GXcJPy1GUw2EkzO/0QOJKrRlUpJRldo9FZ0o5vCMb8qvZKuE5Pox1NEucdTRn+ahJDCKR/Ih9xKnPx2uIr7ceueT7JIVKriYnz0Q/qKc6ZrkRxvSqOAh+PhcJlc3TfCLh+sgzfJzS3/bkUTBxFzv4fx4/Wwe82V1+LlROJWyIhXQG7lPGWgw3939Sc1ssVJa8DzGCJqIjGYANSBxUtPF4i+hPypgnQKwhDTlPQ9XPKnYFW4EJrM8irycNdJFMEoj3H40p8incgdcegQFwma/vMnHoTkpPiUphyfXNeTTlW8OamruCTH9evhPzLEFiZUIp+VNLXhmCrFmZuuRYdHxv/RTfE4QpTrTxK6rALyjd7qiIyMSYtM7jJuEdZMV71Bg1+numQD1LTYhZ4c8kVfkogUL2qAJ4pKrv7GsPKL+QhRLtTK3V+WDYrX/+hP8XgLmaTuT+GoK0SyE2OkU5yj8LvcgQwHF/LlcuUgL251Hgp7yPyRfJEixgmJDEZNFyeiFuX8T34gpzqfyozliKjvqujhAdEjEf5KWJKYX32QyOOH05oIVIhCfTjJgIxUQynK8piF5ycfgehPcpcVJCNGJ/KTBBXLUdLhTyQfSocf10kSSHGVvF1elnka5NFfloPCj5wg1+Vx5WtylRgX9V2tQh71x/wpv/I5okLUrYkHlnclLiLpkbZGntK6SopDL7pylLIUDyr+qvNnZEwRZHKXMY6IjXDxRg1+tSoNubm1euVG3vzlIDoetj+FPHqioohDOa4sByVLUnEdxUk8TiFk7qnIgMldnXjIEC7iqEF80i7JUHKHPxVCJKeIdzcK+aM4/eO6U3yUJ7+86OBJh5DyxFu2fJV1FPK/SotTInl28M+V9EdukW8RV0HFAliG6xW/MSoU11wXOvMw8bcBqdEvNfRVIL4gNmWYvLZbT7o1+dSEPT4eMa4gMnboaqZHt0CMjyj05YdkyScZYY/yeHeciEmOK92yPOmmtAkWl36jzuORygG/grh43E3Xg44gPaWoCSvgYbn8rxOOfiHlI50KBl9LhPQjCnkp3lD89oyMKYhM7jJuEuXXpn4lWCEBCdXh6njzq7GPwRrd1Mg7IYix9fJPevrD35JOSb+qGzK6kU7EMCCuVm6hIh93PUh+xEkShR5fkSekeJyY7v/f3rXoRhHEsPL/P038SCaZnR4HSEUqY3U3juNkelCx0amlTSsw9XmtpgXMOXpdf/x5JqwvH/oT2Ycawos5AG1Ny5mp4Ve69TowzjPGGYC71u33EC2Pczf80cPaPW0VmDjODG3o0R35/MZ9aed+oC8fWorgncuk59YcRFUE6fm6h4+9CH4n7NEbaenh5SLnHHdSccW1uK3FliYFMMxh3nUq0qzPPBH60BT1OZK4rrQR1jKSZV5Ar+LFxXfBXe4uvgQvF4aGtWjYU9atBwsFJXipKNQ5GQPWanbHqQZuHVoykVXLCnt7v1GvOeJYqMrPZPmAXY+rPreyFQmgnrR56V++OcsobwM8jss/PQ+tfA2Hvk9BG84NYv4SOM80kf8dzOeIB/hYrkDffJhzKfCC9S7GEiawfbyj54VkIHJ8YOna3/3LT+DwGqaXA1Tj8maNyBiwLh8iXuOqq4y76ukH+KvGskZkDObv58OVs6k3j+ZBWfWK2Zcg3zQg8ucPhgTgs7fU6m2+gOSpXVx8B9zl7uKLkF9mP56LwPFhjod1q+SyUALghAELBrNAM2ERGHpco5yJa0nt0xqx67lcNN1zur9m7zFAH/K45p+HdVJFeUmFWGKGRp9OJk99EVWjJo9veU7noC1f5ygHPGXqFZJEzGXL0iv0M4XPm1jhfKbGnm/oD3Hzet6/hEzzHbMNjzkhxPLDxaUD6Th0d0RGQYtMLTOMzYkc9e5nISFd/SS85IdmkM45VYefV3vdrVeLoBNMYK31ipAzUHGeMGfNPgFKy+kLhXmZrCP6lvNSHzj0X1x8Y9zl7uKLkF9m+Y/ryp/LHrBpuWycFgCGAw+Q8XvtAEVZrCkhFeypeqsVj1XkqLNSubgY8fCZlWdpFeNadSOE1a+cPnLcANTXO1ljhhJ1WEpNkO6JrRZKt1VdAVg/ZNFqs2mgzqi4oeRD/cXc14ivwXrGd/4KXjhOGEtGAssEhL0mMhaNSKyWJGQ+RM31bHGoawljyrI8BM8Inim5rxSrjrkZXUtfpsUlzNfa+lKzf/aRSC8/QAEfRvq2mIDXUZh1yVvPxcU3x13uLv4R8GW3/sF9a8EDwjfVyIbgpM17zMaMYw+uLPRzgjGxYl6OXgMw/1Tj7DZ31HQbfXyHLhGskvTYz1TRlQCSleXZuLoswAtLL0gTBanPrKF5TI5/j7vWek5TJ6L+K8vf4s2HvxaTg++kBR7v9m3njEXHcY0CSX1iX6TUtIySrDEmZr48/DC3hjuDeOlOAb2+IThYa7OAqZPozhC3lINISq0K0griQ+reQM2+uPiv8PHxE9sJP55tPpiVAAAAAElFTkSuQmCC;" vertex="1" parent="WIyWlLk6GJQsqaUBKTNV-1">
          <mxGeometry x="1896" y="906" width="96" height="62.22" as="geometry" />
        </mxCell>
        <mxCell id="V5vFEUDcHm2LEVWNf_BM-325" value="Snowflake &lt;br&gt;DWH" style="text;html=1;align=center;verticalAlign=middle;resizable=0;points=[];autosize=1;strokeColor=none;fillColor=none;" vertex="1" parent="WIyWlLk6GJQsqaUBKTNV-1">
          <mxGeometry x="1904" y="968.22" width="80" height="40" as="geometry" />
        </mxCell>
        <mxCell id="V5vFEUDcHm2LEVWNf_BM-328" style="edgeStyle=orthogonalEdgeStyle;rounded=0;orthogonalLoop=1;jettySize=auto;html=1;entryX=0.5;entryY=0;entryDx=0;entryDy=0;entryPerimeter=0;" edge="1" parent="WIyWlLk6GJQsqaUBKTNV-1" source="V5vFEUDcHm2LEVWNf_BM-330" target="V5vFEUDcHm2LEVWNf_BM-337">
          <mxGeometry relative="1" as="geometry">
            <mxPoint x="1495.000000000001" y="422" as="targetPoint" />
          </mxGeometry>
        </mxCell>
        <mxCell id="V5vFEUDcHm2LEVWNf_BM-329" style="edgeStyle=orthogonalEdgeStyle;rounded=0;orthogonalLoop=1;jettySize=auto;html=1;entryX=0.5;entryY=0;entryDx=0;entryDy=0;entryPerimeter=0;" edge="1" parent="WIyWlLk6GJQsqaUBKTNV-1" source="V5vFEUDcHm2LEVWNf_BM-330" target="V5vFEUDcHm2LEVWNf_BM-315">
          <mxGeometry relative="1" as="geometry">
            <mxPoint x="2419.461538461538" y="420" as="targetPoint" />
          </mxGeometry>
        </mxCell>
        <mxCell id="V5vFEUDcHm2LEVWNf_BM-330" value="" style="outlineConnect=0;dashed=0;verticalLabelPosition=bottom;verticalAlign=top;align=center;html=1;shape=mxgraph.aws3.application_load_balancer;fillColor=#F58534;gradientColor=none;" vertex="1" parent="WIyWlLk6GJQsqaUBKTNV-1">
          <mxGeometry x="1928.5" y="295.5" width="50" height="50" as="geometry" />
        </mxCell>
        <mxCell id="V5vFEUDcHm2LEVWNf_BM-331" style="edgeStyle=orthogonalEdgeStyle;rounded=0;orthogonalLoop=1;jettySize=auto;html=1;" edge="1" parent="WIyWlLk6GJQsqaUBKTNV-1" source="V5vFEUDcHm2LEVWNf_BM-332" target="V5vFEUDcHm2LEVWNf_BM-330">
          <mxGeometry relative="1" as="geometry" />
        </mxCell>
        <mxCell id="V5vFEUDcHm2LEVWNf_BM-332" value="" style="outlineConnect=0;dashed=0;verticalLabelPosition=bottom;verticalAlign=top;align=center;html=1;shape=mxgraph.aws3.classic_load_balancer;fillColor=#F58536;gradientColor=none;" vertex="1" parent="WIyWlLk6GJQsqaUBKTNV-1">
          <mxGeometry x="1928.5" y="224.5" width="50" height="50" as="geometry" />
        </mxCell>
        <mxCell id="V5vFEUDcHm2LEVWNf_BM-334" style="edgeStyle=orthogonalEdgeStyle;rounded=0;orthogonalLoop=1;jettySize=auto;html=1;entryX=0.5;entryY=0;entryDx=0;entryDy=0;entryPerimeter=0;" edge="1" parent="WIyWlLk6GJQsqaUBKTNV-1" source="V5vFEUDcHm2LEVWNf_BM-330" target="V5vFEUDcHm2LEVWNf_BM-338">
          <mxGeometry relative="1" as="geometry">
            <mxPoint x="1796" y="417" as="targetPoint" />
          </mxGeometry>
        </mxCell>
        <mxCell id="V5vFEUDcHm2LEVWNf_BM-336" style="edgeStyle=orthogonalEdgeStyle;rounded=0;orthogonalLoop=1;jettySize=auto;html=1;" edge="1" parent="WIyWlLk6GJQsqaUBKTNV-1" source="V5vFEUDcHm2LEVWNf_BM-337" target="V5vFEUDcHm2LEVWNf_BM-338">
          <mxGeometry relative="1" as="geometry" />
        </mxCell>
        <mxCell id="V5vFEUDcHm2LEVWNf_BM-373" style="edgeStyle=orthogonalEdgeStyle;rounded=0;orthogonalLoop=1;jettySize=auto;html=1;exitX=0.463;exitY=0.3;exitDx=0;exitDy=0;exitPerimeter=0;" edge="1" parent="WIyWlLk6GJQsqaUBKTNV-1" source="V5vFEUDcHm2LEVWNf_BM-343" target="V5vFEUDcHm2LEVWNf_BM-335">
          <mxGeometry relative="1" as="geometry" />
        </mxCell>
        <mxCell id="V5vFEUDcHm2LEVWNf_BM-337" value="" style="sketch=0;points=[[0,0,0],[0.25,0,0],[0.5,0,0],[0.75,0,0],[1,0,0],[0,1,0],[0.25,1,0],[0.5,1,0],[0.75,1,0],[1,1,0],[0,0.25,0],[0,0.5,0],[0,0.75,0],[1,0.25,0],[1,0.5,0],[1,0.75,0]];outlineConnect=0;fontColor=#232F3E;fillColor=#ED7100;strokeColor=#ffffff;dashed=0;verticalLabelPosition=bottom;verticalAlign=top;align=center;html=1;fontSize=12;fontStyle=0;aspect=fixed;shape=mxgraph.aws4.resourceIcon;resIcon=mxgraph.aws4.fargate;" vertex="1" parent="WIyWlLk6GJQsqaUBKTNV-1">
          <mxGeometry x="1707" y="419" width="50" height="50" as="geometry" />
        </mxCell>
        <mxCell id="V5vFEUDcHm2LEVWNf_BM-338" value="" style="sketch=0;points=[[0,0,0],[0.25,0,0],[0.5,0,0],[0.75,0,0],[1,0,0],[0,1,0],[0.25,1,0],[0.5,1,0],[0.75,1,0],[1,1,0],[0,0.25,0],[0,0.5,0],[0,0.75,0],[1,0.25,0],[1,0.5,0],[1,0.75,0]];outlineConnect=0;fontColor=#232F3E;fillColor=#ED7100;strokeColor=#ffffff;dashed=0;verticalLabelPosition=bottom;verticalAlign=top;align=center;html=1;fontSize=12;fontStyle=0;aspect=fixed;shape=mxgraph.aws4.resourceIcon;resIcon=mxgraph.aws4.fargate;" vertex="1" parent="WIyWlLk6GJQsqaUBKTNV-1">
          <mxGeometry x="1822" y="418" width="50" height="50" as="geometry" />
        </mxCell>
        <mxCell id="V5vFEUDcHm2LEVWNf_BM-339" style="edgeStyle=orthogonalEdgeStyle;rounded=0;orthogonalLoop=1;jettySize=auto;html=1;entryX=0.5;entryY=0;entryDx=0;entryDy=0;entryPerimeter=0;" edge="1" parent="WIyWlLk6GJQsqaUBKTNV-1" source="V5vFEUDcHm2LEVWNf_BM-330" target="V5vFEUDcHm2LEVWNf_BM-314">
          <mxGeometry relative="1" as="geometry">
            <mxPoint x="2118.5" y="422" as="targetPoint" />
          </mxGeometry>
        </mxCell>
        <mxCell id="V5vFEUDcHm2LEVWNf_BM-380" value="" style="edgeStyle=orthogonalEdgeStyle;rounded=0;orthogonalLoop=1;jettySize=auto;html=1;" edge="1" parent="WIyWlLk6GJQsqaUBKTNV-1" source="V5vFEUDcHm2LEVWNf_BM-341" target="V5vFEUDcHm2LEVWNf_BM-114">
          <mxGeometry relative="1" as="geometry" />
        </mxCell>
        <mxCell id="V5vFEUDcHm2LEVWNf_BM-341" value="Users / Applications" style="rounded=1;whiteSpace=wrap;html=1;fontSize=12;glass=0;strokeWidth=1;shadow=0;" vertex="1" parent="WIyWlLk6GJQsqaUBKTNV-1">
          <mxGeometry x="1894.5" y="40" width="120" height="40" as="geometry" />
        </mxCell>
        <mxCell id="V5vFEUDcHm2LEVWNf_BM-343" value="Fargate Hasura&lt;br style=&quot;border-color: var(--border-color); color: rgb(35, 47, 62); font-size: 8px;&quot;&gt;&lt;span style=&quot;color: rgb(35, 47, 62); font-size: 8px;&quot;&gt;GraphQL Engine&lt;/span&gt;" style="text;html=1;align=center;verticalAlign=middle;resizable=0;points=[];autosize=1;strokeColor=none;fillColor=none;fontSize=8;" vertex="1" parent="WIyWlLk6GJQsqaUBKTNV-1">
          <mxGeometry x="1695" y="467" width="80" height="30" as="geometry" />
        </mxCell>
        <mxCell id="V5vFEUDcHm2LEVWNf_BM-346" value="Fargate Hasura&lt;br style=&quot;border-color: var(--border-color); color: rgb(35, 47, 62); font-size: 8px;&quot;&gt;&lt;span style=&quot;border-color: var(--border-color); color: rgb(35, 47, 62); font-size: 8px;&quot;&gt;Snowflake&lt;/span&gt;&lt;br style=&quot;border-color: var(--border-color); color: rgb(35, 47, 62); font-size: 8px;&quot;&gt;&lt;span style=&quot;border-color: var(--border-color); color: rgb(35, 47, 62); font-size: 8px;&quot;&gt;Data Connector&lt;/span&gt;" style="text;html=1;align=center;verticalAlign=middle;resizable=0;points=[];autosize=1;strokeColor=none;fillColor=none;fontSize=8;" vertex="1" parent="WIyWlLk6GJQsqaUBKTNV-1">
          <mxGeometry x="1807" y="468" width="80" height="40" as="geometry" />
        </mxCell>
        <mxCell id="V5vFEUDcHm2LEVWNf_BM-358" value="1 Pull Data&amp;nbsp;from&amp;nbsp;&amp;nbsp;Snowflake" style="text;html=1;align=center;verticalAlign=middle;resizable=0;points=[];autosize=1;strokeColor=none;fillColor=none;" vertex="1" parent="WIyWlLk6GJQsqaUBKTNV-1">
          <mxGeometry x="1400" y="600" width="170" height="30" as="geometry" />
        </mxCell>
        <mxCell id="V5vFEUDcHm2LEVWNf_BM-366" value="" style="edgeStyle=orthogonalEdgeStyle;rounded=0;orthogonalLoop=1;jettySize=auto;html=1;" edge="1" parent="WIyWlLk6GJQsqaUBKTNV-1" source="V5vFEUDcHm2LEVWNf_BM-364" target="V5vFEUDcHm2LEVWNf_BM-324">
          <mxGeometry relative="1" as="geometry" />
        </mxCell>
        <mxCell id="V5vFEUDcHm2LEVWNf_BM-369" value="OnePI AWS Account" style="points=[[0,0],[0.25,0],[0.5,0],[0.75,0],[1,0],[1,0.25],[1,0.5],[1,0.75],[1,1],[0.75,1],[0.5,1],[0.25,1],[0,1],[0,0.75],[0,0.5],[0,0.25]];outlineConnect=0;gradientColor=none;html=1;whiteSpace=wrap;fontSize=12;fontStyle=0;container=1;pointerEvents=0;collapsible=0;recursiveResize=0;shape=mxgraph.aws4.group;grIcon=mxgraph.aws4.group_aws_cloud_alt;strokeColor=#232F3E;fillColor=none;verticalAlign=top;align=left;spacingLeft=30;fontColor=#232F3E;dashed=0;" vertex="1" parent="WIyWlLk6GJQsqaUBKTNV-1">
          <mxGeometry x="1670" y="110" width="550" height="700" as="geometry" />
        </mxCell>
        <mxCell id="V5vFEUDcHm2LEVWNf_BM-308" value="PORT &lt;br&gt;28081" style="text;html=1;align=center;verticalAlign=middle;resizable=0;points=[];autosize=1;strokeColor=none;fillColor=none;" vertex="1" parent="V5vFEUDcHm2LEVWNf_BM-369">
          <mxGeometry x="431" y="206" width="60" height="40" as="geometry" />
        </mxCell>
        <mxCell id="V5vFEUDcHm2LEVWNf_BM-318" value="Inactive" style="text;html=1;align=center;verticalAlign=middle;resizable=0;points=[];autosize=1;strokeColor=none;fillColor=none;fontSize=16;fontStyle=1" vertex="1" parent="V5vFEUDcHm2LEVWNf_BM-369">
          <mxGeometry x="393" y="275" width="80" height="30" as="geometry" />
        </mxCell>
        <mxCell id="V5vFEUDcHm2LEVWNf_BM-297" value="" style="sketch=0;points=[[0,0,0],[0.25,0,0],[0.5,0,0],[0.75,0,0],[1,0,0],[0,1,0],[0.25,1,0],[0.5,1,0],[0.75,1,0],[1,1,0],[0,0.25,0],[0,0.5,0],[0,0.75,0],[1,0.25,0],[1,0.5,0],[1,0.75,0]];outlineConnect=0;fontColor=#232F3E;fillColor=#ED7100;strokeColor=#ffffff;dashed=0;verticalLabelPosition=bottom;verticalAlign=top;align=center;html=1;fontSize=12;fontStyle=0;aspect=fixed;shape=mxgraph.aws4.resourceIcon;resIcon=mxgraph.aws4.fargate;" vertex="1" parent="V5vFEUDcHm2LEVWNf_BM-369">
          <mxGeometry x="249" y="421" width="50" height="50" as="geometry" />
        </mxCell>
        <mxCell id="V5vFEUDcHm2LEVWNf_BM-335" value="" style="outlineConnect=0;dashed=0;verticalLabelPosition=bottom;verticalAlign=top;align=center;html=1;shape=mxgraph.aws3.rds;fillColor=#2E73B8;gradientColor=none;" vertex="1" parent="V5vFEUDcHm2LEVWNf_BM-369">
          <mxGeometry x="37" y="421" width="50" height="50" as="geometry" />
        </mxCell>
        <mxCell id="V5vFEUDcHm2LEVWNf_BM-340" style="edgeStyle=orthogonalEdgeStyle;rounded=0;orthogonalLoop=1;jettySize=auto;html=1;entryX=1;entryY=0.5;entryDx=0;entryDy=0;entryPerimeter=0;" edge="1" parent="V5vFEUDcHm2LEVWNf_BM-369" source="V5vFEUDcHm2LEVWNf_BM-297" target="V5vFEUDcHm2LEVWNf_BM-335">
          <mxGeometry relative="1" as="geometry" />
        </mxCell>
        <mxCell id="V5vFEUDcHm2LEVWNf_BM-312" value="PORT 28081" style="text;html=1;align=center;verticalAlign=middle;resizable=0;points=[];autosize=1;strokeColor=none;fillColor=none;fontSize=8;" vertex="1" parent="V5vFEUDcHm2LEVWNf_BM-369">
          <mxGeometry x="398" y="332" width="70" height="20" as="geometry" />
        </mxCell>
        <mxCell id="V5vFEUDcHm2LEVWNf_BM-303" value="Aurora RDS&lt;br style=&quot;font-size: 8px;&quot;&gt;bridge db" style="text;html=1;align=center;verticalAlign=middle;resizable=0;points=[];autosize=1;strokeColor=none;fillColor=none;fontSize=8;" vertex="1" parent="V5vFEUDcHm2LEVWNf_BM-369">
          <mxGeometry x="27" y="469" width="70" height="30" as="geometry" />
        </mxCell>
        <mxCell id="V5vFEUDcHm2LEVWNf_BM-347" value="Fargate Hasura&lt;br style=&quot;border-color: var(--border-color); color: rgb(35, 47, 62); font-size: 8px;&quot;&gt;&lt;span style=&quot;color: rgb(35, 47, 62); font-size: 8px;&quot;&gt;GraphQL Engine&lt;/span&gt;" style="text;html=1;align=center;verticalAlign=middle;resizable=0;points=[];autosize=1;strokeColor=none;fillColor=none;fontSize=8;" vertex="1" parent="V5vFEUDcHm2LEVWNf_BM-369">
          <mxGeometry x="452" y="352" width="80" height="30" as="geometry" />
        </mxCell>
        <mxCell id="V5vFEUDcHm2LEVWNf_BM-345" value="Fargate Hasura&lt;br style=&quot;border-color: var(--border-color); color: rgb(35, 47, 62); font-size: 8px;&quot;&gt;&lt;span style=&quot;border-color: var(--border-color); color: rgb(35, 47, 62); font-size: 8px;&quot;&gt;Snowflake&lt;/span&gt;&lt;br style=&quot;border-color: var(--border-color); color: rgb(35, 47, 62); font-size: 8px;&quot;&gt;&lt;span style=&quot;border-color: var(--border-color); color: rgb(35, 47, 62); font-size: 8px;&quot;&gt;Data Connector&lt;/span&gt;" style="text;html=1;align=center;verticalAlign=middle;resizable=0;points=[];autosize=1;strokeColor=none;fillColor=none;fontSize=8;" vertex="1" parent="V5vFEUDcHm2LEVWNf_BM-369">
          <mxGeometry x="335" y="357" width="80" height="40" as="geometry" />
        </mxCell>
        <mxCell id="V5vFEUDcHm2LEVWNf_BM-313" value="" style="outlineConnect=0;dashed=0;verticalLabelPosition=bottom;verticalAlign=top;align=center;html=1;shape=mxgraph.aws3.rds;fillColor=#2E73B8;gradientColor=none;" vertex="1" parent="V5vFEUDcHm2LEVWNf_BM-369">
          <mxGeometry x="467" y="421" width="50" height="50" as="geometry" />
        </mxCell>
        <mxCell id="V5vFEUDcHm2LEVWNf_BM-320" style="edgeStyle=orthogonalEdgeStyle;rounded=0;orthogonalLoop=1;jettySize=auto;html=1;" edge="1" parent="V5vFEUDcHm2LEVWNf_BM-369" source="V5vFEUDcHm2LEVWNf_BM-297" target="V5vFEUDcHm2LEVWNf_BM-313">
          <mxGeometry relative="1" as="geometry" />
        </mxCell>
        <mxCell id="V5vFEUDcHm2LEVWNf_BM-311" value="Aurora RDS&lt;br style=&quot;font-size: 8px;&quot;&gt;bridge db" style="text;html=1;align=center;verticalAlign=middle;resizable=0;points=[];autosize=1;strokeColor=none;fillColor=none;fontSize=8;" vertex="1" parent="V5vFEUDcHm2LEVWNf_BM-369">
          <mxGeometry x="457" y="469" width="70" height="30" as="geometry" />
        </mxCell>
        <mxCell id="V5vFEUDcHm2LEVWNf_BM-315" value="" style="sketch=0;points=[[0,0,0],[0.25,0,0],[0.5,0,0],[0.75,0,0],[1,0,0],[0,1,0],[0.25,1,0],[0.5,1,0],[0.75,1,0],[1,1,0],[0,0.25,0],[0,0.5,0],[0,0.75,0],[1,0.25,0],[1,0.5,0],[1,0.75,0]];outlineConnect=0;fontColor=#232F3E;fillColor=#ED7100;strokeColor=#ffffff;dashed=0;verticalLabelPosition=bottom;verticalAlign=top;align=center;html=1;fontSize=12;fontStyle=0;aspect=fixed;shape=mxgraph.aws4.resourceIcon;resIcon=mxgraph.aws4.fargate;" vertex="1" parent="V5vFEUDcHm2LEVWNf_BM-369">
          <mxGeometry x="467" y="307" width="50" height="50" as="geometry" />
        </mxCell>
        <mxCell id="V5vFEUDcHm2LEVWNf_BM-317" style="edgeStyle=orthogonalEdgeStyle;rounded=0;orthogonalLoop=1;jettySize=auto;html=1;entryX=0.5;entryY=0;entryDx=0;entryDy=0;entryPerimeter=0;" edge="1" parent="V5vFEUDcHm2LEVWNf_BM-369" source="V5vFEUDcHm2LEVWNf_BM-315" target="V5vFEUDcHm2LEVWNf_BM-313">
          <mxGeometry relative="1" as="geometry" />
        </mxCell>
        <mxCell id="V5vFEUDcHm2LEVWNf_BM-309" value="PORT &lt;br&gt;443" style="text;html=1;align=center;verticalAlign=middle;resizable=0;points=[];autosize=1;strokeColor=none;fillColor=none;" vertex="1" parent="V5vFEUDcHm2LEVWNf_BM-369">
          <mxGeometry x="309" y="206" width="60" height="40" as="geometry" />
        </mxCell>
        <mxCell id="V5vFEUDcHm2LEVWNf_BM-306" value="PORT&lt;br&gt;8081" style="text;html=1;align=center;verticalAlign=middle;resizable=0;points=[];autosize=1;strokeColor=none;fillColor=none;" vertex="1" parent="V5vFEUDcHm2LEVWNf_BM-369">
          <mxGeometry x="168" y="226" width="60" height="40" as="geometry" />
        </mxCell>
        <mxCell id="V5vFEUDcHm2LEVWNf_BM-307" value="PORT&lt;br&gt;&amp;nbsp;443" style="text;html=1;align=center;verticalAlign=middle;resizable=0;points=[];autosize=1;strokeColor=none;fillColor=none;" vertex="1" parent="V5vFEUDcHm2LEVWNf_BM-369">
          <mxGeometry x="58" y="206" width="60" height="40" as="geometry" />
        </mxCell>
        <mxCell id="V5vFEUDcHm2LEVWNf_BM-333" value="Application&lt;br&gt;Load Balancer" style="text;html=1;align=center;verticalAlign=middle;resizable=0;points=[];autosize=1;strokeColor=none;fillColor=none;" vertex="1" parent="V5vFEUDcHm2LEVWNf_BM-369">
          <mxGeometry x="235" y="235" width="100" height="40" as="geometry" />
        </mxCell>
        <mxCell id="V5vFEUDcHm2LEVWNf_BM-298" value="Fargate &lt;br style=&quot;font-size: 8px;&quot;&gt;aurora_pipe" style="text;html=1;align=center;verticalAlign=middle;resizable=0;points=[];autosize=1;strokeColor=none;fillColor=none;fontSize=8;" vertex="1" parent="V5vFEUDcHm2LEVWNf_BM-369">
          <mxGeometry x="219" y="471" width="70" height="30" as="geometry" />
        </mxCell>
        <mxCell id="V5vFEUDcHm2LEVWNf_BM-299" value="DaaS API S3 &lt;br&gt;Bucket&amp;nbsp;" style="text;html=1;align=center;verticalAlign=middle;resizable=0;points=[];autosize=1;strokeColor=none;fillColor=none;" vertex="1" parent="V5vFEUDcHm2LEVWNf_BM-369">
          <mxGeometry x="231" y="296" width="90" height="40" as="geometry" />
        </mxCell>
        <mxCell id="V5vFEUDcHm2LEVWNf_BM-363" value="" style="outlineConnect=0;dashed=0;verticalLabelPosition=bottom;verticalAlign=top;align=center;html=1;shape=mxgraph.aws3.endpoints;fillColor=#F58536;gradientColor=none;" vertex="1" parent="V5vFEUDcHm2LEVWNf_BM-369">
          <mxGeometry x="249" y="531" width="50" height="50" as="geometry" />
        </mxCell>
        <mxCell id="V5vFEUDcHm2LEVWNf_BM-375" style="edgeStyle=orthogonalEdgeStyle;rounded=0;orthogonalLoop=1;jettySize=auto;html=1;entryX=0.5;entryY=0;entryDx=0;entryDy=0;entryPerimeter=0;" edge="1" parent="V5vFEUDcHm2LEVWNf_BM-369" source="V5vFEUDcHm2LEVWNf_BM-297" target="V5vFEUDcHm2LEVWNf_BM-363">
          <mxGeometry relative="1" as="geometry" />
        </mxCell>
        <mxCell id="V5vFEUDcHm2LEVWNf_BM-372" style="edgeStyle=orthogonalEdgeStyle;rounded=0;orthogonalLoop=1;jettySize=auto;html=1;entryX=1;entryY=0.5;entryDx=0;entryDy=0;entryPerimeter=0;" edge="1" parent="V5vFEUDcHm2LEVWNf_BM-369" source="V5vFEUDcHm2LEVWNf_BM-314" target="V5vFEUDcHm2LEVWNf_BM-363">
          <mxGeometry relative="1" as="geometry">
            <Array as="points">
              <mxPoint x="317" y="332" />
              <mxPoint x="317" y="556" />
            </Array>
          </mxGeometry>
        </mxCell>
        <mxCell id="V5vFEUDcHm2LEVWNf_BM-364" value="" style="outlineConnect=0;dashed=0;verticalLabelPosition=bottom;verticalAlign=top;align=center;html=1;shape=mxgraph.aws3.hosted_zone;fillColor=#F58536;gradientColor=none;" vertex="1" parent="V5vFEUDcHm2LEVWNf_BM-369">
          <mxGeometry x="249" y="646" width="50" height="50" as="geometry" />
        </mxCell>
        <mxCell id="V5vFEUDcHm2LEVWNf_BM-365" value="" style="edgeStyle=orthogonalEdgeStyle;rounded=0;orthogonalLoop=1;jettySize=auto;html=1;" edge="1" parent="V5vFEUDcHm2LEVWNf_BM-369" source="V5vFEUDcHm2LEVWNf_BM-363" target="V5vFEUDcHm2LEVWNf_BM-364">
          <mxGeometry relative="1" as="geometry" />
        </mxCell>
        <mxCell id="V5vFEUDcHm2LEVWNf_BM-113" value="" style="group" vertex="1" connectable="0" parent="V5vFEUDcHm2LEVWNf_BM-369">
          <mxGeometry x="253.25" y="-4.5" width="171.5" height="64.5" as="geometry" />
        </mxCell>
        <mxCell id="V5vFEUDcHm2LEVWNf_BM-115" value="Route 53 PHZ&lt;br style=&quot;border-color: var(--border-color);&quot;&gt;Hasura End-Point" style="text;html=1;align=center;verticalAlign=middle;resizable=0;points=[];autosize=1;strokeColor=none;fillColor=none;" vertex="1" parent="V5vFEUDcHm2LEVWNf_BM-113">
          <mxGeometry x="51.5" y="12.25" width="120" height="40" as="geometry" />
        </mxCell>
        <mxCell id="V5vFEUDcHm2LEVWNf_BM-300" value="Network &lt;br&gt;Load Balancer&lt;div&gt;&lt;br/&gt;&lt;/div&gt;" style="text;html=1;align=center;verticalAlign=middle;resizable=0;points=[];autosize=1;strokeColor=none;fillColor=none;" vertex="1" parent="V5vFEUDcHm2LEVWNf_BM-369">
          <mxGeometry x="309" y="110" width="100" height="60" as="geometry" />
        </mxCell>
        <mxCell id="V5vFEUDcHm2LEVWNf_BM-294" value="2 Cache Data to S3" style="text;html=1;align=center;verticalAlign=middle;resizable=0;points=[];autosize=1;strokeColor=none;fillColor=none;" vertex="1" parent="WIyWlLk6GJQsqaUBKTNV-1">
          <mxGeometry x="1420" y="429" width="130" height="30" as="geometry" />
        </mxCell>
        <mxCell id="V5vFEUDcHm2LEVWNf_BM-376" style="edgeStyle=orthogonalEdgeStyle;rounded=0;orthogonalLoop=1;jettySize=auto;html=1;entryX=0;entryY=0.5;entryDx=0;entryDy=0;entryPerimeter=0;" edge="1" parent="WIyWlLk6GJQsqaUBKTNV-1" source="V5vFEUDcHm2LEVWNf_BM-338" target="V5vFEUDcHm2LEVWNf_BM-363">
          <mxGeometry relative="1" as="geometry" />
        </mxCell>
        <mxCell id="V5vFEUDcHm2LEVWNf_BM-379" style="edgeStyle=orthogonalEdgeStyle;rounded=0;orthogonalLoop=1;jettySize=auto;html=1;entryX=0.5;entryY=1;entryDx=0;entryDy=0;entryPerimeter=0;" edge="1" parent="WIyWlLk6GJQsqaUBKTNV-1" source="V5vFEUDcHm2LEVWNf_BM-297" target="V5vFEUDcHm2LEVWNf_BM-295">
          <mxGeometry relative="1" as="geometry" />
        </mxCell>
        <mxCell id="V5vFEUDcHm2LEVWNf_BM-385" style="edgeStyle=orthogonalEdgeStyle;rounded=0;orthogonalLoop=1;jettySize=auto;html=1;entryX=0.5;entryY=0;entryDx=0;entryDy=0;entryPerimeter=0;" edge="1" parent="WIyWlLk6GJQsqaUBKTNV-1" source="V5vFEUDcHm2LEVWNf_BM-114" target="V5vFEUDcHm2LEVWNf_BM-332">
          <mxGeometry relative="1" as="geometry" />
        </mxCell>
      </root>
    </mxGraphModel>
  </diagram>
</mxfile>
